<?xml version="1.0" encoding="utf-8"?>
<!-- Generator: Adobe Illustrator 18.1.0, SVG Export Plug-In . SVG Version: 6.00 Build 0)  -->
<svg version="1.1" id="Layer_1" xmlns="http://www.w3.org/2000/svg" xmlns:xlink="http://www.w3.org/1999/xlink" x="0px" y="0px"
	 viewBox="0 0 351 265" enable-background="new 0 0 351 265" xml:space="preserve">
<g>
	<g>
		<path fill="#FFF100" d="M67.9,188l-1.1,0.3c-0.1-0.5-0.4-0.9-0.7-1.1c-0.3-0.3-0.7-0.4-1.1-0.4c-0.4,0-0.8,0.1-1,0.4
			c-0.3,0.3-0.4,0.7-0.4,1.1c0,0.4,0.1,0.9,0.4,1.3c0.2,0.3,0.6,0.7,1.3,1.3c0.7,0.6,1.2,1.2,1.5,1.8s0.4,1.1,0.4,1.6
			c0,0.5-0.2,1.1-0.5,1.6c-0.3,0.5-0.7,0.9-1.2,1.2c-0.5,0.3-1,0.4-1.6,0.4c-0.7,0-1.4-0.2-1.9-0.7c-0.5-0.5-0.9-1.1-1.1-2l1-0.4
			c0.2,0.7,0.4,1.2,0.8,1.5c0.4,0.3,0.8,0.5,1.3,0.5c0.5,0,1-0.2,1.4-0.6c0.4-0.4,0.6-0.9,0.6-1.5c0-0.4-0.1-0.9-0.3-1.3
			c-0.2-0.4-0.7-0.9-1.3-1.5c-0.7-0.6-1.2-1.1-1.4-1.5c-0.3-0.6-0.5-1.2-0.5-1.8c0-0.8,0.3-1.4,0.8-1.9c0.5-0.5,1.1-0.8,1.9-0.8
			c0.6,0,1.2,0.2,1.7,0.6C67.3,186.6,67.7,187.2,67.9,188z"/>
		<path fill="#FFF100" d="M71.8,185.7h1.1l-0.4,3.1h1.7l-0.1,0.9h-1.7l-1,7.4h-1.1l1-7.4h-1.4l0.1-0.9h1.4L71.8,185.7z"/>
		<path fill="#FFF100" d="M83.4,197.2h-1.1l0.2-1.3c-1,1-2.1,1.5-3.3,1.5c-1.1,0-2.1-0.4-2.8-1.1c-0.7-0.7-1.1-1.7-1.1-2.8
			c0-1.3,0.5-2.5,1.4-3.4c1-1,2.1-1.4,3.4-1.4c0.7,0,1.3,0.1,1.8,0.4c0.5,0.3,1,0.7,1.3,1.4l0.2-1.6h1.1L83.4,197.2z M79.2,196.5
			c0.7,0,1.3-0.2,1.9-0.5c0.6-0.3,1-0.8,1.4-1.4c0.3-0.6,0.5-1.3,0.5-2c0-0.9-0.3-1.6-0.8-2.1c-0.5-0.5-1.3-0.8-2.1-0.8
			c-1,0-1.9,0.4-2.6,1.1c-0.7,0.7-1.1,1.7-1.1,2.7c0,0.9,0.3,1.6,0.8,2.1C77.7,196.2,78.4,196.5,79.2,196.5z"/>
		<path fill="#FFF100" d="M88.7,185.7h1.1l-0.4,3.1H91l-0.1,0.9h-1.7l-1,7.4h-1.1l1-7.4h-1.4l0.1-0.9h1.4L88.7,185.7z"/>
		<path fill="#FFF100" d="M97,189.8l-0.6,0.9c-0.5-0.7-1-1-1.7-1c-0.4,0-0.7,0.1-0.9,0.4c-0.3,0.2-0.4,0.5-0.4,0.8
			c0,0.2,0.1,0.4,0.2,0.6c0.2,0.2,0.5,0.5,1.1,0.8c0.8,0.5,1.3,1,1.6,1.4c0.3,0.4,0.4,0.8,0.4,1.3c0,0.7-0.2,1.3-0.7,1.7
			c-0.5,0.5-1.1,0.7-1.9,0.7c-1,0-1.9-0.5-2.6-1.4l0.7-0.8c0.6,0.8,1.3,1.1,2,1.1c0.4,0,0.8-0.1,1.1-0.4c0.3-0.3,0.5-0.6,0.5-1
			c0-0.3-0.1-0.6-0.3-0.9c-0.1-0.2-0.5-0.5-1.2-0.9c-0.7-0.5-1.2-0.9-1.4-1.2c-0.2-0.3-0.3-0.7-0.3-1.1c0-0.6,0.2-1.1,0.7-1.6
			c0.5-0.4,1.1-0.7,1.8-0.7c0.4,0,0.8,0.1,1.1,0.3C96.3,189.1,96.7,189.4,97,189.8z"/>
		<path fill="#FFF100" d="M111.6,197.2h-1.1l0.2-1.3c-1,1-2.1,1.5-3.3,1.5c-1.1,0-2.1-0.4-2.8-1.1c-0.7-0.7-1.1-1.7-1.1-2.8
			c0-1.3,0.5-2.5,1.4-3.4c1-1,2.1-1.4,3.4-1.4c0.7,0,1.3,0.1,1.8,0.4c0.5,0.3,1,0.7,1.3,1.4l0.2-1.6h1.1L111.6,197.2z M107.4,196.5
			c0.7,0,1.3-0.2,1.9-0.5c0.6-0.3,1-0.8,1.4-1.4c0.3-0.6,0.5-1.3,0.5-2c0-0.9-0.3-1.6-0.8-2.1c-0.5-0.5-1.3-0.8-2.1-0.8
			c-1,0-1.9,0.4-2.6,1.1c-0.7,0.7-1.1,1.7-1.1,2.7c0,0.9,0.3,1.6,0.8,2.1C105.9,196.2,106.6,196.5,107.4,196.5z"/>
		<path fill="#FFF100" d="M115.1,188.9h1.1l-0.1,1.1c0.3-0.4,0.6-0.7,1-0.9c0.4-0.2,0.8-0.3,1.2-0.3c0.3,0,0.6,0.1,0.9,0.2l-0.5,1
			c-0.3-0.1-0.5-0.2-0.7-0.2c-0.4,0-0.7,0.1-1.1,0.4c-0.4,0.3-0.7,0.6-0.9,1.1s-0.4,1.3-0.6,2.5l-0.5,3.6H114L115.1,188.9z"/>
		<path fill="#FFF100" d="M128.2,193.3h-7.5c0,1,0.2,1.8,0.8,2.3c0.5,0.6,1.2,0.9,2.1,0.9c0.6,0,1.1-0.1,1.6-0.4
			c0.5-0.2,0.9-0.6,1.2-1l0.8,0.7c-0.4,0.5-0.9,0.9-1.6,1.2c-0.7,0.3-1.4,0.5-2.1,0.5c-1.3,0-2.3-0.4-3-1.2c-0.7-0.8-1-1.7-1-2.7
			c0-0.8,0.2-1.6,0.7-2.4c0.4-0.8,1-1.4,1.8-1.8c0.7-0.4,1.6-0.6,2.4-0.6c1.1,0,2,0.4,2.7,1.1c0.7,0.7,1.1,1.7,1.1,2.8
			C128.3,192.7,128.3,193,128.2,193.3z M127.3,192.3c0-0.8-0.3-1.4-0.8-1.9s-1.1-0.7-1.9-0.7c-0.8,0-1.6,0.2-2.2,0.7
			s-1.1,1.1-1.4,1.9H127.3z"/>
		<path fill="#FFF100" d="M143.9,190.7l-0.9,0.5c-0.6-1-1.6-1.5-2.8-1.5c-0.7,0-1.4,0.2-2,0.5c-0.6,0.3-1.1,0.8-1.4,1.4
			c-0.3,0.6-0.5,1.2-0.5,1.9c0,0.6,0.1,1.1,0.4,1.6c0.3,0.5,0.6,0.8,1.1,1.1c0.5,0.3,1,0.4,1.6,0.4c0.6,0,1.3-0.1,1.9-0.4
			s1-0.6,1.4-1l0.9,0.6c-0.6,0.6-1.2,1-1.8,1.3c-0.6,0.3-1.4,0.4-2.3,0.4c-1.3,0-2.4-0.4-3.1-1.1c-0.7-0.7-1.1-1.7-1.1-2.9
			c0-1.3,0.5-2.5,1.5-3.4c1-0.9,2.2-1.4,3.6-1.4c0.8,0,1.6,0.2,2.2,0.5S143.6,190,143.9,190.7z"/>
		<path fill="#FFF100" d="M153.9,197.2h-1.1l0.2-1.3c-1,1-2.1,1.5-3.3,1.5c-1.1,0-2.1-0.4-2.8-1.1c-0.7-0.7-1.1-1.7-1.1-2.8
			c0-1.3,0.5-2.5,1.4-3.4c1-1,2.1-1.4,3.4-1.4c0.7,0,1.3,0.1,1.8,0.4c0.5,0.3,1,0.7,1.3,1.4l0.2-1.6h1.1L153.9,197.2z M149.8,196.5
			c0.7,0,1.3-0.2,1.9-0.5c0.6-0.3,1-0.8,1.3-1.4c0.3-0.6,0.5-1.3,0.5-2c0-0.9-0.3-1.6-0.8-2.1c-0.5-0.5-1.3-0.8-2.1-0.8
			c-1,0-1.9,0.4-2.6,1.1c-0.7,0.7-1.1,1.7-1.1,2.7c0,0.9,0.3,1.6,0.8,2.1C148.2,196.2,148.9,196.5,149.8,196.5z"/>
		<path fill="#FFF100" d="M158.1,185.6h1l-1.6,11.6h-1.1L158.1,185.6z"/>
		<path fill="#FFF100" d="M169.2,190.7l-0.9,0.5c-0.6-1-1.6-1.5-2.8-1.5c-0.7,0-1.4,0.2-2,0.5c-0.6,0.3-1.1,0.8-1.4,1.4
			c-0.3,0.6-0.5,1.2-0.5,1.9c0,0.6,0.1,1.1,0.4,1.6c0.3,0.5,0.6,0.8,1.1,1.1s1,0.4,1.6,0.4c0.6,0,1.3-0.1,1.9-0.4s1-0.6,1.4-1
			l0.9,0.6c-0.6,0.6-1.2,1-1.8,1.3c-0.7,0.3-1.4,0.4-2.3,0.4c-1.3,0-2.4-0.4-3.1-1.1c-0.7-0.7-1.1-1.7-1.1-2.9
			c0-1.3,0.5-2.5,1.5-3.4c1-0.9,2.2-1.4,3.6-1.4c0.8,0,1.6,0.2,2.2,0.5S168.9,190,169.2,190.7z"/>
		<path fill="#FFF100" d="M172.5,188.9h1.1l-0.5,3.5c-0.1,1-0.2,1.7-0.2,2c0,0.6,0.2,1.1,0.6,1.5c0.4,0.4,0.9,0.6,1.6,0.6
			c0.5,0,1-0.2,1.4-0.5c0.4-0.3,0.7-0.7,0.8-1.2c0.1-0.3,0.2-0.8,0.3-1.7l0.6-4.2h1.1l-0.4,3.2c-0.2,1.5-0.4,2.6-0.6,3.2
			c-0.2,0.6-0.6,1.2-1.2,1.6c-0.6,0.4-1.2,0.6-2,0.6c-0.9,0-1.7-0.3-2.2-0.9c-0.6-0.6-0.9-1.3-0.9-2.2c0-0.4,0-0.8,0.1-1.2l0.1-0.7
			l0-0.3L172.5,188.9z"/>
		<path fill="#FFF100" d="M182.3,185.6h1l-1.6,11.6h-1.1L182.3,185.6z"/>
		<path fill="#FFF100" d="M192.7,197.2h-1.1l0.2-1.3c-1,1-2.1,1.5-3.3,1.5c-1.1,0-2.1-0.4-2.8-1.1c-0.7-0.7-1.1-1.7-1.1-2.8
			c0-1.3,0.5-2.5,1.4-3.4c1-1,2.1-1.4,3.4-1.4c0.7,0,1.3,0.1,1.8,0.4c0.5,0.3,1,0.7,1.3,1.4l0.2-1.6h1.1L192.7,197.2z M188.6,196.5
			c0.7,0,1.3-0.2,1.9-0.5c0.6-0.3,1-0.8,1.3-1.4c0.3-0.6,0.5-1.3,0.5-2c0-0.9-0.3-1.6-0.8-2.1c-0.5-0.5-1.3-0.8-2.1-0.8
			c-1,0-1.9,0.4-2.6,1.1c-0.7,0.7-1.1,1.7-1.1,2.7c0,0.9,0.3,1.6,0.8,2.1C187,196.2,187.7,196.5,188.6,196.5z"/>
		<path fill="#FFF100" d="M198.1,185.7h1.1l-0.4,3.1h1.7l-0.1,0.9h-1.7l-1,7.4h-1.1l1-7.4h-1.4l0.1-0.9h1.4L198.1,185.7z"/>
		<path fill="#FFF100" d="M210,193.3h-7.5c0,1,0.2,1.8,0.8,2.3c0.5,0.6,1.2,0.9,2.1,0.9c0.6,0,1.1-0.1,1.6-0.4
			c0.5-0.2,0.9-0.6,1.2-1l0.8,0.7c-0.4,0.5-0.9,0.9-1.6,1.2c-0.7,0.3-1.4,0.5-2.1,0.5c-1.3,0-2.3-0.4-3-1.2c-0.7-0.8-1-1.7-1-2.7
			c0-0.8,0.2-1.6,0.7-2.4c0.4-0.8,1-1.4,1.8-1.8c0.7-0.4,1.6-0.6,2.4-0.6c1.1,0,2,0.4,2.7,1.1c0.7,0.7,1.1,1.7,1.1,2.8
			C210.1,192.7,210.1,193,210,193.3z M209,192.3c0-0.8-0.3-1.4-0.8-1.9c-0.5-0.5-1.1-0.7-1.9-0.7c-0.8,0-1.6,0.2-2.2,0.7
			s-1.1,1.1-1.4,1.9H209z"/>
		<path fill="#FFF100" d="M220.3,197.2h-1.1l0.2-1.3c-1,1-2.1,1.5-3.4,1.5c-1.1,0-2.1-0.4-2.8-1.1c-0.7-0.7-1.1-1.7-1.1-2.8
			c0-1.3,0.5-2.5,1.4-3.4c0.9-1,2.1-1.4,3.4-1.4c0.7,0,1.3,0.1,1.8,0.4c0.5,0.3,1,0.8,1.4,1.4l0.6-4.8h1.1L220.3,197.2z
			 M216.2,196.5c0.7,0,1.3-0.2,1.9-0.5c0.6-0.3,1-0.8,1.4-1.4c0.3-0.6,0.5-1.3,0.5-2c0-0.9-0.3-1.6-0.8-2.1
			c-0.5-0.5-1.3-0.8-2.1-0.8c-1,0-1.9,0.4-2.6,1.1c-0.7,0.7-1.1,1.7-1.1,2.7c0,0.9,0.3,1.6,0.8,2.1
			C214.6,196.2,215.3,196.5,216.2,196.5z"/>
		<path fill="#FFF100" d="M236.3,197.2h-1.1l0.2-1.3c-1,1-2.1,1.5-3.3,1.5c-1.1,0-2.1-0.4-2.8-1.1c-0.7-0.7-1.1-1.7-1.1-2.8
			c0-1.3,0.5-2.5,1.4-3.4c1-1,2.1-1.4,3.4-1.4c0.7,0,1.3,0.1,1.8,0.4c0.5,0.3,1,0.7,1.3,1.4l0.2-1.6h1.1L236.3,197.2z M232.1,196.5
			c0.7,0,1.3-0.2,1.9-0.5c0.6-0.3,1-0.8,1.3-1.4c0.3-0.6,0.5-1.3,0.5-2c0-0.9-0.3-1.6-0.8-2.1c-0.5-0.5-1.3-0.8-2.1-0.8
			c-1,0-1.9,0.4-2.6,1.1c-0.7,0.7-1.1,1.7-1.1,2.7c0,0.9,0.3,1.6,0.8,2.1C230.5,196.2,231.3,196.5,232.1,196.5z"/>
		<path fill="#FFF100" d="M240.3,188.9h1l-0.2,1.3c0.9-1,1.8-1.5,3-1.5c0.9,0,1.6,0.3,2.1,0.8c0.5,0.5,0.8,1.2,0.8,2.1
			c0,0.4-0.1,1-0.2,1.8l-0.5,3.8h-1.1l0.5-3.8c0.1-0.8,0.2-1.4,0.2-1.8c0-0.6-0.2-1.1-0.5-1.4s-0.8-0.5-1.4-0.5
			c-0.6,0-1.1,0.1-1.6,0.4c-0.5,0.3-0.9,0.7-1.1,1.2c-0.3,0.5-0.5,1.3-0.6,2.4l-0.5,3.6h-1.1L240.3,188.9z"/>
		<path fill="#FFF100" d="M257.5,197.2h-1.1l0.2-1.3c-1,1-2.1,1.5-3.4,1.5c-1.1,0-2.1-0.4-2.8-1.1c-0.7-0.7-1.1-1.7-1.1-2.8
			c0-1.3,0.5-2.5,1.4-3.4c0.9-1,2.1-1.4,3.4-1.4c0.7,0,1.3,0.1,1.8,0.4c0.5,0.3,1,0.8,1.4,1.4l0.6-4.8h1.1L257.5,197.2z
			 M253.3,196.5c0.7,0,1.3-0.2,1.9-0.5c0.6-0.3,1-0.8,1.4-1.4c0.3-0.6,0.5-1.3,0.5-2c0-0.9-0.3-1.6-0.8-2.1
			c-0.5-0.5-1.3-0.8-2.1-0.8c-1,0-1.9,0.4-2.6,1.1c-0.7,0.7-1.1,1.7-1.1,2.7c0,0.9,0.3,1.6,0.8,2.1
			C251.7,196.2,252.5,196.5,253.3,196.5z"/>
		<path fill="#FFF100" d="M55.7,212.5h1.1l-0.5,3.5c-0.1,1-0.2,1.7-0.2,2c0,0.6,0.2,1.1,0.6,1.5c0.4,0.4,0.9,0.6,1.6,0.6
			c0.5,0,1-0.2,1.4-0.5c0.4-0.3,0.7-0.7,0.8-1.2c0.1-0.3,0.2-0.8,0.3-1.7l0.6-4.2h1.1l-0.4,3.2c-0.2,1.5-0.4,2.6-0.6,3.2
			c-0.2,0.6-0.6,1.2-1.2,1.6c-0.6,0.4-1.2,0.6-2,0.6c-0.9,0-1.7-0.3-2.2-0.9c-0.6-0.6-0.9-1.3-0.9-2.2c0-0.4,0-0.8,0.1-1.2l0.1-0.7
			l0-0.3L55.7,212.5z"/>
		<path fill="#FFF100" d="M65.3,212.5h1.1l-0.2,1.3c1-1,2.1-1.5,3.3-1.5c1.1,0,2.1,0.4,2.8,1.1c0.7,0.7,1.1,1.7,1.1,2.8
			c0,1.3-0.5,2.5-1.4,3.4c-0.9,1-2.1,1.4-3.4,1.4c-0.7,0-1.3-0.1-1.8-0.4c-0.5-0.3-1-0.8-1.3-1.4l-0.6,4.7h-1.1L65.3,212.5z
			 M69.4,213.3c-0.7,0-1.3,0.2-1.9,0.5c-0.6,0.3-1,0.8-1.4,1.4c-0.3,0.6-0.5,1.3-0.5,2c0,0.9,0.3,1.6,0.8,2.1
			c0.6,0.5,1.3,0.8,2.1,0.8c1,0,1.9-0.4,2.6-1.1c0.7-0.7,1.1-1.7,1.1-2.7c0-0.9-0.3-1.6-0.8-2.1C71,213.6,70.3,213.3,69.4,213.3z"/>
		<path fill="#FFF100" d="M83.5,220.9h-1.1l0.2-1.3c-1,1-2.1,1.5-3.4,1.5c-1.1,0-2.1-0.4-2.8-1.1c-0.7-0.7-1.1-1.7-1.1-2.8
			c0-1.3,0.5-2.5,1.4-3.4c0.9-1,2.1-1.4,3.4-1.4c0.7,0,1.3,0.1,1.8,0.4s1,0.8,1.4,1.4l0.6-4.8H85L83.5,220.9z M79.3,220.1
			c0.7,0,1.3-0.2,1.9-0.5c0.6-0.3,1-0.8,1.4-1.4c0.3-0.6,0.5-1.3,0.5-2c0-0.9-0.3-1.6-0.8-2.1c-0.5-0.5-1.3-0.8-2.1-0.8
			c-1,0-1.9,0.4-2.6,1.1c-0.7,0.7-1.1,1.7-1.1,2.7c0,0.9,0.3,1.6,0.8,2.1C77.8,219.9,78.5,220.1,79.3,220.1z"/>
		<path fill="#FFF100" d="M94.6,220.9h-1.1l0.2-1.3c-1,1-2.1,1.5-3.3,1.5c-1.1,0-2.1-0.4-2.8-1.1c-0.7-0.7-1.1-1.7-1.1-2.8
			c0-1.3,0.5-2.5,1.4-3.4c1-1,2.1-1.4,3.4-1.4c0.7,0,1.3,0.1,1.8,0.4c0.5,0.3,1,0.7,1.3,1.4l0.2-1.6h1.1L94.6,220.9z M90.5,220.1
			c0.7,0,1.3-0.2,1.9-0.5c0.6-0.3,1-0.8,1.4-1.4c0.3-0.6,0.5-1.3,0.5-2c0-0.9-0.3-1.6-0.8-2.1c-0.5-0.5-1.3-0.8-2.1-0.8
			c-1,0-1.9,0.4-2.6,1.1c-0.7,0.7-1.1,1.7-1.1,2.7c0,0.9,0.3,1.6,0.8,2.1C88.9,219.9,89.7,220.1,90.5,220.1z"/>
		<path fill="#FFF100" d="M100,209.4h1.1l-0.4,3.1h1.7l-0.1,0.9h-1.7l-1,7.4h-1.1l1-7.4H98l0.1-0.9h1.4L100,209.4z"/>
		<path fill="#FFF100" d="M111.9,216.9h-7.5c0,1,0.2,1.8,0.8,2.3c0.5,0.6,1.2,0.9,2.1,0.9c0.6,0,1.1-0.1,1.6-0.4
			c0.5-0.2,0.9-0.6,1.2-1l0.8,0.7c-0.4,0.5-0.9,0.9-1.6,1.2c-0.7,0.3-1.4,0.5-2.1,0.5c-1.3,0-2.3-0.4-3-1.2s-1-1.7-1-2.7
			c0-0.8,0.2-1.6,0.7-2.4c0.4-0.8,1-1.4,1.8-1.8c0.7-0.4,1.6-0.6,2.4-0.6c1.1,0,2,0.4,2.7,1.1s1.1,1.7,1.1,2.8
			C112,216.4,112,216.6,111.9,216.9z M111,216c0-0.8-0.3-1.4-0.8-1.9c-0.5-0.5-1.1-0.7-1.9-0.7c-0.8,0-1.6,0.2-2.2,0.7
			s-1.1,1.1-1.4,1.9H111z"/>
		<path fill="#FFF100" d="M122.2,220.9h-1.1l0.2-1.3c-1,1-2.1,1.5-3.4,1.5c-1.1,0-2.1-0.4-2.8-1.1c-0.7-0.7-1.1-1.7-1.1-2.8
			c0-1.3,0.5-2.5,1.4-3.4c0.9-1,2.1-1.4,3.4-1.4c0.7,0,1.3,0.1,1.8,0.4c0.5,0.3,1,0.8,1.4,1.4l0.6-4.8h1.1L122.2,220.9z
			 M118.1,220.1c0.7,0,1.3-0.2,1.9-0.5c0.6-0.3,1-0.8,1.4-1.4c0.3-0.6,0.5-1.3,0.5-2c0-0.9-0.3-1.6-0.8-2.1
			c-0.5-0.5-1.3-0.8-2.1-0.8c-1,0-1.9,0.4-2.6,1.1c-0.7,0.7-1.1,1.7-1.1,2.7c0,0.9,0.3,1.6,0.8,2.1
			C116.5,219.9,117.2,220.1,118.1,220.1z"/>
		<path fill="#FFF100" d="M130.1,212.5h1.1l1.7,5.9l3.2-5.9h0.2l1.9,6l3.1-6h1.2l-4.3,8.4h-0.2l-1.9-5.9l-3.2,5.9h-0.2L130.1,212.5z
			"/>
		<path fill="#FFF100" d="M144.3,212.5h1l-1.1,8.4h-1.1L144.3,212.5z M145.2,209.1c0.2,0,0.4,0.1,0.6,0.3s0.3,0.4,0.3,0.6
			c0,0.2-0.1,0.4-0.3,0.6s-0.4,0.3-0.6,0.3c-0.2,0-0.4-0.1-0.6-0.3c-0.2-0.2-0.3-0.4-0.3-0.6c0-0.2,0.1-0.4,0.3-0.6
			C144.7,209.1,144.9,209.1,145.2,209.1z"/>
		<path fill="#FFF100" d="M149.4,209.4h1.1l-0.4,3.1h1.7l-0.1,0.9h-1.7l-1,7.4h-1.1l1-7.4h-1.4l0.1-0.9h1.4L149.4,209.4z"/>
		<path fill="#FFF100" d="M154.2,209.3h1.1l-0.6,4.5c0.9-1,1.9-1.5,3-1.5c0.8,0,1.5,0.3,2.1,0.8c0.5,0.5,0.8,1.2,0.8,2.1
			c0,0.5-0.1,1.1-0.2,1.9l-0.5,3.8h-1.1l0.5-3.8c0.1-0.8,0.2-1.4,0.2-1.9c0-0.6-0.2-1-0.5-1.4c-0.4-0.4-0.8-0.5-1.4-0.5
			c-0.5,0-1.1,0.1-1.5,0.4c-0.5,0.3-0.9,0.7-1.1,1.2c-0.3,0.5-0.5,1.3-0.6,2.4l-0.5,3.6h-1.1L154.2,209.3z"/>
		<path fill="#FFF100" d="M176.1,216.9h-7.5c0,1,0.2,1.8,0.8,2.3c0.5,0.6,1.2,0.9,2.1,0.9c0.6,0,1.1-0.1,1.6-0.4
			c0.5-0.2,0.9-0.6,1.2-1l0.8,0.7c-0.4,0.5-0.9,0.9-1.6,1.2c-0.7,0.3-1.4,0.5-2.1,0.5c-1.3,0-2.3-0.4-3-1.2c-0.7-0.8-1-1.7-1-2.7
			c0-0.8,0.2-1.6,0.7-2.4c0.4-0.8,1-1.4,1.8-1.8c0.7-0.4,1.6-0.6,2.4-0.6c1.1,0,2,0.4,2.7,1.1c0.7,0.7,1.1,1.7,1.1,2.8
			C176.2,216.4,176.2,216.6,176.1,216.9z M175.1,216c0-0.8-0.3-1.4-0.8-1.9c-0.5-0.5-1.1-0.7-1.9-0.7c-0.8,0-1.6,0.2-2.2,0.7
			s-1.1,1.1-1.4,1.9H175.1z"/>
		<path fill="#FFF100" d="M186.4,220.9h-1.1l0.2-1.3c-1,1-2.1,1.5-3.3,1.5c-1.1,0-2.1-0.4-2.8-1.1c-0.7-0.7-1.1-1.7-1.1-2.8
			c0-1.3,0.5-2.5,1.4-3.4c1-1,2.1-1.4,3.4-1.4c0.7,0,1.3,0.1,1.8,0.4c0.5,0.3,1,0.7,1.3,1.4l0.2-1.6h1.1L186.4,220.9z M182.3,220.1
			c0.7,0,1.3-0.2,1.9-0.5c0.6-0.3,1-0.8,1.3-1.4c0.3-0.6,0.5-1.3,0.5-2c0-0.9-0.3-1.6-0.8-2.1c-0.5-0.5-1.3-0.8-2.1-0.8
			c-1,0-1.9,0.4-2.6,1.1c-0.7,0.7-1.1,1.7-1.1,2.7c0,0.9,0.3,1.6,0.8,2.1C180.7,219.9,181.4,220.1,182.3,220.1z"/>
		<path fill="#FFF100" d="M198.2,214.3l-0.9,0.5c-0.6-1-1.6-1.5-2.8-1.5c-0.7,0-1.4,0.2-2,0.5c-0.6,0.3-1.1,0.8-1.4,1.4
			c-0.3,0.6-0.5,1.2-0.5,1.9c0,0.6,0.1,1.1,0.4,1.6c0.3,0.5,0.6,0.8,1.1,1.1c0.5,0.3,1,0.4,1.6,0.4c0.6,0,1.3-0.1,1.9-0.4
			c0.6-0.3,1-0.6,1.4-1l0.9,0.6c-0.6,0.6-1.2,1-1.8,1.3c-0.6,0.3-1.4,0.4-2.3,0.4c-1.3,0-2.4-0.4-3.1-1.1c-0.7-0.7-1.1-1.7-1.1-2.9
			c0-1.3,0.5-2.5,1.5-3.4c1-0.9,2.2-1.4,3.6-1.4c0.8,0,1.6,0.2,2.2,0.5C197.3,213.2,197.8,213.7,198.2,214.3z"/>
		<path fill="#FFF100" d="M201.4,209.3h1.1l-0.6,4.5c0.9-1,1.9-1.5,3-1.5c0.8,0,1.5,0.3,2.1,0.8c0.5,0.5,0.8,1.2,0.8,2.1
			c0,0.5-0.1,1.1-0.2,1.9l-0.5,3.8H206l0.5-3.8c0.1-0.8,0.2-1.4,0.2-1.9c0-0.6-0.2-1-0.5-1.4c-0.4-0.4-0.8-0.5-1.4-0.5
			c-0.5,0-1.1,0.1-1.5,0.4c-0.5,0.3-0.9,0.7-1.1,1.2c-0.3,0.5-0.5,1.3-0.6,2.4l-0.5,3.6h-1.1L201.4,209.3z"/>
		<path fill="#FFF100" d="M222.9,212.5h1.1l-1,7.1c-0.2,1.1-0.3,1.9-0.6,2.4c-0.3,0.6-0.8,1.1-1.5,1.6c-0.7,0.4-1.5,0.6-2.5,0.6
			c-0.9,0-1.7-0.2-2.4-0.6c-0.7-0.4-1.2-0.9-1.5-1.7l1-0.3c0.6,1.1,1.6,1.6,3,1.6c0.7,0,1.4-0.1,1.9-0.4c0.5-0.3,0.9-0.7,1.2-1.1
			c0.1-0.3,0.3-0.9,0.4-1.8l0-0.3c-0.9,1-2,1.5-3.3,1.5c-1.2,0-2.1-0.4-2.8-1.1c-0.7-0.7-1.1-1.6-1.1-2.8c0-0.8,0.2-1.6,0.6-2.3
			c0.4-0.7,1-1.3,1.8-1.8c0.7-0.4,1.5-0.7,2.3-0.7c0.6,0,1.2,0.1,1.8,0.4c0.5,0.3,1,0.7,1.4,1.4L222.9,212.5z M219.7,213.3
			c-0.7,0-1.4,0.2-2,0.5c-0.6,0.3-1.1,0.8-1.4,1.4c-0.3,0.6-0.5,1.2-0.5,1.9c0,0.8,0.3,1.5,0.8,2c0.5,0.5,1.2,0.8,2.1,0.8
			c1.1,0,2-0.3,2.7-1c0.7-0.7,1.1-1.6,1.1-2.6c0-0.9-0.3-1.6-0.9-2.1C221,213.6,220.4,213.3,219.7,213.3z"/>
		<path fill="#FFF100" d="M233.9,220.9h-1.1l0.2-1.3c-1,1-2.1,1.5-3.3,1.5c-1.1,0-2.1-0.4-2.8-1.1c-0.7-0.7-1.1-1.7-1.1-2.8
			c0-1.3,0.5-2.5,1.4-3.4c1-1,2.1-1.4,3.4-1.4c0.7,0,1.3,0.1,1.8,0.4c0.5,0.3,1,0.7,1.3,1.4l0.2-1.6h1.1L233.9,220.9z M229.8,220.1
			c0.7,0,1.3-0.2,1.9-0.5c0.6-0.3,1-0.8,1.3-1.4c0.3-0.6,0.5-1.3,0.5-2c0-0.9-0.3-1.6-0.8-2.1c-0.5-0.5-1.3-0.8-2.1-0.8
			c-1,0-1.9,0.4-2.6,1.1c-0.7,0.7-1.1,1.7-1.1,2.7c0,0.9,0.3,1.6,0.8,2.1C228.2,219.9,228.9,220.1,229.8,220.1z"/>
		<path fill="#FFF100" d="M237.9,212.5h1.1l-0.2,1.2c0.3-0.4,0.7-0.8,1.2-1c0.5-0.2,1-0.4,1.5-0.4c0.6,0,1.2,0.2,1.7,0.6
			c0.4,0.3,0.7,0.7,0.8,1.3c0.4-0.6,0.9-1.1,1.4-1.4c0.6-0.3,1.1-0.5,1.7-0.5c0.8,0,1.4,0.2,1.9,0.7c0.5,0.5,0.8,1.1,0.8,1.9
			c0,0.4,0,0.8-0.1,1.3l-0.6,4.6h-1.1l0.5-4c0.1-0.8,0.2-1.5,0.2-1.8c0-0.5-0.2-0.9-0.5-1.2c-0.3-0.3-0.7-0.5-1.3-0.5
			c-0.6,0-1.1,0.2-1.5,0.5c-0.5,0.3-0.8,0.8-1,1.2s-0.4,1.1-0.4,1.8l-0.6,4h-1.1l0.6-4.6c0.1-0.5,0.1-0.9,0.1-1.2
			c0-0.5-0.2-1-0.5-1.3c-0.3-0.3-0.7-0.5-1.3-0.5c-0.4,0-0.9,0.1-1.2,0.3c-0.4,0.2-0.7,0.5-1,0.8c-0.3,0.3-0.4,0.7-0.6,1.2
			c-0.1,0.5-0.2,0.9-0.3,1.3l-0.5,3.9h-1.1L237.9,212.5z"/>
		<path fill="#FFF100" d="M260.7,216.9h-7.5c0,1,0.2,1.8,0.8,2.3c0.5,0.6,1.2,0.9,2.1,0.9c0.6,0,1.1-0.1,1.6-0.4
			c0.5-0.2,0.9-0.6,1.2-1l0.8,0.7c-0.4,0.5-0.9,0.9-1.6,1.2c-0.7,0.3-1.4,0.5-2.1,0.5c-1.3,0-2.3-0.4-3-1.2c-0.7-0.8-1-1.7-1-2.7
			c0-0.8,0.2-1.6,0.7-2.4c0.4-0.8,1-1.4,1.8-1.8c0.7-0.4,1.6-0.6,2.4-0.6c1.1,0,2,0.4,2.7,1.1c0.7,0.7,1.1,1.7,1.1,2.8
			C260.7,216.4,260.7,216.6,260.7,216.9z M259.7,216c0-0.8-0.3-1.4-0.8-1.9c-0.5-0.5-1.1-0.7-1.9-0.7c-0.8,0-1.6,0.2-2.2,0.7
			s-1.1,1.1-1.4,1.9H259.7z"/>
		<path fill="#FFF100" d="M263.7,219.2c0.3,0,0.5,0.1,0.7,0.3c0.2,0.2,0.3,0.4,0.3,0.7s-0.1,0.5-0.3,0.7c-0.2,0.2-0.4,0.3-0.7,0.3
			c-0.3,0-0.5-0.1-0.7-0.3c-0.2-0.2-0.3-0.4-0.3-0.7s0.1-0.5,0.3-0.7C263.3,219.3,263.5,219.2,263.7,219.2z"/>
	</g>
	<g>
		<g>
			<path fill="#FFFFFF" d="M181.7,83.8c-0.2,0-0.4,0-0.6,0.1c-0.2,0.1-0.3,0.1-0.5,0.2c-0.4,0.1-0.7,0.3-1,0.4
				c-0.7,0.3-1.3,0.7-2,1.1c-1.3,0.8-2.6,1.6-3.9,2.5l0.3-1l0.9,1.9c0.3,0.6,0.5,1.3,0.7,2c0.4,1.4,0.7,2.8,0.7,4.3l-0.2,0.1
				c-1-1.1-1.7-2.4-2.3-3.7c-0.3-0.6-0.6-1.3-0.8-2l-0.6-2.1l-0.2-0.7l0.5-0.3c1.4-0.7,2.8-1.4,4.3-2c0.7-0.3,1.5-0.6,2.2-0.8
				c0.4-0.1,0.8-0.2,1.2-0.3c0.2,0,0.4-0.1,0.6-0.1c0.2,0,0.4,0,0.6,0L181.7,83.8z"/>
		</g>
		<g>
			<path fill="#FFFFFF" d="M177,87.7c0,0,0.3,0,0.9,0.1c0.6,0.1,1.4,0.2,2.5,0.4c1.1,0.2,2.4,0.5,3.9,0.9c0.7,0.2,1.5,0.4,2.4,0.7
				c0.8,0.3,1.7,0.6,2.6,0.9c1.8,0.7,3.7,1.7,5.5,3c1.8,1.4,3.5,3.2,4.6,5.4c1.2,2.2,1.9,4.7,2.3,7.2c0.4,2.5,0.5,5.1,0.5,7.7
				c0,2.6-0.2,5.1-0.5,7.6c-0.2,2.5-0.6,4.9-0.9,7.3c-0.3,2.4-0.7,4.6-1.1,6.8c-0.4,2.1-0.8,4.2-1.1,6c-0.7,3.7-1.4,6.8-1.9,9
				c-0.5,2.2-0.8,3.4-0.8,3.4s0.1-1.3,0.4-3.5c0.3-2.2,0.7-5.3,1.2-9.1c0.5-3.8,1.1-8.1,1.7-12.8c0.3-2.3,0.5-4.8,0.8-7.2
				c0.2-2.5,0.4-5,0.4-7.4c0-2.5,0-5-0.4-7.4c-0.4-2.4-0.9-4.7-2-6.7c-1-2-2.4-3.7-4-5c-1.6-1.3-3.3-2.4-5-3.2
				c-1.7-0.8-3.3-1.4-4.7-2c-1.4-0.5-2.7-0.9-3.8-1.2C178.2,88,177,87.7,177,87.7z"/>
		</g>
	</g>
	<rect y="1" opacity="0.7" fill="#8BC53F" width="351" height="43"/>
	<g>
		<path fill="#FFFFFF" d="M117.5,12.1h2.4c1.1,0,1.9,0.2,2.4,0.5c0.5,0.3,0.8,0.8,0.8,1.6c0,0.5-0.1,0.9-0.4,1.2
			c-0.2,0.3-0.6,0.5-1.1,0.6V16c0.6,0.1,1,0.3,1.3,0.6c0.3,0.3,0.4,0.7,0.4,1.3c0,0.7-0.3,1.3-0.8,1.7c-0.5,0.4-1.2,0.6-2.1,0.6
			h-2.9V12.1z M118.9,15.5h1.3c0.6,0,1-0.1,1.2-0.3c0.3-0.2,0.4-0.5,0.4-0.9c0-0.4-0.1-0.7-0.4-0.8c-0.3-0.2-0.7-0.3-1.3-0.3h-1.2
			V15.5z M118.9,16.5v2.6h1.4c0.6,0,1-0.1,1.3-0.3c0.3-0.2,0.4-0.6,0.4-1c0-0.4-0.1-0.7-0.4-0.9c-0.3-0.2-0.7-0.3-1.3-0.3H118.9z"/>
		<path fill="#FFFFFF" d="M127.9,20.2h-1.3v-7h-2.4v-1.1h6.1v1.1h-2.4V20.2z"/>
		<path fill="#FFFFFF" d="M132.9,17v3.3h-1.3v-8.2h2.3c1.1,0,1.8,0.2,2.3,0.6c0.5,0.4,0.8,1,0.8,1.8c0,1-0.5,1.7-1.6,2.2l2.3,3.6
			h-1.5l-2-3.3H132.9z M132.9,15.9h0.9c0.6,0,1.1-0.1,1.4-0.3c0.3-0.2,0.4-0.6,0.4-1c0-0.5-0.2-0.8-0.5-1c-0.3-0.2-0.8-0.3-1.4-0.3
			h-0.9V15.9z"/>
		<path fill="#FFFFFF" d="M141.8,20.2v-8.2h1.3v7h3.5v1.1H141.8z"/>
		<path fill="#FFFFFF" d="M150.6,20.4c-1,0-1.7-0.3-2.3-0.8c-0.5-0.6-0.8-1.3-0.8-2.3c0-1,0.3-1.8,0.8-2.4c0.5-0.6,1.2-0.9,2.1-0.9
			c0.8,0,1.5,0.2,1.9,0.7c0.5,0.5,0.7,1.2,0.7,2v0.7h-4.1c0,0.6,0.2,1.1,0.5,1.4c0.3,0.3,0.7,0.5,1.3,0.5c0.4,0,0.7,0,1-0.1
			c0.3-0.1,0.7-0.2,1-0.3v1.1c-0.3,0.2-0.6,0.3-1,0.3C151.4,20.3,151,20.4,150.6,20.4z M150.3,14.9c-0.4,0-0.8,0.1-1,0.4
			c-0.3,0.3-0.4,0.6-0.5,1.2h2.8c0-0.5-0.1-0.9-0.4-1.2C151.1,15.1,150.8,14.9,150.3,14.9z"/>
		<path fill="#FFFFFF" d="M158.3,20.2l-0.3-0.9h0c-0.3,0.4-0.6,0.6-0.9,0.8c-0.3,0.1-0.7,0.2-1.2,0.2c-0.6,0-1.1-0.2-1.4-0.5
			c-0.3-0.3-0.5-0.8-0.5-1.4c0-0.6,0.2-1.1,0.7-1.4c0.5-0.3,1.2-0.5,2.2-0.5l1.1,0v-0.3c0-0.4-0.1-0.7-0.3-0.9
			c-0.2-0.2-0.5-0.3-0.9-0.3c-0.3,0-0.6,0-0.9,0.1c-0.3,0.1-0.6,0.2-0.8,0.3l-0.4-0.9c0.3-0.2,0.7-0.3,1.1-0.4
			c0.4-0.1,0.8-0.1,1.1-0.1c0.8,0,1.4,0.2,1.8,0.5c0.4,0.3,0.6,0.9,0.6,1.6v4.2H158.3z M156.4,19.3c0.5,0,0.9-0.1,1.1-0.4
			c0.3-0.3,0.4-0.6,0.4-1.1v-0.5l-0.8,0c-0.6,0-1.1,0.1-1.3,0.3c-0.3,0.2-0.4,0.5-0.4,0.8c0,0.3,0.1,0.5,0.2,0.6
			C155.8,19.3,156.1,19.3,156.4,19.3z"/>
		<path fill="#FFFFFF" d="M166.3,14.1v0.7l-1.1,0.2c0.1,0.1,0.2,0.3,0.2,0.5c0.1,0.2,0.1,0.4,0.1,0.6c0,0.6-0.2,1.1-0.7,1.5
			c-0.4,0.4-1,0.5-1.8,0.5c-0.2,0-0.4,0-0.5,0c-0.3,0.2-0.4,0.4-0.4,0.6c0,0.1,0.1,0.2,0.2,0.3c0.1,0.1,0.4,0.1,0.7,0.1h1.1
			c0.7,0,1.2,0.1,1.6,0.4c0.4,0.3,0.5,0.7,0.5,1.3c0,0.7-0.3,1.2-0.9,1.6c-0.6,0.4-1.4,0.6-2.5,0.6c-0.8,0-1.5-0.2-1.9-0.4
			c-0.4-0.3-0.7-0.7-0.7-1.3c0-0.4,0.1-0.7,0.4-1c0.2-0.3,0.6-0.4,1-0.5c-0.2-0.1-0.3-0.2-0.4-0.4c-0.1-0.2-0.2-0.3-0.2-0.5
			c0-0.2,0.1-0.4,0.2-0.6c0.1-0.2,0.3-0.3,0.6-0.5c-0.3-0.1-0.6-0.4-0.8-0.7c-0.2-0.3-0.3-0.7-0.3-1.1c0-0.7,0.2-1.2,0.6-1.6
			c0.4-0.4,1-0.6,1.8-0.6c0.2,0,0.4,0,0.5,0c0.2,0,0.3,0,0.4,0.1H166.3z M161.5,21.2c0,0.3,0.1,0.5,0.4,0.7c0.3,0.2,0.6,0.2,1.1,0.2
			c0.7,0,1.2-0.1,1.6-0.3c0.4-0.2,0.5-0.5,0.5-0.8c0-0.3-0.1-0.5-0.3-0.6c-0.2-0.1-0.5-0.2-1.1-0.2h-1c-0.4,0-0.7,0.1-0.9,0.3
			C161.6,20.7,161.5,20.9,161.5,21.2z M162,16.1c0,0.4,0.1,0.7,0.3,0.9c0.2,0.2,0.5,0.3,0.9,0.3c0.8,0,1.1-0.4,1.1-1.2
			c0-0.4-0.1-0.7-0.3-0.9s-0.5-0.3-0.9-0.3c-0.4,0-0.7,0.1-0.9,0.3C162.1,15.3,162,15.7,162,16.1z"/>
		<path fill="#FFFFFF" d="M171.8,20.2l-0.2-0.8h-0.1c-0.2,0.3-0.4,0.5-0.8,0.7c-0.3,0.2-0.7,0.2-1.2,0.2c-0.7,0-1.3-0.2-1.7-0.6
			c-0.4-0.4-0.6-0.9-0.6-1.7v-4h1.3v3.8c0,0.5,0.1,0.8,0.3,1.1c0.2,0.2,0.5,0.4,0.9,0.4c0.6,0,1-0.2,1.2-0.5
			c0.3-0.3,0.4-0.9,0.4-1.7v-3.1h1.3v6.2H171.8z"/>
		<path fill="#FFFFFF" d="M177.4,20.4c-1,0-1.7-0.3-2.3-0.8c-0.5-0.6-0.8-1.3-0.8-2.3c0-1,0.3-1.8,0.8-2.4c0.5-0.6,1.2-0.9,2.1-0.9
			c0.8,0,1.5,0.2,1.9,0.7c0.5,0.5,0.7,1.2,0.7,2v0.7h-4.1c0,0.6,0.2,1.1,0.5,1.4c0.3,0.3,0.7,0.5,1.3,0.5c0.4,0,0.7,0,1-0.1
			c0.3-0.1,0.7-0.2,1-0.3v1.1c-0.3,0.2-0.6,0.3-1,0.3C178.2,20.3,177.8,20.4,177.4,20.4z M177.2,14.9c-0.4,0-0.8,0.1-1,0.4
			c-0.3,0.3-0.4,0.6-0.5,1.2h2.8c0-0.5-0.1-0.9-0.4-1.2C177.9,15.1,177.6,14.9,177.2,14.9z"/>
		<path fill="#FFFFFF" d="M189.8,14.5c0,0.9-0.3,1.5-0.8,2s-1.4,0.7-2.4,0.7h-0.8v3.1h-1.3v-8.2h2.4c1,0,1.8,0.2,2.3,0.6
			C189.6,13.1,189.8,13.7,189.8,14.5z M185.8,16.1h0.7c0.7,0,1.2-0.1,1.5-0.4c0.3-0.2,0.5-0.6,0.5-1.1c0-0.5-0.1-0.8-0.4-1
			c-0.3-0.2-0.7-0.3-1.3-0.3h-0.9V16.1z"/>
		<path fill="#FFFFFF" d="M196.8,17.1c0,1-0.3,1.8-0.8,2.4c-0.5,0.6-1.2,0.8-2.2,0.8c-0.6,0-1.1-0.1-1.5-0.4c-0.4-0.3-0.8-0.6-1-1.1
			c-0.2-0.5-0.4-1.1-0.4-1.7c0-1,0.3-1.8,0.8-2.3c0.5-0.6,1.2-0.8,2.2-0.8c0.9,0,1.6,0.3,2.1,0.9C196.5,15.4,196.8,16.2,196.8,17.1z
			 M192.3,17.1c0,1.4,0.5,2.1,1.6,2.1c1,0,1.6-0.7,1.6-2.1c0-1.4-0.5-2.1-1.6-2.1c-0.6,0-0.9,0.2-1.2,0.5
			C192.4,15.9,192.3,16.5,192.3,17.1z"/>
		<path fill="#FFFFFF" d="M202.5,18.5c0,0.6-0.2,1.1-0.7,1.4c-0.4,0.3-1.1,0.5-1.9,0.5c-0.8,0-1.5-0.1-2-0.4v-1.1
			c0.7,0.3,1.4,0.5,2,0.5c0.8,0,1.2-0.2,1.2-0.7c0-0.2,0-0.3-0.1-0.4c-0.1-0.1-0.2-0.2-0.4-0.3c-0.2-0.1-0.5-0.2-0.9-0.4
			c-0.7-0.3-1.2-0.6-1.4-0.8c-0.3-0.3-0.4-0.6-0.4-1.1c0-0.5,0.2-0.9,0.6-1.2c0.4-0.3,1-0.4,1.7-0.4c0.7,0,1.4,0.1,2.1,0.4l-0.4,1
			c-0.7-0.3-1.2-0.4-1.7-0.4c-0.7,0-1,0.2-1,0.6c0,0.2,0.1,0.4,0.3,0.5c0.2,0.1,0.6,0.3,1.2,0.6c0.5,0.2,0.9,0.4,1.1,0.5
			c0.2,0.2,0.4,0.4,0.5,0.6S202.5,18.2,202.5,18.5z"/>
		<path fill="#FFFFFF" d="M203.8,12.4c0-0.2,0.1-0.4,0.2-0.5c0.1-0.1,0.3-0.2,0.5-0.2c0.2,0,0.4,0.1,0.5,0.2
			c0.1,0.1,0.2,0.3,0.2,0.5c0,0.2-0.1,0.4-0.2,0.5c-0.1,0.1-0.3,0.2-0.5,0.2c-0.2,0-0.4-0.1-0.5-0.2
			C203.9,12.8,203.8,12.7,203.8,12.4z M205.2,20.2h-1.3v-6.2h1.3V20.2z"/>
		<path fill="#FFFFFF" d="M209.4,19.3c0.3,0,0.6-0.1,1-0.2v1c-0.1,0.1-0.3,0.1-0.6,0.2c-0.2,0-0.5,0.1-0.7,0.1c-1.2,0-1.9-0.7-1.9-2
			v-3.3h-0.8v-0.6l0.9-0.5l0.4-1.3h0.8v1.4h1.8v1h-1.8v3.3c0,0.3,0.1,0.5,0.2,0.7C208.9,19.2,209.1,19.3,209.4,19.3z"/>
		<path fill="#FFFFFF" d="M211.5,12.4c0-0.2,0.1-0.4,0.2-0.5c0.1-0.1,0.3-0.2,0.5-0.2c0.2,0,0.4,0.1,0.5,0.2
			c0.1,0.1,0.2,0.3,0.2,0.5c0,0.2-0.1,0.4-0.2,0.5s-0.3,0.2-0.5,0.2c-0.2,0-0.4-0.1-0.5-0.2C211.5,12.8,211.5,12.7,211.5,12.4z
			 M212.9,20.2h-1.3v-6.2h1.3V20.2z"/>
		<path fill="#FFFFFF" d="M220.2,17.1c0,1-0.3,1.8-0.8,2.4c-0.5,0.6-1.2,0.8-2.2,0.8c-0.6,0-1.1-0.1-1.5-0.4c-0.4-0.3-0.8-0.6-1-1.1
			c-0.2-0.5-0.4-1.1-0.4-1.7c0-1,0.3-1.8,0.8-2.3c0.5-0.6,1.2-0.8,2.2-0.8c0.9,0,1.6,0.3,2.1,0.9C220,15.4,220.2,16.2,220.2,17.1z
			 M215.7,17.1c0,1.4,0.5,2.1,1.6,2.1c1,0,1.6-0.7,1.6-2.1c0-1.4-0.5-2.1-1.6-2.1c-0.6,0-0.9,0.2-1.2,0.5
			C215.9,15.9,215.7,16.5,215.7,17.1z"/>
		<path fill="#FFFFFF" d="M227.2,20.2h-1.3v-3.8c0-0.5-0.1-0.8-0.3-1.1c-0.2-0.2-0.5-0.4-0.9-0.4c-0.6,0-1,0.2-1.2,0.5
			c-0.3,0.3-0.4,0.9-0.4,1.6v3.1h-1.3v-6.2h1l0.2,0.8h0.1c0.2-0.3,0.5-0.5,0.8-0.7c0.3-0.2,0.7-0.2,1.1-0.2c1.5,0,2.2,0.8,2.2,2.3
			V20.2z"/>
		<path fill="#FFFFFF" d="M166.5,37.4h-7.4v-1.8l2.5-2.5c0.7-0.7,1.2-1.3,1.4-1.5c0.2-0.3,0.4-0.5,0.5-0.7c0.1-0.2,0.1-0.4,0.1-0.6
			c0-0.3-0.1-0.5-0.3-0.6c-0.2-0.2-0.4-0.2-0.7-0.2c-0.3,0-0.6,0.1-1,0.3c-0.3,0.2-0.7,0.5-1.1,0.8l-1.5-1.8c0.5-0.5,1-0.8,1.3-1
			c0.4-0.2,0.7-0.4,1.2-0.5c0.4-0.1,0.9-0.2,1.4-0.2c0.7,0,1.2,0.1,1.8,0.4c0.5,0.2,0.9,0.6,1.2,1c0.3,0.4,0.4,0.9,0.4,1.4
			c0,0.4-0.1,0.8-0.2,1.1c-0.1,0.3-0.3,0.7-0.5,1c-0.2,0.3-0.5,0.7-0.8,1c-0.3,0.4-1.1,1.1-2.2,2.1v0.1h3.9V37.4z"/>
		<path fill="#FFFFFF" d="M173,37.4v-4.3c0-0.5-0.1-0.9-0.2-1.2c-0.2-0.3-0.4-0.4-0.7-0.4c-0.5,0-0.8,0.2-1,0.6
			c-0.2,0.4-0.3,1-0.3,1.9v3.5H168v-7.9h2.1l0.3,1h0.2c0.2-0.4,0.6-0.7,1-0.8c0.4-0.2,0.9-0.3,1.4-0.3c0.9,0,1.6,0.3,2,0.8
			c0.5,0.5,0.7,1.2,0.7,2.1v5.1H173z"/>
		<path fill="#FFFFFF" d="M180,37.5c-0.6,0-1.1-0.2-1.5-0.5c-0.4-0.3-0.7-0.8-1-1.4c-0.2-0.6-0.3-1.4-0.3-2.2c0-1.3,0.3-2.3,0.8-3
			c0.5-0.7,1.2-1.1,2.1-1.1c0.4,0,0.8,0.1,1.2,0.3c0.3,0.2,0.6,0.5,0.9,0.9h0.1c-0.1-0.6-0.1-1.2-0.1-1.9v-2.1h2.8v10.9h-2.1l-0.6-1
			h-0.1C181.7,37.2,181,37.5,180,37.5z M181.1,35.4c0.4,0,0.7-0.1,0.9-0.4c0.2-0.3,0.3-0.7,0.3-1.3v-0.2c0-0.7-0.1-1.2-0.3-1.5
			c-0.2-0.3-0.5-0.4-0.9-0.4c-0.4,0-0.6,0.2-0.8,0.5c-0.2,0.3-0.3,0.8-0.3,1.4c0,0.6,0.1,1.1,0.3,1.4
			C180.5,35.2,180.8,35.4,181.1,35.4z"/>
	</g>
	<rect y="48" opacity="5.000000e-002" fill="#FFFFFF" width="167" height="47"/>
	<rect x="171" y="48" opacity="5.000000e-002" fill="#FFFFFF" width="180" height="47"/>
	<g>
		<path fill="#FFF100" d="M54.3,63.7H57v3.8c-0.4,0.1-0.8,0.2-1.3,0.3c-0.4,0.1-0.9,0.1-1.5,0.1c-1.2,0-2.1-0.4-2.8-1.1s-1-1.7-1-3
			c0-0.8,0.2-1.5,0.5-2.1c0.3-0.6,0.8-1.1,1.4-1.4c0.6-0.3,1.3-0.5,2.2-0.5c0.8,0,1.6,0.2,2.3,0.5l-0.4,0.8c-0.7-0.3-1.4-0.4-2-0.4
			c-0.9,0-1.7,0.3-2.2,0.8c-0.5,0.6-0.8,1.3-0.8,2.4c0,1.1,0.3,1.9,0.8,2.4c0.5,0.5,1.3,0.8,2.3,0.8c0.5,0,1.1-0.1,1.6-0.2v-2.4
			h-1.7V63.7z"/>
		<path fill="#FFF100" d="M62.3,67.8L62.1,67h0c-0.3,0.4-0.6,0.6-0.9,0.7c-0.3,0.1-0.7,0.2-1.1,0.2c-0.6,0-1-0.1-1.4-0.4
			c-0.3-0.3-0.5-0.7-0.5-1.3c0-1.2,0.9-1.8,2.8-1.9l1,0V64c0-0.5-0.1-0.8-0.3-1c-0.2-0.2-0.5-0.3-0.9-0.3c-0.5,0-1,0.1-1.7,0.4
			l-0.3-0.7c0.3-0.2,0.6-0.3,0.9-0.4c0.3-0.1,0.7-0.1,1-0.1c0.7,0,1.2,0.2,1.6,0.5c0.3,0.3,0.5,0.8,0.5,1.5v4H62.3z M60.3,67.2
			c0.6,0,1-0.2,1.3-0.5c0.3-0.3,0.5-0.7,0.5-1.3v-0.5l-0.9,0c-0.7,0-1.2,0.1-1.5,0.3c-0.3,0.2-0.5,0.5-0.5,0.9
			c0,0.3,0.1,0.6,0.3,0.7C59.7,67.1,60,67.2,60.3,67.2z"/>
		<path fill="#FFF100" d="M72.2,67.8V64c0-0.5-0.1-0.8-0.3-1c-0.2-0.2-0.5-0.4-0.9-0.4c-0.6,0-1,0.2-1.2,0.5
			c-0.3,0.3-0.4,0.8-0.4,1.5v3.3h-0.9V64c0-0.5-0.1-0.8-0.3-1c-0.2-0.2-0.5-0.4-0.9-0.4c-0.6,0-1,0.2-1.2,0.5
			c-0.3,0.3-0.4,0.9-0.4,1.6v3.1h-0.9V62h0.7l0.1,0.8h0c0.2-0.3,0.4-0.5,0.7-0.7c0.3-0.2,0.6-0.2,1-0.2c0.9,0,1.5,0.3,1.8,1h0
			c0.2-0.3,0.4-0.5,0.8-0.7c0.3-0.2,0.7-0.3,1.1-0.3c0.7,0,1.2,0.2,1.5,0.5c0.3,0.3,0.5,0.9,0.5,1.6v3.8H72.2z"/>
		<path fill="#FFF100" d="M77.4,67.9c-0.9,0-1.5-0.3-2-0.8c-0.5-0.5-0.7-1.3-0.7-2.2c0-0.9,0.2-1.7,0.7-2.2c0.5-0.6,1.1-0.8,1.9-0.8
			c0.7,0,1.3,0.2,1.7,0.7c0.4,0.5,0.6,1.1,0.6,1.9v0.6h-4c0,0.7,0.2,1.2,0.5,1.6c0.3,0.4,0.8,0.5,1.4,0.5c0.6,0,1.3-0.1,1.9-0.4v0.8
			c-0.3,0.1-0.6,0.2-0.9,0.3C78.2,67.9,77.8,67.9,77.4,67.9z M77.2,62.6c-0.5,0-0.8,0.2-1.1,0.5c-0.3,0.3-0.4,0.7-0.5,1.3h3.1
			c0-0.6-0.1-1-0.4-1.3C78,62.8,77.7,62.6,77.2,62.6z"/>
		<path fill="#FFF100" d="M84.9,66.2c0,0.5-0.2,1-0.6,1.3c-0.4,0.3-1,0.4-1.7,0.4c-0.8,0-1.4-0.1-1.8-0.4v-0.8
			c0.3,0.1,0.6,0.3,0.9,0.3c0.3,0.1,0.6,0.1,0.9,0.1c0.5,0,0.8-0.1,1.1-0.2c0.2-0.1,0.4-0.4,0.4-0.7c0-0.2-0.1-0.4-0.3-0.6
			c-0.2-0.2-0.6-0.4-1.2-0.6c-0.5-0.2-0.9-0.4-1.2-0.5c-0.2-0.2-0.4-0.3-0.5-0.5c-0.1-0.2-0.2-0.4-0.2-0.7c0-0.5,0.2-0.9,0.6-1.1
			c0.4-0.3,0.9-0.4,1.6-0.4c0.6,0,1.2,0.1,1.8,0.4L84.4,63c-0.6-0.2-1.1-0.4-1.6-0.4c-0.4,0-0.7,0.1-1,0.2c-0.2,0.1-0.3,0.3-0.3,0.5
			c0,0.2,0,0.3,0.1,0.4c0.1,0.1,0.2,0.2,0.4,0.3c0.2,0.1,0.5,0.2,1,0.4c0.7,0.3,1.2,0.5,1.4,0.8C84.7,65.5,84.9,65.8,84.9,66.2z"/>
		<path fill="#FFF100" d="M94.2,62.3c0,0.8-0.3,1.4-0.8,1.8c-0.5,0.4-1.3,0.6-2.3,0.6h-0.9v3.1h-0.9V60h2
			C93.3,60,94.2,60.8,94.2,62.3z M90.2,64H91c0.8,0,1.4-0.1,1.7-0.4c0.4-0.3,0.5-0.7,0.5-1.2c0-0.5-0.2-0.9-0.5-1.2
			c-0.3-0.3-0.9-0.4-1.6-0.4h-1V64z"/>
		<path fill="#FFF100" d="M96.6,67.8h-0.9v-8.3h0.9V67.8z"/>
		<path fill="#FFF100" d="M102.1,67.8l-0.2-0.8h0c-0.3,0.4-0.6,0.6-0.9,0.7c-0.3,0.1-0.7,0.2-1.1,0.2c-0.6,0-1-0.1-1.4-0.4
			c-0.3-0.3-0.5-0.7-0.5-1.3c0-1.2,0.9-1.8,2.8-1.9l1,0V64c0-0.5-0.1-0.8-0.3-1c-0.2-0.2-0.5-0.3-0.9-0.3c-0.5,0-1,0.1-1.7,0.4
			l-0.3-0.7c0.3-0.2,0.6-0.3,0.9-0.4c0.3-0.1,0.7-0.1,1-0.1c0.7,0,1.2,0.2,1.6,0.5c0.3,0.3,0.5,0.8,0.5,1.5v4H102.1z M100.1,67.2
			c0.6,0,1-0.2,1.3-0.5c0.3-0.3,0.5-0.7,0.5-1.3v-0.5l-0.9,0c-0.7,0-1.2,0.1-1.5,0.3c-0.3,0.2-0.5,0.5-0.5,0.9
			c0,0.3,0.1,0.6,0.3,0.7C99.5,67.1,99.7,67.2,100.1,67.2z"/>
		<path fill="#FFF100" d="M103.6,62h0.9l1.3,3.3c0.3,0.8,0.5,1.3,0.5,1.7h0c0-0.2,0.1-0.5,0.3-0.9c0.1-0.4,0.6-1.8,1.4-4.1h0.9
			l-2.5,6.7c-0.3,0.7-0.5,1.1-0.9,1.4c-0.3,0.3-0.7,0.4-1.2,0.4c-0.3,0-0.5,0-0.8-0.1v-0.7c0.2,0,0.4,0.1,0.7,0.1c0.6,0,1-0.3,1.3-1
			l0.3-0.8L103.6,62z"/>
		<path fill="#FFF100" d="M112.6,67.9c-0.9,0-1.5-0.3-2-0.8c-0.5-0.5-0.7-1.3-0.7-2.2c0-0.9,0.2-1.7,0.7-2.2
			c0.5-0.6,1.1-0.8,1.9-0.8c0.7,0,1.3,0.2,1.7,0.7s0.6,1.1,0.6,1.9v0.6h-4c0,0.7,0.2,1.2,0.5,1.6c0.3,0.4,0.8,0.5,1.4,0.5
			c0.6,0,1.3-0.1,1.9-0.4v0.8c-0.3,0.1-0.6,0.2-0.9,0.3C113.3,67.9,112.9,67.9,112.6,67.9z M112.3,62.6c-0.5,0-0.8,0.2-1.1,0.5
			c-0.3,0.3-0.4,0.7-0.5,1.3h3.1c0-0.6-0.1-1-0.4-1.3S112.8,62.6,112.3,62.6z"/>
		<path fill="#FFF100" d="M120.2,67L120.2,67c-0.5,0.6-1.1,0.9-1.9,0.9c-0.8,0-1.4-0.3-1.8-0.8s-0.6-1.3-0.6-2.2
			c0-1,0.2-1.7,0.6-2.2c0.4-0.5,1-0.8,1.8-0.8c0.8,0,1.4,0.3,1.8,0.9h0.1l0-0.4l0-0.4v-2.4h0.9v8.3h-0.7L120.2,67z M118.4,67.2
			c0.6,0,1-0.2,1.3-0.5c0.3-0.3,0.4-0.9,0.4-1.6v-0.2c0-0.8-0.1-1.4-0.4-1.8c-0.3-0.4-0.7-0.5-1.3-0.5c-0.5,0-0.9,0.2-1.2,0.6
			c-0.3,0.4-0.4,1-0.4,1.7c0,0.7,0.1,1.3,0.4,1.7C117.5,67,117.9,67.2,118.4,67.2z"/>
		<path fill="#FFFFFF" d="M85.2,76.6c0,0.5-0.1,0.9-0.4,1.2c-0.3,0.3-0.7,0.6-1.3,0.8v0c1.3,0.2,2,0.8,2,1.8c0,0.7-0.3,1.3-0.9,1.7
			c-0.6,0.4-1.4,0.6-2.4,0.6c-0.4,0-0.8,0-1.2-0.1c-0.4-0.1-0.7-0.2-1.2-0.3v-1.8c0.3,0.2,0.7,0.3,1,0.4c0.4,0.1,0.7,0.1,1,0.1
			c0.5,0,0.8-0.1,1-0.2c0.2-0.1,0.3-0.3,0.3-0.6c0-0.2-0.1-0.4-0.2-0.5c-0.1-0.1-0.3-0.2-0.5-0.3c-0.2-0.1-0.6-0.1-1-0.1h-0.5v-1.6
			h0.5c1.1,0,1.6-0.3,1.6-0.8c0-0.2-0.1-0.4-0.2-0.5c-0.2-0.1-0.4-0.1-0.6-0.1c-0.5,0-1,0.2-1.5,0.5l-0.9-1.4
			c0.4-0.3,0.8-0.5,1.3-0.6c0.4-0.1,0.9-0.2,1.5-0.2c0.8,0,1.4,0.2,1.9,0.5C85,75.6,85.2,76,85.2,76.6z"/>
		<path fill="#FFFFFF" d="M91.6,76.6c0,0.5-0.1,0.9-0.4,1.2c-0.3,0.3-0.7,0.6-1.3,0.8v0c1.3,0.2,2,0.8,2,1.8c0,0.7-0.3,1.3-0.9,1.7
			c-0.6,0.4-1.4,0.6-2.4,0.6c-0.4,0-0.8,0-1.2-0.1c-0.4-0.1-0.7-0.2-1.2-0.3v-1.8c0.3,0.2,0.7,0.3,1,0.4c0.4,0.1,0.7,0.1,1,0.1
			c0.5,0,0.8-0.1,1-0.2c0.2-0.1,0.3-0.3,0.3-0.6c0-0.2-0.1-0.4-0.2-0.5c-0.1-0.1-0.3-0.2-0.5-0.3c-0.2-0.1-0.6-0.1-1-0.1h-0.5v-1.6
			H88c1.1,0,1.6-0.3,1.6-0.8c0-0.2-0.1-0.4-0.2-0.5c-0.2-0.1-0.4-0.1-0.6-0.1c-0.5,0-1,0.2-1.5,0.5l-0.9-1.4
			c0.4-0.3,0.8-0.5,1.3-0.6c0.4-0.1,0.9-0.2,1.5-0.2c0.8,0,1.4,0.2,1.9,0.5C91.4,75.6,91.6,76,91.6,76.6z"/>
	</g>
	<g>
		<path fill="#FFF100" d="M205.6,68.2l-1-2.5h-3.1l-1,2.5h-0.9l3.1-7.8h0.8l3.1,7.8H205.6z M204.4,64.9l-0.9-2.4
			c-0.1-0.3-0.2-0.7-0.4-1.1c-0.1,0.3-0.2,0.7-0.3,1.1l-0.9,2.4H204.4z"/>
		<path fill="#FFF100" d="M208.8,68.2l-2.2-5.8h0.9l1.3,3.5c0.3,0.8,0.5,1.3,0.5,1.6h0c0-0.2,0.2-0.6,0.4-1.2
			c0.2-0.6,0.7-1.9,1.4-3.9h0.9l-2.2,5.8H208.8z"/>
		<path fill="#FFF100" d="M215.5,68.3c-0.9,0-1.5-0.3-2-0.8c-0.5-0.5-0.7-1.3-0.7-2.2c0-0.9,0.2-1.7,0.7-2.2
			c0.5-0.6,1.1-0.8,1.9-0.8c0.7,0,1.3,0.2,1.7,0.7c0.4,0.5,0.6,1.1,0.6,1.9v0.6h-4c0,0.7,0.2,1.2,0.5,1.6c0.3,0.4,0.8,0.5,1.4,0.5
			c0.6,0,1.3-0.1,1.9-0.4v0.8c-0.3,0.1-0.6,0.2-0.9,0.3C216.2,68.3,215.9,68.3,215.5,68.3z M215.2,63c-0.5,0-0.8,0.2-1.1,0.5
			c-0.3,0.3-0.4,0.7-0.5,1.3h3.1c0-0.6-0.1-1-0.4-1.3C216.1,63.2,215.7,63,215.2,63z"/>
		<path fill="#FFF100" d="M222.1,60.4h2.2c1,0,1.8,0.2,2.2,0.5c0.5,0.3,0.7,0.8,0.7,1.5c0,0.5-0.1,0.8-0.4,1.1
			c-0.3,0.3-0.6,0.5-1.1,0.6v0.1c1.2,0.2,1.8,0.8,1.8,1.9c0,0.7-0.2,1.2-0.7,1.6c-0.5,0.4-1.1,0.6-2,0.6h-2.7V60.4z M223,63.8h1.5
			c0.6,0,1.1-0.1,1.4-0.3c0.3-0.2,0.4-0.5,0.4-1c0-0.4-0.2-0.8-0.5-0.9c-0.3-0.2-0.8-0.3-1.5-0.3H223V63.8z M223,64.5v2.9h1.6
			c0.6,0,1.1-0.1,1.4-0.4c0.3-0.2,0.5-0.6,0.5-1.1c0-0.5-0.2-0.8-0.5-1.1s-0.8-0.3-1.5-0.3H223z"/>
		<path fill="#FFF100" d="M231.6,68.2h-0.9v-7h-2.5v-0.8h5.8v0.8h-2.5V68.2z"/>
		<path fill="#FFF100" d="M236.2,65v3.2h-0.9v-7.8h2.1c1,0,1.7,0.2,2.1,0.6c0.5,0.4,0.7,0.9,0.7,1.7c0,1-0.5,1.7-1.6,2.1l2.1,3.5
			h-1.1l-1.9-3.2H236.2z M236.2,64.2h1.2c0.6,0,1.1-0.1,1.4-0.4s0.4-0.6,0.4-1.1c0-0.5-0.2-0.9-0.5-1.1c-0.3-0.2-0.8-0.3-1.5-0.3
			h-1.2V64.2z"/>
		<path fill="#FFF100" d="M249.2,66.1c0,0.7-0.2,1.2-0.7,1.6c-0.5,0.4-1.2,0.6-2,0.6c-0.9,0-1.6-0.1-2.1-0.4v-0.9
			c0.3,0.1,0.7,0.2,1,0.3c0.4,0.1,0.8,0.1,1.1,0.1c0.6,0,1.1-0.1,1.4-0.3c0.3-0.2,0.5-0.5,0.5-1c0-0.3-0.1-0.5-0.2-0.7
			c-0.1-0.2-0.3-0.3-0.5-0.5c-0.3-0.1-0.6-0.3-1.2-0.5c-0.7-0.3-1.2-0.6-1.6-0.9c-0.3-0.4-0.5-0.8-0.5-1.4c0-0.6,0.2-1.1,0.7-1.4
			c0.5-0.4,1-0.5,1.8-0.5c0.8,0,1.5,0.1,2.1,0.4l-0.3,0.8c-0.6-0.3-1.3-0.4-1.9-0.4c-0.5,0-0.9,0.1-1.1,0.3
			c-0.3,0.2-0.4,0.5-0.4,0.9c0,0.3,0.1,0.5,0.2,0.7c0.1,0.2,0.3,0.3,0.5,0.5s0.6,0.3,1.1,0.5c0.8,0.3,1.4,0.6,1.7,0.9
			C249.1,65.2,249.2,65.6,249.2,66.1z"/>
		<path fill="#FFF100" d="M253,68.3c-0.8,0-1.5-0.3-2-0.8c-0.5-0.5-0.7-1.3-0.7-2.2c0-1,0.2-1.7,0.7-2.3c0.5-0.5,1.1-0.8,2-0.8
			c0.3,0,0.6,0,0.8,0.1c0.3,0.1,0.5,0.1,0.7,0.2l-0.3,0.8c-0.2-0.1-0.4-0.1-0.6-0.2c-0.2-0.1-0.4-0.1-0.6-0.1
			c-1.2,0-1.8,0.8-1.8,2.3c0,0.7,0.1,1.3,0.4,1.7c0.3,0.4,0.7,0.6,1.3,0.6c0.5,0,1-0.1,1.5-0.3V68C254.1,68.2,253.6,68.3,253,68.3z"
			/>
		<path fill="#FFF100" d="M261,65.3c0,1-0.2,1.7-0.7,2.2c-0.5,0.5-1.1,0.8-2,0.8c-0.5,0-1-0.1-1.4-0.4c-0.4-0.2-0.7-0.6-0.9-1.1
			c-0.2-0.5-0.3-1-0.3-1.6c0-1,0.2-1.7,0.7-2.2c0.5-0.5,1.1-0.8,2-0.8c0.8,0,1.5,0.3,2,0.8C260.7,63.6,261,64.4,261,65.3z
			 M256.5,65.3c0,0.7,0.1,1.3,0.4,1.7c0.3,0.4,0.7,0.6,1.3,0.6c0.6,0,1-0.2,1.3-0.6c0.3-0.4,0.5-1,0.5-1.7c0-0.7-0.2-1.3-0.5-1.7
			c-0.3-0.4-0.7-0.6-1.3-0.6c-0.6,0-1,0.2-1.3,0.6C256.7,64,256.5,64.5,256.5,65.3z"/>
		<path fill="#FFF100" d="M265.2,62.3c0.3,0,0.5,0,0.7,0.1l-0.1,0.8c-0.2-0.1-0.5-0.1-0.6-0.1c-0.5,0-0.9,0.2-1.2,0.6
			c-0.3,0.4-0.5,0.9-0.5,1.4v3.1h-0.9v-5.8h0.7l0.1,1.1h0c0.2-0.4,0.5-0.7,0.8-0.9C264.5,62.4,264.8,62.3,265.2,62.3z"/>
		<path fill="#FFF100" d="M269.4,68.3c-0.9,0-1.5-0.3-2-0.8c-0.5-0.5-0.7-1.3-0.7-2.2c0-0.9,0.2-1.7,0.7-2.2
			c0.5-0.6,1.1-0.8,1.9-0.8c0.7,0,1.3,0.2,1.7,0.7c0.4,0.5,0.6,1.1,0.6,1.9v0.6h-4c0,0.7,0.2,1.2,0.5,1.6c0.3,0.4,0.8,0.5,1.4,0.5
			c0.6,0,1.3-0.1,1.9-0.4v0.8c-0.3,0.1-0.6,0.2-0.9,0.3C270.2,68.3,269.8,68.3,269.4,68.3z M269.2,63c-0.5,0-0.8,0.2-1.1,0.5
			c-0.3,0.3-0.4,0.7-0.5,1.3h3.1c0-0.6-0.1-1-0.4-1.3C270,63.2,269.7,63,269.2,63z"/>
		<path fill="#FFF100" d="M281,62.7c0,0.8-0.3,1.4-0.8,1.8c-0.5,0.4-1.3,0.6-2.3,0.6H277v3.1h-0.9v-7.8h2
			C280.1,60.4,281,61.2,281,62.7z M277,64.4h0.8c0.8,0,1.4-0.1,1.7-0.4c0.4-0.3,0.5-0.7,0.5-1.2c0-0.5-0.2-0.9-0.5-1.2
			c-0.3-0.3-0.9-0.4-1.6-0.4h-1V64.4z"/>
		<path fill="#FFF100" d="M285,68.3c-0.9,0-1.5-0.3-2-0.8c-0.5-0.5-0.7-1.3-0.7-2.2c0-0.9,0.2-1.7,0.7-2.2c0.5-0.6,1.1-0.8,1.9-0.8
			c0.7,0,1.3,0.2,1.7,0.7c0.4,0.5,0.6,1.1,0.6,1.9v0.6h-4c0,0.7,0.2,1.2,0.5,1.6c0.3,0.4,0.8,0.5,1.4,0.5c0.6,0,1.3-0.1,1.9-0.4v0.8
			c-0.3,0.1-0.6,0.2-0.9,0.3C285.7,68.3,285.4,68.3,285,68.3z M284.8,63c-0.5,0-0.8,0.2-1.1,0.5c-0.3,0.3-0.4,0.7-0.5,1.3h3.1
			c0-0.6-0.1-1-0.4-1.3C285.6,63.2,285.2,63,284.8,63z"/>
		<path fill="#FFF100" d="M291.3,62.3c0.3,0,0.5,0,0.7,0.1l-0.1,0.8c-0.2-0.1-0.5-0.1-0.6-0.1c-0.5,0-0.9,0.2-1.2,0.6
			c-0.3,0.4-0.5,0.9-0.5,1.4v3.1h-0.9v-5.8h0.7l0.1,1.1h0c0.2-0.4,0.5-0.7,0.8-0.9C290.6,62.4,291,62.3,291.3,62.3z"/>
		<path fill="#FFF100" d="M299.5,64.1h2.7v3.8c-0.4,0.1-0.8,0.2-1.3,0.3c-0.4,0.1-0.9,0.1-1.5,0.1c-1.2,0-2.1-0.4-2.8-1.1
			c-0.7-0.7-1-1.7-1-3c0-0.8,0.2-1.5,0.5-2.1c0.3-0.6,0.8-1.1,1.4-1.4c0.6-0.3,1.3-0.5,2.2-0.5c0.8,0,1.6,0.2,2.3,0.5l-0.4,0.8
			c-0.7-0.3-1.4-0.4-2-0.4c-0.9,0-1.7,0.3-2.2,0.8c-0.5,0.6-0.8,1.3-0.8,2.4c0,1.1,0.3,1.9,0.8,2.4c0.5,0.5,1.3,0.8,2.3,0.8
			c0.5,0,1.1-0.1,1.6-0.2v-2.4h-1.7V64.1z"/>
		<path fill="#FFF100" d="M307.5,68.2l-0.2-0.8h0c-0.3,0.4-0.6,0.6-0.9,0.7c-0.3,0.1-0.7,0.2-1.1,0.2c-0.6,0-1-0.1-1.4-0.4
			c-0.3-0.3-0.5-0.7-0.5-1.3c0-1.2,0.9-1.8,2.8-1.9l1,0v-0.4c0-0.5-0.1-0.8-0.3-1c-0.2-0.2-0.5-0.3-0.9-0.3c-0.5,0-1,0.1-1.7,0.4
			l-0.3-0.7c0.3-0.2,0.6-0.3,0.9-0.4c0.3-0.1,0.7-0.1,1-0.1c0.7,0,1.2,0.2,1.6,0.5c0.3,0.3,0.5,0.8,0.5,1.5v4H307.5z M305.5,67.6
			c0.6,0,1-0.2,1.3-0.5c0.3-0.3,0.5-0.7,0.5-1.3v-0.5l-0.9,0c-0.7,0-1.2,0.1-1.5,0.3c-0.3,0.2-0.5,0.5-0.5,0.9
			c0,0.3,0.1,0.6,0.3,0.7C304.9,67.5,305.2,67.6,305.5,67.6z"/>
		<path fill="#FFF100" d="M317.5,68.2v-3.8c0-0.5-0.1-0.8-0.3-1c-0.2-0.2-0.5-0.4-0.9-0.4c-0.6,0-1,0.2-1.2,0.5
			c-0.3,0.3-0.4,0.8-0.4,1.5v3.3h-0.9v-3.8c0-0.5-0.1-0.8-0.3-1c-0.2-0.2-0.5-0.4-0.9-0.4c-0.6,0-1,0.2-1.2,0.5
			c-0.3,0.3-0.4,0.9-0.4,1.6v3.1H310v-5.8h0.7l0.1,0.8h0c0.2-0.3,0.4-0.5,0.7-0.7c0.3-0.2,0.6-0.2,1-0.2c0.9,0,1.5,0.3,1.8,1h0
			c0.2-0.3,0.4-0.5,0.8-0.7c0.3-0.2,0.7-0.3,1.1-0.3c0.7,0,1.2,0.2,1.5,0.5c0.3,0.3,0.5,0.9,0.5,1.6v3.8H317.5z"/>
		<path fill="#FFF100" d="M322.6,68.3c-0.9,0-1.5-0.3-2-0.8c-0.5-0.5-0.7-1.3-0.7-2.2c0-0.9,0.2-1.7,0.7-2.2
			c0.5-0.6,1.1-0.8,1.9-0.8c0.7,0,1.3,0.2,1.7,0.7c0.4,0.5,0.6,1.1,0.6,1.9v0.6h-4c0,0.7,0.2,1.2,0.5,1.6c0.3,0.4,0.8,0.5,1.4,0.5
			c0.6,0,1.3-0.1,1.9-0.4v0.8c-0.3,0.1-0.6,0.2-0.9,0.3C323.4,68.3,323,68.3,322.6,68.3z M322.4,63c-0.5,0-0.8,0.2-1.1,0.5
			c-0.3,0.3-0.4,0.7-0.5,1.3h3.1c0-0.6-0.1-1-0.4-1.3C323.2,63.2,322.9,63,322.4,63z"/>
		<path fill="#FFFFFF" d="M251.3,79.8c0-1.1,0.2-2,0.5-2.6c0.3-0.7,0.8-1.2,1.4-1.5c0.6-0.3,1.4-0.5,2.2-0.5c0.3,0,0.7,0,1.1,0.1
			v1.7c-0.4-0.1-0.7-0.1-1.2-0.1c-0.7,0-1.2,0.2-1.6,0.5c-0.3,0.3-0.5,0.8-0.6,1.5h0.1c0.3-0.6,0.8-0.9,1.5-0.9
			c0.7,0,1.2,0.2,1.6,0.7c0.4,0.4,0.6,1.1,0.6,1.9c0,0.9-0.2,1.5-0.7,2c-0.5,0.5-1.2,0.7-2,0.7c-0.9,0-1.6-0.3-2.2-0.9
			C251.6,81.7,251.3,80.9,251.3,79.8z M254.2,81.5c0.2,0,0.4-0.1,0.5-0.3c0.1-0.2,0.2-0.4,0.2-0.8c0-0.6-0.2-0.9-0.7-0.9
			c-0.2,0-0.4,0.1-0.6,0.2c-0.2,0.2-0.2,0.4-0.2,0.6c0,0.3,0.1,0.6,0.2,0.8C253.8,81.4,254,81.5,254.2,81.5z"/>
		<path fill="#FFFFFF" d="M262.4,83.1h-2.1V79c0-0.5,0-1,0-1.4c-0.1,0.2-0.3,0.3-0.5,0.5l-0.9,0.7l-1.1-1.3l2.7-2.2h1.9V83.1z"/>
		<path fill="#FFFFFF" d="M268,77.6c0,0.8-0.2,1.4-0.5,1.8c-0.4,0.4-0.9,0.6-1.5,0.6c-0.6,0-1.1-0.2-1.5-0.7s-0.5-1-0.5-1.8
			c0-0.8,0.2-1.4,0.5-1.8c0.3-0.4,0.8-0.6,1.5-0.6c0.6,0,1.1,0.2,1.5,0.7C267.8,76.3,268,76.9,268,77.6z M265.5,77.6
			c0,0.4,0,0.7,0.1,0.9c0.1,0.2,0.2,0.3,0.3,0.3c0.1,0,0.2-0.1,0.3-0.3c0.1-0.2,0.1-0.5,0.1-0.9c0-0.4,0-0.7-0.1-0.9
			s-0.2-0.3-0.3-0.3c-0.1,0-0.2,0.1-0.3,0.3C265.6,76.9,265.5,77.2,265.5,77.6z M271.9,75.3l-4.3,7.8h-1.6l4.3-7.8H271.9z
			 M273.9,80.7c0,0.8-0.2,1.4-0.5,1.8c-0.4,0.4-0.9,0.6-1.5,0.6c-0.6,0-1.1-0.2-1.5-0.7c-0.4-0.4-0.5-1-0.5-1.8
			c0-0.8,0.2-1.4,0.5-1.8s0.8-0.6,1.5-0.6c0.6,0,1.1,0.2,1.5,0.7C273.7,79.4,273.9,80,273.9,80.7z M271.5,80.7c0,0.4,0,0.7,0.1,0.9
			c0.1,0.2,0.2,0.3,0.3,0.3c0.2,0,0.3-0.1,0.3-0.3c0.1-0.2,0.1-0.5,0.1-0.8c0-0.4,0-0.6-0.1-0.8c-0.1-0.2-0.2-0.3-0.3-0.3
			c-0.1,0-0.2,0.1-0.3,0.3C271.5,80,271.5,80.3,271.5,80.7z"/>
	</g>
	<rect y="99" opacity="5.000000e-002" fill="#FFFFFF" width="167" height="46"/>
	<rect x="171" y="99" opacity="5.000000e-002" fill="#FFFFFF" width="180" height="46"/>
	<g>
		<path fill="#FFF100" d="M61.7,107.1h2.2c1,0,1.8,0.2,2.3,0.5c0.5,0.3,0.7,0.8,0.7,1.5c0,0.5-0.1,0.8-0.4,1.1
			c-0.3,0.3-0.6,0.5-1.1,0.6v0.1c1.2,0.2,1.8,0.8,1.8,1.9c0,0.7-0.2,1.2-0.7,1.6c-0.5,0.4-1.1,0.6-2,0.6h-2.7V107.1z M62.6,110.4
			h1.5c0.6,0,1.1-0.1,1.4-0.3c0.3-0.2,0.4-0.5,0.4-1c0-0.4-0.2-0.8-0.5-0.9c-0.3-0.2-0.8-0.3-1.5-0.3h-1.3V110.4z M62.6,111.2v2.9
			h1.6c0.6,0,1.1-0.1,1.4-0.4c0.3-0.2,0.5-0.6,0.5-1.1c0-0.5-0.2-0.8-0.5-1.1c-0.3-0.2-0.8-0.3-1.5-0.3H62.6z"/>
		<path fill="#FFF100" d="M71.2,114.9h-0.9v-7h-2.5v-0.8h5.9v0.8h-2.5V114.9z"/>
		<path fill="#FFF100" d="M75.8,111.6v3.2h-0.9v-7.8H77c1,0,1.7,0.2,2.1,0.6c0.5,0.4,0.7,0.9,0.7,1.7c0,1-0.5,1.7-1.6,2.1l2.1,3.5
			h-1.1l-1.9-3.2H75.8z M75.8,110.9H77c0.6,0,1.1-0.1,1.4-0.4c0.3-0.3,0.5-0.6,0.5-1.1c0-0.5-0.2-0.9-0.5-1.1
			c-0.3-0.2-0.8-0.3-1.5-0.3h-1.2V110.9z"/>
		<path fill="#FFF100" d="M88.9,112.8c0,0.7-0.3,1.2-0.7,1.6c-0.5,0.4-1.2,0.6-2,0.6c-0.9,0-1.6-0.1-2.1-0.4v-0.9
			c0.3,0.1,0.7,0.2,1,0.3c0.4,0.1,0.8,0.1,1.1,0.1c0.6,0,1.1-0.1,1.4-0.3c0.3-0.2,0.5-0.5,0.5-1c0-0.3-0.1-0.5-0.2-0.7
			c-0.1-0.2-0.3-0.3-0.5-0.5c-0.3-0.1-0.6-0.3-1.2-0.5c-0.7-0.3-1.2-0.6-1.6-0.9c-0.3-0.4-0.5-0.8-0.5-1.4c0-0.6,0.2-1.1,0.7-1.4
			c0.5-0.4,1.1-0.5,1.8-0.5c0.8,0,1.5,0.1,2.1,0.4l-0.3,0.8c-0.6-0.3-1.3-0.4-1.9-0.4c-0.5,0-0.9,0.1-1.1,0.3S85,108.6,85,109
			c0,0.3,0.1,0.5,0.2,0.7c0.1,0.2,0.3,0.3,0.5,0.5c0.2,0.1,0.6,0.3,1.1,0.5c0.8,0.3,1.4,0.6,1.7,0.9
			C88.7,111.8,88.9,112.3,88.9,112.8z"/>
		<path fill="#FFF100" d="M92.7,115c-0.9,0-1.5-0.3-2-0.8c-0.5-0.5-0.7-1.3-0.7-2.2c0-1,0.2-1.7,0.7-2.3c0.5-0.5,1.1-0.8,2-0.8
			c0.3,0,0.6,0,0.8,0.1c0.3,0.1,0.5,0.1,0.7,0.2L94,110c-0.2-0.1-0.4-0.1-0.6-0.2c-0.2-0.1-0.4-0.1-0.6-0.1c-1.2,0-1.8,0.8-1.8,2.3
			c0,0.7,0.1,1.3,0.4,1.7c0.3,0.4,0.7,0.6,1.3,0.6c0.5,0,1-0.1,1.5-0.3v0.8C93.8,114.9,93.3,115,92.7,115z"/>
		<path fill="#FFF100" d="M100.7,112c0,1-0.2,1.7-0.7,2.2c-0.5,0.5-1.1,0.8-2,0.8c-0.5,0-1-0.1-1.4-0.4c-0.4-0.2-0.7-0.6-0.9-1.1
			c-0.2-0.5-0.3-1-0.3-1.6c0-1,0.2-1.7,0.7-2.2c0.5-0.5,1.1-0.8,2-0.8c0.8,0,1.5,0.3,2,0.8C100.4,110.3,100.7,111,100.7,112z
			 M96.2,112c0,0.7,0.2,1.3,0.4,1.7c0.3,0.4,0.7,0.6,1.3,0.6c0.6,0,1-0.2,1.3-0.6c0.3-0.4,0.5-1,0.5-1.7c0-0.7-0.2-1.3-0.5-1.7
			c-0.3-0.4-0.7-0.6-1.3-0.6c-0.6,0-1,0.2-1.3,0.6C96.3,110.6,96.2,111.2,96.2,112z"/>
		<path fill="#FFF100" d="M104.9,108.9c0.3,0,0.5,0,0.7,0.1l-0.1,0.8c-0.2-0.1-0.5-0.1-0.6-0.1c-0.5,0-0.9,0.2-1.2,0.6
			c-0.3,0.4-0.5,0.9-0.5,1.4v3.1h-0.9V109h0.7l0.1,1.1h0c0.2-0.4,0.5-0.7,0.8-0.9C104.2,109,104.5,108.9,104.9,108.9z"/>
		<path fill="#FFF100" d="M109.2,115c-0.9,0-1.6-0.3-2.1-0.8c-0.5-0.5-0.8-1.3-0.8-2.2c0-0.9,0.2-1.7,0.7-2.2
			c0.5-0.6,1.1-0.8,1.9-0.8c0.7,0,1.3,0.2,1.7,0.7c0.4,0.5,0.6,1.1,0.6,1.9v0.6h-4c0,0.7,0.2,1.2,0.5,1.6c0.3,0.4,0.8,0.5,1.4,0.5
			c0.6,0,1.3-0.1,1.9-0.4v0.8c-0.3,0.1-0.6,0.2-0.9,0.3C109.9,115,109.6,115,109.2,115z M108.9,109.7c-0.5,0-0.8,0.2-1.1,0.5
			c-0.3,0.3-0.4,0.7-0.5,1.3h3.1c0-0.6-0.1-1-0.4-1.3C109.8,109.8,109.4,109.7,108.9,109.7z"/>
		<path fill="#FFFFFF" d="M77.7,129.8l2.7-6H77V122h5.7v1.2l-2.8,6.5H77.7z"/>
		<path fill="#FFFFFF" d="M83.4,126.5c0-1.1,0.2-2,0.5-2.6c0.3-0.7,0.8-1.2,1.4-1.5c0.6-0.3,1.4-0.5,2.3-0.5c0.3,0,0.7,0,1.1,0.1
			v1.7c-0.4-0.1-0.7-0.1-1.2-0.1c-0.7,0-1.2,0.2-1.6,0.5c-0.3,0.3-0.5,0.8-0.6,1.5h0.1c0.3-0.6,0.8-0.9,1.5-0.9
			c0.7,0,1.2,0.2,1.6,0.7c0.4,0.4,0.6,1.1,0.6,1.9c0,0.9-0.2,1.5-0.7,2c-0.5,0.5-1.2,0.7-2,0.7c-0.9,0-1.6-0.3-2.2-0.9
			C83.7,128.4,83.4,127.5,83.4,126.5z M86.3,128.2c0.2,0,0.4-0.1,0.5-0.3c0.1-0.2,0.2-0.4,0.2-0.8c0-0.6-0.2-0.9-0.7-0.9
			c-0.2,0-0.4,0.1-0.6,0.2s-0.2,0.4-0.2,0.6c0,0.3,0.1,0.6,0.2,0.8C85.9,128.1,86.1,128.2,86.3,128.2z"/>
		<path fill="#FFFFFF" d="M95.5,129.8h-5.7v-1.4l1.9-1.9c0.5-0.6,0.9-1,1.1-1.2s0.3-0.4,0.4-0.5c0.1-0.1,0.1-0.3,0.1-0.5
			c0-0.2-0.1-0.4-0.2-0.5c-0.1-0.1-0.3-0.2-0.6-0.2c-0.2,0-0.5,0.1-0.7,0.2c-0.3,0.1-0.5,0.3-0.9,0.6l-1.2-1.4
			c0.4-0.4,0.7-0.6,1-0.8c0.3-0.2,0.6-0.3,0.9-0.4c0.3-0.1,0.7-0.1,1.1-0.1c0.5,0,1,0.1,1.4,0.3c0.4,0.2,0.7,0.4,0.9,0.8
			c0.2,0.3,0.3,0.7,0.3,1.1c0,0.3,0,0.6-0.1,0.8c-0.1,0.3-0.2,0.5-0.4,0.8c-0.2,0.3-0.4,0.5-0.6,0.8c-0.3,0.3-0.8,0.8-1.7,1.6v0.1h3
			V129.8z"/>
	</g>
	<g>
		<path fill="#FFF100" d="M238.2,113.3l-1-2.5h-3.1l-1,2.5h-0.9l3.1-7.8h0.8l3.1,7.8H238.2z M237,110l-0.9-2.4
			c-0.1-0.3-0.2-0.7-0.4-1.1c-0.1,0.3-0.2,0.7-0.3,1.1l-0.9,2.4H237z"/>
		<path fill="#FFF100" d="M241.4,113.3l-2.2-5.8h0.9l1.3,3.5c0.3,0.8,0.5,1.3,0.5,1.6h0c0-0.2,0.2-0.6,0.4-1.2
			c0.2-0.6,0.7-1.9,1.4-3.9h0.9l-2.2,5.8H241.4z"/>
		<path fill="#FFF100" d="M248,113.4c-0.9,0-1.5-0.3-2-0.8c-0.5-0.5-0.7-1.3-0.7-2.2c0-0.9,0.2-1.7,0.7-2.2c0.5-0.6,1.1-0.8,1.9-0.8
			c0.7,0,1.3,0.2,1.7,0.7s0.6,1.1,0.6,1.9v0.6h-4c0,0.7,0.2,1.2,0.5,1.6c0.3,0.4,0.8,0.5,1.4,0.5c0.6,0,1.3-0.1,1.9-0.4v0.8
			c-0.3,0.1-0.6,0.2-0.9,0.3C248.8,113.4,248.4,113.4,248,113.4z M247.8,108.1c-0.5,0-0.8,0.2-1.1,0.5c-0.3,0.3-0.4,0.7-0.5,1.3h3.1
			c0-0.6-0.1-1-0.4-1.3C248.6,108.2,248.3,108.1,247.8,108.1z"/>
		<path fill="#FFF100" d="M259.6,113.3l-1-2.5h-3.1l-1,2.5h-0.9l3.1-7.8h0.8l3.1,7.8H259.6z M258.3,110l-0.9-2.4
			c-0.1-0.3-0.2-0.7-0.4-1.1c-0.1,0.3-0.2,0.7-0.3,1.1l-0.9,2.4H258.3z"/>
		<path fill="#FFF100" d="M263.8,113.4c-0.8,0-1.5-0.3-2-0.8c-0.5-0.5-0.7-1.3-0.7-2.2c0-1,0.2-1.7,0.7-2.3c0.5-0.5,1.1-0.8,2-0.8
			c0.3,0,0.6,0,0.8,0.1c0.3,0.1,0.5,0.1,0.7,0.2l-0.3,0.8c-0.2-0.1-0.4-0.1-0.6-0.2c-0.2-0.1-0.4-0.1-0.6-0.1
			c-1.2,0-1.8,0.8-1.8,2.3c0,0.7,0.1,1.3,0.4,1.7c0.3,0.4,0.7,0.6,1.3,0.6c0.5,0,1-0.1,1.5-0.3v0.8
			C264.9,113.3,264.4,113.4,263.8,113.4z"/>
		<path fill="#FFF100" d="M269,113.4c-0.8,0-1.5-0.3-2-0.8c-0.5-0.5-0.7-1.3-0.7-2.2c0-1,0.2-1.7,0.7-2.3c0.5-0.5,1.1-0.8,2-0.8
			c0.3,0,0.6,0,0.8,0.1c0.3,0.1,0.5,0.1,0.7,0.2l-0.3,0.8c-0.2-0.1-0.4-0.1-0.6-0.2c-0.2-0.1-0.4-0.1-0.6-0.1
			c-1.2,0-1.8,0.8-1.8,2.3c0,0.7,0.1,1.3,0.4,1.7c0.3,0.4,0.7,0.6,1.3,0.6c0.5,0,1-0.1,1.5-0.3v0.8
			C270.1,113.3,269.6,113.4,269,113.4z"/>
		<path fill="#FFF100" d="M272.7,107.5v3.8c0,0.5,0.1,0.8,0.3,1.1c0.2,0.2,0.6,0.4,1,0.4c0.6,0,1.1-0.2,1.3-0.5
			c0.3-0.3,0.4-0.9,0.4-1.6v-3.1h0.9v5.8H276l-0.1-0.8h0c-0.2,0.3-0.4,0.5-0.8,0.7c-0.3,0.2-0.7,0.2-1.1,0.2c-0.7,0-1.2-0.2-1.6-0.5
			c-0.4-0.3-0.5-0.9-0.5-1.6v-3.8H272.7z"/>
		<path fill="#FFF100" d="M281.2,107.3c0.3,0,0.5,0,0.7,0.1l-0.1,0.8c-0.2-0.1-0.5-0.1-0.6-0.1c-0.5,0-0.9,0.2-1.2,0.6
			c-0.3,0.4-0.5,0.9-0.5,1.4v3.1h-0.9v-5.8h0.7l0.1,1.1h0c0.2-0.4,0.5-0.7,0.8-0.9C280.5,107.4,280.9,107.3,281.2,107.3z"/>
		<path fill="#FFF100" d="M286.6,113.3l-0.2-0.8h0c-0.3,0.4-0.6,0.6-0.9,0.7c-0.3,0.1-0.7,0.2-1.1,0.2c-0.6,0-1-0.1-1.4-0.4
			c-0.3-0.3-0.5-0.7-0.5-1.3c0-1.2,0.9-1.8,2.8-1.9l1,0v-0.4c0-0.5-0.1-0.8-0.3-1c-0.2-0.2-0.5-0.3-0.9-0.3c-0.5,0-1,0.1-1.7,0.4
			l-0.3-0.7c0.3-0.2,0.6-0.3,0.9-0.4c0.3-0.1,0.7-0.1,1-0.1c0.7,0,1.2,0.2,1.6,0.5c0.3,0.3,0.5,0.8,0.5,1.5v4H286.6z M284.6,112.7
			c0.6,0,1-0.2,1.3-0.5c0.3-0.3,0.5-0.7,0.5-1.3v-0.5l-0.9,0c-0.7,0-1.2,0.1-1.5,0.3c-0.3,0.2-0.5,0.5-0.5,0.9
			c0,0.3,0.1,0.6,0.3,0.7C284,112.6,284.3,112.7,284.6,112.7z"/>
		<path fill="#FFF100" d="M291.5,113.4c-0.8,0-1.5-0.3-2-0.8c-0.5-0.5-0.7-1.3-0.7-2.2c0-1,0.2-1.7,0.7-2.3c0.5-0.5,1.1-0.8,2-0.8
			c0.3,0,0.6,0,0.8,0.1c0.3,0.1,0.5,0.1,0.7,0.2l-0.3,0.8c-0.2-0.1-0.4-0.1-0.6-0.2c-0.2-0.1-0.4-0.1-0.6-0.1
			c-1.2,0-1.8,0.8-1.8,2.3c0,0.7,0.1,1.3,0.4,1.7c0.3,0.4,0.7,0.6,1.3,0.6c0.5,0,1-0.1,1.5-0.3v0.8
			C292.5,113.3,292.1,113.4,291.5,113.4z"/>
		<path fill="#FFF100" d="M293.4,107.5h0.9l1.3,3.3c0.3,0.8,0.5,1.3,0.5,1.7h0c0-0.2,0.1-0.5,0.3-0.9c0.1-0.4,0.6-1.8,1.4-4.1h0.9
			l-2.5,6.7c-0.3,0.7-0.5,1.1-0.9,1.4c-0.3,0.3-0.7,0.4-1.2,0.4c-0.3,0-0.5,0-0.8-0.1v-0.7c0.2,0,0.4,0.1,0.7,0.1c0.6,0,1-0.3,1.3-1
			l0.3-0.8L293.4,107.5z"/>
		<path fill="#FFFFFF" d="M257.5,123.1c0.4,0,0.9,0.1,1.2,0.3c0.4,0.2,0.6,0.5,0.8,0.9c0.2,0.4,0.3,0.8,0.3,1.3c0,0.9-0.3,1.5-0.8,2
			c-0.5,0.5-1.3,0.7-2.4,0.7c-0.9,0-1.7-0.1-2.2-0.4v-1.7c0.3,0.1,0.7,0.3,1,0.4c0.4,0.1,0.7,0.1,1,0.1c0.4,0,0.7-0.1,0.9-0.2
			c0.2-0.2,0.3-0.4,0.3-0.7c0-0.3-0.1-0.5-0.3-0.7c-0.2-0.2-0.5-0.3-1-0.3c-0.3,0-0.7,0.1-1.1,0.2l-0.8-0.4l0.3-4.1h4.5v1.8h-2.7
			l-0.1,1c0.3-0.1,0.5-0.1,0.6-0.1C257.3,123.1,257.4,123.1,257.5,123.1z"/>
		<path fill="#FFFFFF" d="M263.6,120.3c0.8,0,1.5,0.2,1.9,0.5c0.5,0.3,0.7,0.8,0.7,1.4c0,0.4-0.1,0.8-0.3,1.1
			c-0.2,0.3-0.6,0.6-1,0.8c0.6,0.3,1,0.7,1.2,1c0.2,0.3,0.4,0.7,0.4,1.1c0,0.7-0.3,1.2-0.8,1.6c-0.5,0.4-1.2,0.6-2.1,0.6
			c-0.9,0-1.6-0.2-2.1-0.6c-0.5-0.4-0.7-0.9-0.7-1.6c0-0.5,0.1-0.8,0.3-1.2c0.2-0.3,0.6-0.6,1.1-0.9c-0.4-0.3-0.7-0.6-0.9-0.9
			c-0.2-0.3-0.3-0.7-0.3-1c0-0.6,0.2-1.1,0.7-1.4C262.1,120.4,262.8,120.3,263.6,120.3z M262.7,126c0,0.2,0.1,0.4,0.2,0.5
			c0.2,0.1,0.4,0.2,0.7,0.2c0.6,0,0.9-0.2,0.9-0.7c0-0.2-0.1-0.3-0.2-0.5c-0.1-0.2-0.4-0.4-0.7-0.6c-0.3,0.2-0.5,0.3-0.7,0.5
			C262.7,125.7,262.7,125.8,262.7,126z M263.6,121.8c-0.2,0-0.3,0.1-0.5,0.2c-0.1,0.1-0.2,0.2-0.2,0.4c0,0.3,0.2,0.6,0.6,0.8
			c0.3-0.1,0.4-0.3,0.5-0.4c0.1-0.1,0.1-0.3,0.1-0.4c0-0.2-0.1-0.3-0.2-0.4C263.9,121.8,263.8,121.8,263.6,121.8z"/>
		<path fill="#FFFFFF" d="M271,122.7c0,0.8-0.2,1.4-0.5,1.8c-0.4,0.4-0.9,0.6-1.5,0.6c-0.6,0-1.1-0.2-1.5-0.7
			c-0.4-0.4-0.5-1-0.5-1.8c0-0.8,0.2-1.4,0.5-1.8c0.3-0.4,0.8-0.6,1.5-0.6c0.6,0,1.1,0.2,1.5,0.7C270.8,121.4,271,121.9,271,122.7z
			 M268.6,122.7c0,0.4,0,0.7,0.1,0.9c0.1,0.2,0.2,0.3,0.3,0.3c0.1,0,0.2-0.1,0.3-0.3c0.1-0.2,0.1-0.5,0.1-0.9c0-0.4,0-0.7-0.1-0.9
			c-0.1-0.2-0.2-0.3-0.3-0.3c-0.1,0-0.2,0.1-0.3,0.3C268.6,122,268.6,122.3,268.6,122.7z M274.9,120.4l-4.3,7.8H269l4.3-7.8H274.9z
			 M276.9,125.8c0,0.8-0.2,1.4-0.5,1.8c-0.4,0.4-0.9,0.6-1.5,0.6c-0.6,0-1.1-0.2-1.5-0.7c-0.4-0.4-0.5-1-0.5-1.8
			c0-0.8,0.2-1.4,0.5-1.8c0.3-0.4,0.8-0.6,1.5-0.6c0.6,0,1.1,0.2,1.5,0.7C276.8,124.5,276.9,125.1,276.9,125.8z M274.5,125.8
			c0,0.4,0,0.7,0.1,0.9c0.1,0.2,0.2,0.3,0.3,0.3c0.2,0,0.3-0.1,0.3-0.3c0.1-0.2,0.1-0.5,0.1-0.8c0-0.4,0-0.6-0.1-0.8
			c-0.1-0.2-0.2-0.3-0.3-0.3c-0.1,0-0.2,0.1-0.3,0.3C274.6,125.1,274.5,125.4,274.5,125.8z"/>
	</g>
	<polygon fill="#FFF100" points="236.1,79.9 238.1,77.9 238.1,75.9 234.1,79.9 238.1,83.9 238.1,81.9 	"/>
	<g>
		<polygon fill="#FFF100" points="244.4,79.9 242.4,81.9 242.4,83.9 246.4,79.9 242.4,75.9 242.4,77.9 		"/>
	</g>
	<polygon fill="#8BC53F" points="244.4,125.4 246.7,127.8 247.7,126.7 244.4,123.3 241.2,126.7 242.2,127.8 	"/>
	<polygon fill="#006838" points="147.4,32.9 150.1,35.6 152.8,35.6 147.4,30.2 142,35.6 144.7,35.6 	"/>
</g>
</svg>
