<?xml version="1.0" encoding="utf-8"?>
<!-- Generator: Adobe Illustrator 18.1.0, SVG Export Plug-In . SVG Version: 6.00 Build 0)  -->
<svg version="1.1" id="Layer_1" xmlns="http://www.w3.org/2000/svg" xmlns:xlink="http://www.w3.org/1999/xlink" x="0px" y="0px"
	 viewBox="0 0 308.7 193" enable-background="new 0 0 308.7 193" xml:space="preserve">
<g>
	<g>
		<path fill="#FAE924" d="M122.6,168.7h1.1l-1.5,11.3h-1.1L122.6,168.7z"/>
		<path fill="#FAE924" d="M126.2,171.6h1l-0.2,1.3c0.9-1,1.8-1.5,3-1.5c0.9,0,1.6,0.3,2.1,0.8c0.5,0.5,0.8,1.2,0.8,2.1
			c0,0.4-0.1,1-0.2,1.8l-0.5,3.8h-1.1l0.5-3.8c0.1-0.8,0.2-1.4,0.2-1.8c0-0.6-0.2-1.1-0.5-1.4c-0.4-0.4-0.8-0.5-1.4-0.5
			c-0.6,0-1.1,0.1-1.6,0.4c-0.5,0.3-0.9,0.7-1.1,1.2s-0.5,1.3-0.6,2.4l-0.5,3.6h-1.1L126.2,171.6z"/>
		<path fill="#FAE924" d="M141.6,168.7h3.1c1,0,1.8,0.1,2.2,0.3c0.4,0.2,0.8,0.5,1.1,0.9c0.3,0.4,0.4,0.9,0.4,1.5
			c0,0.7-0.2,1.4-0.6,1.9c-0.4,0.6-1,0.9-1.6,1.1c-0.5,0.1-1.3,0.2-2.5,0.2h-1.7l-0.7,5.4H140L141.6,168.7z M142.6,169.8l-0.5,3.8
			h1.6c1.1,0,1.8-0.1,2.2-0.2c0.4-0.1,0.7-0.4,1-0.8c0.2-0.4,0.4-0.8,0.4-1.2c0-0.4-0.1-0.7-0.3-0.9c-0.2-0.3-0.4-0.4-0.7-0.5
			c-0.3-0.1-0.8-0.2-1.6-0.2H142.6z"/>
		<path fill="#FAE924" d="M150.9,168.4h1l-1.6,11.6h-1.1L150.9,168.4z"/>
		<path fill="#FAE924" d="M161.4,180h-1.1l0.2-1.3c-1,1-2.1,1.5-3.3,1.5c-1.1,0-2.1-0.4-2.8-1.1c-0.7-0.7-1.1-1.7-1.1-2.8
			c0-1.3,0.5-2.5,1.4-3.4s2.1-1.4,3.4-1.4c0.7,0,1.3,0.1,1.8,0.4c0.5,0.3,1,0.7,1.3,1.4l0.2-1.6h1.1L161.4,180z M157.3,179.2
			c0.7,0,1.3-0.2,1.9-0.5c0.6-0.3,1-0.8,1.3-1.4c0.3-0.6,0.5-1.3,0.5-2c0-0.9-0.3-1.6-0.8-2.1c-0.5-0.5-1.3-0.8-2.1-0.8
			c-1,0-1.9,0.4-2.6,1.1c-0.7,0.7-1.1,1.7-1.1,2.7c0,0.9,0.3,1.6,0.8,2.1C155.7,179,156.4,179.2,157.3,179.2z"/>
		<path fill="#FAE924" d="M164.3,171.6h1.1l2.2,6.2l3.6-6.2h1.2l-6.7,11.4h-1.2l2.4-4.1L164.3,171.6z"/>
		<path fill="#FAE924" d="M188.4,178.4l1.9,2.1h-1.4l-1.3-1.4c-1.1,0.8-2.5,1.2-4,1.2c-1.6,0-2.9-0.5-3.9-1.5c-1-1-1.5-2.3-1.5-3.8
			c0-1.2,0.3-2.3,0.9-3.3c0.6-1,1.4-1.8,2.4-2.4c1-0.6,2.2-0.9,3.4-0.9c1.6,0,2.9,0.5,3.9,1.5c1,1,1.5,2.3,1.5,3.8
			C190.3,175.5,189.7,177.1,188.4,178.4z M187.6,177.6c0.5-0.5,0.9-1.1,1.2-1.8c0.3-0.7,0.4-1.4,0.4-2.1c0-1.2-0.4-2.2-1.2-3
			c-0.8-0.8-1.8-1.2-3.1-1.2c-1,0-1.9,0.2-2.8,0.7c-0.9,0.5-1.5,1.2-2,2c-0.5,0.9-0.7,1.8-0.7,2.8c0,0.8,0.2,1.6,0.5,2.2
			c0.4,0.7,0.9,1.2,1.5,1.5c0.6,0.3,1.4,0.5,2.2,0.5c1.2,0,2.3-0.3,3.2-1l-1.9-2h1.4L187.6,177.6z"/>
		<path fill="#FAE924" d="M193.7,171.6h1.1l-0.5,3.5c-0.1,1-0.2,1.7-0.2,2c0,0.6,0.2,1.1,0.6,1.5c0.4,0.4,0.9,0.6,1.6,0.6
			c0.5,0,1-0.2,1.4-0.5c0.4-0.3,0.7-0.7,0.8-1.2c0.1-0.3,0.2-0.8,0.3-1.7l0.6-4.2h1.1l-0.4,3.2c-0.2,1.5-0.4,2.6-0.6,3.2
			c-0.2,0.6-0.6,1.2-1.2,1.6c-0.6,0.4-1.2,0.6-2,0.6c-0.9,0-1.7-0.3-2.2-0.9c-0.6-0.6-0.9-1.3-0.9-2.2c0-0.4,0-0.8,0.1-1.2l0.1-0.7
			l0-0.3L193.7,171.6z"/>
		<path fill="#FAE924" d="M210.7,176h-7.5c0,1,0.2,1.8,0.8,2.3c0.5,0.6,1.2,0.9,2.1,0.9c0.6,0,1.1-0.1,1.6-0.4
			c0.5-0.2,0.9-0.6,1.2-1l0.8,0.7c-0.4,0.5-0.9,0.9-1.6,1.2c-0.7,0.3-1.4,0.5-2.1,0.5c-1.3,0-2.3-0.4-3-1.2c-0.7-0.8-1-1.7-1-2.7
			c0-0.8,0.2-1.6,0.7-2.4c0.4-0.8,1-1.4,1.8-1.8c0.7-0.4,1.6-0.6,2.4-0.6c1.1,0,2,0.4,2.7,1.1c0.7,0.7,1.1,1.7,1.1,2.8
			C210.7,175.5,210.7,175.7,210.7,176z M209.7,175.1c0-0.8-0.3-1.4-0.8-1.9c-0.5-0.5-1.1-0.7-1.9-0.7c-0.8,0-1.6,0.2-2.2,0.7
			s-1.1,1.1-1.4,1.9H209.7z"/>
		<path fill="#FAE924" d="M217.7,172.6l-0.6,0.9c-0.5-0.7-1-1-1.7-1c-0.4,0-0.7,0.1-0.9,0.4c-0.3,0.2-0.4,0.5-0.4,0.8
			c0,0.2,0.1,0.4,0.2,0.6c0.2,0.2,0.5,0.5,1.1,0.8c0.8,0.5,1.3,1,1.6,1.4c0.3,0.4,0.4,0.8,0.4,1.3c0,0.7-0.2,1.3-0.7,1.7
			s-1.1,0.7-1.9,0.7c-1,0-1.9-0.5-2.6-1.4l0.7-0.8c0.6,0.8,1.3,1.1,2,1.1c0.4,0,0.8-0.1,1.1-0.4c0.3-0.3,0.5-0.6,0.5-1
			c0-0.3-0.1-0.6-0.3-0.9c-0.1-0.2-0.5-0.5-1.2-0.9c-0.7-0.5-1.2-0.9-1.4-1.2c-0.2-0.3-0.3-0.7-0.3-1.1c0-0.6,0.2-1.1,0.7-1.6
			c0.5-0.4,1.1-0.7,1.8-0.7c0.4,0,0.8,0.1,1.1,0.3C217,171.8,217.4,172.1,217.7,172.6z"/>
		<path fill="#FAE924" d="M221.7,168.5h1.1l-0.4,3.1h1.7l-0.1,0.9h-1.7l-1,7.4h-1.1l1-7.4h-1.4l0.1-0.9h1.4L221.7,168.5z"/>
		<path fill="#FAE924" d="M225.9,171.6h1l-1.1,8.4h-1.1L225.9,171.6z M226.7,168.2c0.2,0,0.4,0.1,0.6,0.3c0.2,0.2,0.3,0.4,0.3,0.6
			c0,0.2-0.1,0.4-0.3,0.6c-0.2,0.2-0.4,0.3-0.6,0.3c-0.2,0-0.4-0.1-0.6-0.3c-0.2-0.2-0.3-0.4-0.3-0.6c0-0.2,0.1-0.4,0.3-0.6
			C226.3,168.3,226.5,168.2,226.7,168.2z"/>
		<path fill="#FAE924" d="M233.4,171.4c0.7,0,1.4,0.2,2,0.5c0.6,0.3,1.1,0.8,1.4,1.4c0.3,0.6,0.5,1.3,0.5,2.1c0,0.9-0.2,1.7-0.6,2.4
			c-0.4,0.8-1,1.3-1.7,1.7c-0.7,0.4-1.5,0.6-2.4,0.6c-1.1,0-2-0.4-2.8-1.1c-0.7-0.7-1.1-1.7-1.1-2.8c0-0.9,0.2-1.7,0.6-2.5
			c0.4-0.8,1-1.3,1.8-1.8C231.7,171.6,232.5,171.4,233.4,171.4z M233.4,172.4c-0.7,0-1.3,0.2-1.9,0.5c-0.6,0.3-1,0.8-1.4,1.4
			c-0.3,0.6-0.5,1.2-0.5,1.9c0,0.9,0.3,1.6,0.8,2.2c0.5,0.6,1.2,0.8,2.1,0.8c0.7,0,1.3-0.2,1.8-0.5c0.5-0.3,1-0.8,1.3-1.4
			s0.5-1.3,0.5-1.9c0-0.6-0.1-1.1-0.4-1.5c-0.2-0.4-0.6-0.8-1-1C234.4,172.6,233.9,172.4,233.4,172.4z"/>
		<path fill="#FAE924" d="M240.3,171.6h1l-0.2,1.3c0.9-1,1.8-1.5,3-1.5c0.9,0,1.6,0.3,2.1,0.8s0.8,1.2,0.8,2.1c0,0.4-0.1,1-0.2,1.8
			l-0.5,3.8h-1.1l0.5-3.8c0.1-0.8,0.2-1.4,0.2-1.8c0-0.6-0.2-1.1-0.5-1.4c-0.4-0.4-0.8-0.5-1.4-0.5c-0.6,0-1.1,0.1-1.6,0.4
			c-0.5,0.3-0.9,0.7-1.1,1.2c-0.3,0.5-0.5,1.3-0.6,2.4l-0.5,3.6h-1.1L240.3,171.6z"/>
		<path fill="#FAE924" d="M254.3,172.6l-0.6,0.9c-0.5-0.7-1-1-1.7-1c-0.4,0-0.7,0.1-0.9,0.4c-0.3,0.2-0.4,0.5-0.4,0.8
			c0,0.2,0.1,0.4,0.2,0.6c0.2,0.2,0.5,0.5,1.1,0.8c0.8,0.5,1.3,1,1.6,1.4c0.3,0.4,0.4,0.8,0.4,1.3c0,0.7-0.2,1.3-0.7,1.7
			s-1.1,0.7-1.9,0.7c-1,0-1.9-0.5-2.6-1.4l0.7-0.8c0.6,0.8,1.3,1.1,2,1.1c0.4,0,0.8-0.1,1.1-0.4s0.5-0.6,0.5-1
			c0-0.3-0.1-0.6-0.3-0.9c-0.1-0.2-0.5-0.5-1.2-0.9c-0.7-0.5-1.2-0.9-1.4-1.2c-0.2-0.3-0.3-0.7-0.3-1.1c0-0.6,0.2-1.1,0.7-1.6
			c0.5-0.4,1.1-0.7,1.8-0.7c0.4,0,0.8,0.1,1.1,0.3S253.9,172.1,254.3,172.6z"/>
	</g>
	<rect x="0" y="0" width="308.7" height="68.2"/>
	<g>
		<path fill="#FFFFFF" d="M58.9,40.3h-3.1l-1.7-6.7c-0.1-0.2-0.2-0.7-0.3-1.5c-0.2-0.7-0.2-1.2-0.3-1.5c0,0.3-0.1,0.8-0.3,1.5
			c-0.1,0.7-0.2,1.2-0.3,1.5l-1.7,6.6h-3.1L45,27.7h2.6l1.6,6.9c0.3,1.3,0.5,2.4,0.6,3.3c0-0.3,0.1-0.8,0.2-1.5
			c0.1-0.7,0.2-1.2,0.4-1.6l1.8-7.1h2.5l1.8,7.1c0.1,0.3,0.2,0.8,0.3,1.5c0.1,0.7,0.2,1.2,0.3,1.7c0.1-0.5,0.2-1,0.3-1.7
			c0.1-0.7,0.2-1.2,0.3-1.6l1.6-6.9h2.6L58.9,40.3z"/>
		<path fill="#FFFFFF" d="M71.5,40.3l-0.9-3h-4.6l-0.9,3h-2.9l4.5-12.7h3.3l4.5,12.7H71.5z M69.9,35.1c-0.8-2.7-1.3-4.3-1.4-4.6
			c-0.1-0.4-0.2-0.6-0.2-0.8c-0.2,0.7-0.7,2.6-1.6,5.5H69.9z"/>
		<path fill="#FFFFFF" d="M83.4,36.8c0,1.1-0.4,2-1.2,2.7c-0.8,0.7-2,1-3.4,1c-1.4,0-2.5-0.3-3.6-0.8v-2.5c0.9,0.4,1.6,0.6,2.2,0.8
			c0.6,0.2,1.1,0.2,1.6,0.2c0.6,0,1-0.1,1.4-0.3c0.3-0.2,0.5-0.6,0.5-1c0-0.2-0.1-0.5-0.2-0.7c-0.1-0.2-0.3-0.4-0.6-0.6
			c-0.3-0.2-0.8-0.5-1.6-0.9c-0.8-0.4-1.4-0.7-1.7-1c-0.4-0.3-0.7-0.7-0.9-1.2s-0.3-1-0.3-1.6c0-1.1,0.4-2,1.1-2.6
			c0.8-0.6,1.8-1,3.2-1c0.7,0,1.3,0.1,1.9,0.2c0.6,0.2,1.2,0.4,1.9,0.7l-0.9,2.1c-0.7-0.3-1.2-0.5-1.7-0.6c-0.4-0.1-0.9-0.2-1.3-0.2
			c-0.5,0-0.9,0.1-1.2,0.4C78.1,30.3,78,30.6,78,31c0,0.2,0.1,0.4,0.2,0.6c0.1,0.2,0.3,0.3,0.5,0.5c0.2,0.2,0.8,0.5,1.7,0.9
			c1.2,0.6,2,1.1,2.4,1.7C83.2,35.3,83.4,36,83.4,36.8z"/>
		<path fill="#FFFFFF" d="M95.2,40.3h-2.7V29.9h-3.4v-2.2h9.6v2.2h-3.4V40.3z"/>
		<path fill="#FFFFFF" d="M111,40.3h-2.7v-5.5h-5v5.5h-2.7V27.7h2.7v5h5v-5h2.7V40.3z"/>
		<path fill="#FFFFFF" d="M121.5,40.3h-7.3V27.7h7.3v2.2h-4.6v2.8h4.3v2.2h-4.3v3.3h4.6V40.3z"/>
		<path fill="#FFFFFF" d="M133.6,33.2h5v6.6c-0.8,0.3-1.6,0.5-2.3,0.6c-0.7,0.1-1.5,0.2-2.2,0.2c-1.9,0-3.4-0.6-4.4-1.7
			c-1-1.1-1.5-2.7-1.5-4.8c0-2,0.6-3.6,1.8-4.8c1.2-1.1,2.8-1.7,4.9-1.7c1.3,0,2.6,0.3,3.8,0.8l-0.9,2.1c-0.9-0.5-1.9-0.7-2.9-0.7
			c-1.2,0-2.1,0.4-2.8,1.2c-0.7,0.8-1,1.8-1,3.1c0,1.4,0.3,2.4,0.8,3.1c0.6,0.7,1.4,1.1,2.5,1.1c0.6,0,1.1-0.1,1.7-0.2v-2.6h-2.4
			V33.2z"/>
		<path fill="#FFFFFF" d="M153.1,34c0,2.1-0.5,3.7-1.6,4.8c-1,1.1-2.5,1.7-4.5,1.7s-3.4-0.6-4.5-1.7c-1-1.1-1.6-2.7-1.6-4.9
			s0.5-3.7,1.6-4.8c1-1.1,2.5-1.7,4.5-1.7s3.4,0.6,4.5,1.7C152.6,30.3,153.1,31.9,153.1,34z M143.9,34c0,1.4,0.3,2.5,0.8,3.2
			c0.5,0.7,1.3,1.1,2.4,1.1c2.1,0,3.2-1.4,3.2-4.3c0-2.9-1.1-4.3-3.2-4.3c-1.1,0-1.9,0.4-2.4,1.1C144.1,31.5,143.9,32.6,143.9,34z"
			/>
		<path fill="#FFFFFF" d="M163.5,40.3l-0.9-3h-4.6l-0.9,3h-2.9l4.5-12.7h3.3l4.5,12.7H163.5z M161.9,35.1c-0.8-2.7-1.3-4.3-1.4-4.6
			c-0.1-0.4-0.2-0.6-0.2-0.8c-0.2,0.7-0.7,2.6-1.6,5.5H161.9z"/>
		<path fill="#FFFFFF" d="M168,40.3V27.7h2.7v10.5h5.1v2.2H168z"/>
		<path fill="#FFFFFF" d="M194.1,34c0,2.1-0.5,3.7-1.6,4.8c-1,1.1-2.5,1.7-4.5,1.7c-1.9,0-3.4-0.6-4.5-1.7c-1-1.1-1.6-2.7-1.6-4.9
			s0.5-3.7,1.6-4.8c1-1.1,2.5-1.7,4.5-1.7c1.9,0,3.4,0.6,4.5,1.7C193.6,30.3,194.1,31.9,194.1,34z M184.9,34c0,1.4,0.3,2.5,0.8,3.2
			c0.5,0.7,1.3,1.1,2.4,1.1c2.1,0,3.2-1.4,3.2-4.3c0-2.9-1.1-4.3-3.2-4.3c-1.1,0-1.9,0.4-2.4,1.1C185.1,31.5,184.9,32.6,184.9,34z"
			/>
		<path fill="#FFFFFF" d="M199.4,40.3h-2.6V27.7h7.3v2.2h-4.6v3.3h4.3v2.2h-4.3V40.3z"/>
		<path fill="#FFFFFF" d="M209.1,40.3h-2.6V27.7h7.3v2.2h-4.6v3.3h4.3v2.2h-4.3V40.3z"/>
		<path fill="#FFFFFF" d="M223.7,36.8c0,1.1-0.4,2-1.2,2.7c-0.8,0.7-2,1-3.4,1c-1.4,0-2.5-0.3-3.6-0.8v-2.5c0.9,0.4,1.6,0.6,2.2,0.8
			c0.6,0.2,1.1,0.2,1.6,0.2c0.6,0,1-0.1,1.4-0.3c0.3-0.2,0.5-0.6,0.5-1c0-0.2-0.1-0.5-0.2-0.7c-0.1-0.2-0.3-0.4-0.6-0.6
			c-0.3-0.2-0.8-0.5-1.6-0.9c-0.8-0.4-1.4-0.7-1.7-1c-0.4-0.3-0.7-0.7-0.9-1.2c-0.2-0.4-0.3-1-0.3-1.6c0-1.1,0.4-2,1.1-2.6
			c0.8-0.6,1.8-1,3.2-1c0.7,0,1.3,0.1,1.9,0.2c0.6,0.2,1.2,0.4,1.9,0.7l-0.9,2.1c-0.7-0.3-1.2-0.5-1.7-0.6c-0.4-0.1-0.9-0.2-1.3-0.2
			c-0.5,0-0.9,0.1-1.2,0.4c-0.3,0.2-0.4,0.5-0.4,0.9c0,0.2,0.1,0.4,0.2,0.6c0.1,0.2,0.3,0.3,0.5,0.5c0.2,0.2,0.8,0.5,1.7,0.9
			c1.2,0.6,2,1.1,2.4,1.7C223.5,35.3,223.7,36,223.7,36.8z"/>
		<path fill="#FFFFFF" d="M226,40.3V27.7h2.7v12.7H226z"/>
		<path fill="#FFFFFF" d="M242.4,33.9c0,2.1-0.6,3.7-1.8,4.8c-1.2,1.1-2.9,1.7-5.1,1.7h-3.6V27.7h4c2.1,0,3.7,0.5,4.8,1.6
			C241.8,30.4,242.4,31.9,242.4,33.9z M239.6,34c0-2.7-1.2-4.1-3.6-4.1h-1.4v8.2h1.2C238.3,38.1,239.6,36.7,239.6,34z"/>
		<path fill="#FFFFFF" d="M252.3,40.3H245V27.7h7.3v2.2h-4.6v2.8h4.3v2.2h-4.3v3.3h4.6V40.3z"/>
		<path fill="#FFFFFF" d="M255.7,36.1v-0.6c0-0.6,0.1-1,0.4-1.4c0.2-0.4,0.7-0.8,1.3-1.3c0.6-0.4,1-0.8,1.2-1.1
			c0.2-0.3,0.3-0.6,0.3-0.9c0-0.4-0.1-0.7-0.4-0.9c-0.3-0.2-0.7-0.3-1.2-0.3c-0.9,0-1.9,0.3-3,0.8l-0.9-1.9c1.3-0.7,2.7-1.1,4.1-1.1
			c1.2,0,2.1,0.3,2.8,0.9c0.7,0.6,1.1,1.3,1.1,2.3c0,0.6-0.1,1.2-0.4,1.6c-0.3,0.5-0.8,1-1.6,1.6c-0.6,0.4-0.9,0.7-1.1,0.9
			c-0.1,0.2-0.2,0.5-0.2,0.8v0.5H255.7z M255.5,39.1c0-0.5,0.1-0.9,0.4-1.1c0.3-0.2,0.6-0.4,1.1-0.4c0.5,0,0.9,0.1,1.1,0.4
			c0.3,0.3,0.4,0.6,0.4,1.1c0,0.5-0.1,0.8-0.4,1.1c-0.3,0.3-0.6,0.4-1.1,0.4c-0.5,0-0.9-0.1-1.1-0.4
			C255.6,39.9,255.5,39.6,255.5,39.1z"/>
	</g>
	<g>
		<g>
			<path fill="#FFFFFF" d="M257.2,58.4c-0.2,0-0.4,0-0.6,0.1c-0.2,0.1-0.3,0.1-0.5,0.2c-0.4,0.1-0.7,0.3-1,0.4
				c-0.7,0.3-1.3,0.7-2,1.1c-1.3,0.8-2.6,1.6-3.9,2.5l0.3-1l0.9,1.9c0.3,0.6,0.5,1.3,0.7,2c0.4,1.4,0.7,2.8,0.7,4.3l-0.2,0.1
				c-1-1.1-1.7-2.4-2.3-3.7c-0.3-0.6-0.6-1.3-0.8-2l-0.6-2.1l-0.2-0.7l0.5-0.3c1.4-0.7,2.8-1.4,4.3-2c0.7-0.3,1.5-0.6,2.2-0.8
				c0.4-0.1,0.8-0.2,1.2-0.3c0.2,0,0.4-0.1,0.6-0.1c0.2,0,0.4,0,0.6,0L257.2,58.4z"/>
		</g>
		<g>
			<path fill="#FFFFFF" d="M252.5,62.3c0,0,0.4,0.1,1.3,0.2c0.8,0.1,2.1,0.3,3.6,0.7c1.5,0.3,3.4,0.7,5.6,1.4c2.1,0.6,4.5,1.5,6.9,3
				c2.3,1.5,4.5,3.8,5.9,6.8c1.4,2.9,2,6.3,2.2,9.7c0.3,3.4,0.1,7-0.2,10.5c-0.3,3.6-0.8,7.2-1.3,10.8c-0.6,3.6-1.2,7.1-1.9,10.6
				c-0.7,3.5-1.4,6.9-2.2,10.2c-1.5,6.6-3,12.7-4.4,18c-1.4,5.2-2.6,9.6-3.4,12.6c-0.9,3-1.4,4.8-1.4,4.8s0.4-1.8,1-4.9
				c0.6-3.1,1.6-7.5,2.7-12.8c1.1-5.3,2.4-11.5,3.8-18.1c0.7-3.3,1.3-6.7,2-10.2c0.7-3.5,1.3-7,1.8-10.6c0.5-3.5,1.1-7.1,1.3-10.6
				c0.3-3.5,0.5-7,0.3-10.3c-0.2-3.3-0.7-6.5-1.9-9.2c-1.2-2.7-3.1-4.9-5.2-6.4c-2.1-1.5-4.4-2.5-6.5-3.2c-2-0.8-3.9-1.3-5.4-1.7
				c-1.5-0.4-2.7-0.7-3.5-0.9C252.9,62.4,252.5,62.3,252.5,62.3z"/>
		</g>
	</g>
</g>
</svg>
