<?xml version="1.0" encoding="utf-8"?>
<!-- Generator: Adobe Illustrator 18.1.0, SVG Export Plug-In . SVG Version: 6.00 Build 0)  -->
<svg version="1.1" id="Layer_1" xmlns="http://www.w3.org/2000/svg" xmlns:xlink="http://www.w3.org/1999/xlink" x="0px" y="0px"
	 viewBox="0 0 343 314" enable-background="new 0 0 343 314" xml:space="preserve">
<g>
	<rect width="343" height="50"/>
	<g>
		<g>
			<path fill="#F7E82E" d="M35.9,36.1l-0.7,0.4c-1.2,0.6-2.7,0.1-3.3-1.1l-9-17.8c-0.6-1.2-0.1-2.7,1.1-3.3l12.1-6.2
				c1.2-0.6,2.7-0.1,3.3,1.1L47.7,27c0.6,1.2,0.9,2.7-0.3,3.3l-8.2,4.2"/>
			<path fill="#FFFFFF" d="M36,36.2c0,0-0.3,0.1-0.8,0.4c-0.5,0.3-1.5,0.4-2.4-0.2c-0.5-0.3-0.8-0.8-1.1-1.4c-0.3-0.6-0.6-1.2-1-1.9
				c-0.7-1.3-1.5-2.8-2.3-4.5c-1.7-3.3-3.6-7.1-5.7-11.2c-0.5-1.2,0-2.6,1.1-3.3c1.1-0.5,2.1-1.1,3.2-1.6c2.1-1.1,4.3-2.2,6.5-3.3
				l1.6-0.8c0.5-0.3,1-0.6,1.8-0.7c0.7-0.1,1.4,0.1,1.9,0.5c0.3,0.2,0.5,0.4,0.7,0.7c0.2,0.3,0.3,0.6,0.4,0.8c1,2.2,2,4.3,3,6.4
				c1,2.1,1.9,4.1,2.8,6c0.9,1.9,1.7,3.7,2.4,5.4c0.2,0.4,0.3,0.9,0.2,1.4c0,0.5-0.2,1-0.6,1.3c-0.4,0.3-0.8,0.4-1.1,0.6
				c-0.4,0.2-0.7,0.3-1,0.5c-1.3,0.7-2.5,1.2-3.5,1.7c-1.9,0.9-3,1.5-3,1.5l0-0.1c0,0,1.1-0.6,3-1.6c0.9-0.5,2.1-1.1,3.4-1.8
				c0.3-0.2,0.7-0.4,1-0.5c0.3-0.2,0.8-0.4,1-0.6c0.6-0.5,0.5-1.4,0.2-2.2c-0.8-1.6-1.6-3.4-2.6-5.3c-0.9-1.9-1.8-3.9-2.8-6
				c-1-2.1-2-4.2-3-6.4c-0.3-0.6-0.5-1-0.9-1.4c-0.4-0.3-1-0.5-1.5-0.4c-0.5,0-1,0.4-1.6,0.7l-1.6,0.8c-2.2,1.1-4.4,2.2-6.5,3.3
				c-1.1,0.5-2.1,1.1-3.2,1.6c-1,0.5-1.4,1.8-1,2.8c2.1,4.1,4,7.9,5.6,11.2c0.8,1.6,1.6,3.1,2.2,4.5c0.3,0.7,0.6,1.3,0.9,1.9
				c0.3,0.6,0.6,1.1,1,1.4c0.9,0.6,1.8,0.4,2.3,0.2C35.7,36.2,35.9,36.1,36,36.2L36,36.2z"/>
		</g>
		<g>
			<path fill="#E4262A" d="M31.5,34.1l-7.2-18.9c-0.5-1.3,0.2-2.7,1.4-3.2l12.9-4.9c1.3-0.5,2.7,0.2,3.2,1.4l5.4,18.9
				c0.5,1.3,1.1,2.7-0.1,3.2l-8.2,3.3L37,37.8l-1.5-2.6l-0.8,0.3C33.4,36,32,35.3,31.5,34.1z"/>
			<path fill="#FFFFFF" d="M31.5,34.1c-1.2-3.2-2.5-6.5-3.8-9.7l-1.9-4.8l-1-2.4l-0.5-1.2c-0.2-0.4-0.4-0.8-0.4-1.3
				c-0.1-0.9,0.3-1.9,1.1-2.4c0.4-0.3,0.8-0.4,1.2-0.6l1.2-0.5l4.9-1.9l4.9-1.9l1.2-0.5c0.4-0.2,1-0.2,1.4-0.2
				c1,0.1,1.8,0.8,2.2,1.7l0,0l0,0l2.8,9.4l2.7,9.4l0,0c0.2,0.5,0.4,1,0.5,1.5c0.1,0.3,0.1,0.6,0.1,0.9c0,0.3-0.2,0.7-0.4,0.9
				c-0.3,0.2-0.6,0.3-0.8,0.4l-0.7,0.3l-1.4,0.6c-1.9,0.8-3.9,1.5-5.8,2.2l0.1-0.1l-2,3.9L37,38.1l-0.1-0.2l-1.4-2.7l0.1,0
				c-0.4,0.1-0.7,0.3-1.1,0.4c-0.4,0.1-0.8,0.1-1.2,0C32.4,35.4,31.8,34.8,31.5,34.1z M31.6,34c0.3,0.7,0.9,1.3,1.7,1.5
				c0.4,0.1,0.8,0.1,1.1,0c0.4-0.1,0.7-0.3,1.1-0.4l0.1,0l0,0.1l1.5,2.6l-0.3,0l1.8-4l0-0.1l0.1,0c1.9-0.8,3.8-1.7,5.7-2.5l1.4-0.6
				l0.7-0.3c0.3-0.1,0.4-0.2,0.6-0.3c0.2-0.2,0.2-0.6,0.1-1.1c-0.1-0.5-0.3-0.9-0.5-1.4l0,0l0,0l-2.7-9.4l-2.6-9.4l0,0
				c-0.3-0.7-0.9-1.3-1.7-1.4c-0.4-0.1-0.7,0-1.1,0.1l-1.2,0.5l-4.9,1.8l-4.9,1.8L26.5,12c-0.4,0.2-0.8,0.3-1.1,0.5
				c-0.7,0.4-1,1.3-1,2.1c0,0.4,0.2,0.8,0.4,1.2l0.5,1.2l0.9,2.4l1.8,4.9C29.1,27.5,30.3,30.8,31.6,34z"/>
		</g>
		<g>
			<path d="M31.2,35.2L26.6,16c-0.3-1.3,0.5-2.6,1.8-2.9l13.2-3.1c1.3-0.3,2.6,0.5,2.9,1.8L49.1,31c0.3,1.3-0.5,2.6-1.8,2.9L38.4,36
				L36,39.6l-1.1-2.8L34.1,37C32.8,37.3,31.5,36.5,31.2,35.2z"/>
			<path fill="#FFFFFF" d="M31.1,35.3l-1.1-4.5c-0.3-1.5-0.8-3-1.1-4.5l-2.3-8.9l-0.3-1.1L26.3,16c0-0.1,0-0.2-0.1-0.3
				c0-0.2,0-0.4,0-0.7c0.1-0.9,0.7-1.7,1.5-2.1c0.2-0.1,0.4-0.2,0.6-0.2l0.6-0.1l1.1-0.3l2.2-0.6l8.9-2.2l0.3-0.1
				c0.1,0,0.2,0,0.3-0.1c0.3,0,0.5,0,0.7,0c0.5,0,0.9,0.2,1.3,0.5c0.4,0.3,0.7,0.6,0.9,1c0.1,0.2,0.2,0.4,0.3,0.7l0.1,0.6l1.1,4.5
				l2.2,8.9c0.4,1.5,0.7,3,1.1,4.5c0.1,0.4,0.2,0.7,0.3,1.2c0.1,0.6,0,1-0.2,1.5c-0.4,0.9-1.2,1.7-2.1,1.9l-4.5,1
				c-1.5,0.3-3,0.6-4.5,0.9l0.3-0.2l-2.5,3.5L36,40.1l-0.2-0.5c-0.3-0.9-0.7-1.9-1-2.8l0.2,0.1l-0.6,0.1c-0.2,0-0.4,0.1-0.6,0.1
				c-0.4,0-0.8,0-1.2-0.2C31.9,36.7,31.3,36,31.1,35.3z M31.3,35.2c0.2,0.7,0.7,1.3,1.4,1.6C33,37,33.4,37,33.8,37
				c0.2,0,0.4-0.1,0.5-0.1l0.6-0.1l0.1,0l0.1,0.1c0.4,0.9,0.8,1.8,1.2,2.7l-0.5,0l2.2-3.7l0.1-0.1l0.2,0c1.5-0.4,3-0.8,4.4-1.2
				l4.4-1.2c0.5-0.1,1-0.5,1.2-1.1c0.1-0.2,0.1-0.6,0.1-0.8c0-0.3-0.2-0.7-0.2-1.1c-0.4-1.5-0.7-3-1.1-4.5l-2-9l-1-4.5l-0.1-0.5
				c0-0.1-0.1-0.3-0.2-0.4c-0.1-0.3-0.3-0.5-0.6-0.7c-0.2-0.2-0.5-0.3-0.8-0.3c-0.1,0-0.3,0-0.4,0c-0.1,0-0.2,0-0.2,0l-0.3,0.1
				l-9,2.1L30.2,13L29,13.3l-0.6,0.1c-0.2,0-0.3,0.1-0.5,0.2c-0.6,0.3-1,0.9-1.1,1.5c-0.1,0.6,0.2,1.4,0.3,2.1l2,9
				c0.3,1.5,0.7,3,1,4.5L31.3,35.2z"/>
		</g>
		<g>
			<path fill="#FFFFFF" d="M35.4,25.4l-3.6,0.8l-1.8-8l3.6-0.8c1.9-0.4,3,0,3.3,1.5c0.2,0.8,0,1.3-0.5,1.8l0,0.1
				c0.7,0.2,1.2,0.6,1.5,1.6C38.1,23.9,37.5,24.9,35.4,25.4z M33.5,19.5l-0.4,0.1l0.3,1.4l0.4-0.1c0.3-0.1,0.4-0.3,0.3-0.8
				C34,19.5,33.9,19.4,33.5,19.5z M34.2,22.3l-0.4,0.1l0.4,1.6l0.4-0.1c0.4-0.1,0.5-0.3,0.4-0.9C34.8,22.4,34.6,22.2,34.2,22.3z"/>
			<path fill="#FFFFFF" d="M39,24.6l-1.8-8l5.3-1.2l0.3,2.2l-2.3,0.5l0.2,1l2-0.5l0.4,1.9l-2,0.5l0.2,1.1l2.5-0.6l0.3,2L39,24.6z"/>
		</g>
		<g>
			<g>
				<path fill="#FFFFFF" d="M37.7,28.8l1.1,1.8l-1.6,0.3l-0.8-1.4l-0.1,0l0.3,1.5l-1.5,0.3l-1-4.5l1.9-0.4c1.1-0.2,1.7,0.1,1.9,1.1
					C38.2,28.2,38.1,28.5,37.7,28.8z M36.1,27.7l-0.2,0l0.2,0.9l0.2,0c0.2,0,0.3-0.2,0.2-0.5C36.4,27.8,36.3,27.7,36.1,27.7z"/>
				<path fill="#FFFFFF" d="M39.2,30.5l-1-4.5l3-0.6l0.2,1.2l-1.3,0.3l0.1,0.5l1.1-0.2l0.2,1l-1.1,0.2l0.1,0.6l1.4-0.3l0.1,1.1
					L39.2,30.5z"/>
				<path fill="#FFFFFF" d="M43.4,26.2l0.1,0.6l1-0.2l0.2,1l-1,0.2l0.3,1.6l-1.5,0.3l-1-4.5l3-0.6l0.2,1.2L43.4,26.2z"/>
			</g>
		</g>
		<g>
			<g>
				<path fill="#FFFFFF" d="M34.3,30.9l0.1,0.4L33,31.6l0.1,0.5l-0.3,0.1l-0.3-1.3l0.3-0.1l0.1,0.5L34.3,30.9z"/>
				<path fill="#FFFFFF" d="M33.9,28.7l0.1,0.4l-0.8,0.2l0.2,0.7l0.8-0.2l0.1,0.4l-1.8,0.4l-0.1-0.4L33,30l-0.2-0.7l-0.7,0.2
					l-0.1-0.4L33.9,28.7z"/>
				<path fill="#FFFFFF" d="M33.5,27.3l0.2,1L32,28.7l-0.2-1l0.3-0.1l0.1,0.6l0.4-0.1l-0.1-0.6l0.3-0.1l0.1,0.6l0.5-0.1l-0.1-0.6
					L33.5,27.3z"/>
			</g>
		</g>
	</g>
	<g>
		<path fill="#FFFFFF" d="M11.7,29.2H0.2v3.9h11.5c1.1,0,2-1,2-2S12.8,29.2,11.7,29.2z"/>
		<path fill="#FFFFFF" d="M11.7,23.3H0.2v3.9h11.5c1.1,0,2-1,2-2C13.6,24.3,12.8,23.3,11.7,23.3z"/>
		<path fill="#FFFFFF" d="M11.7,17.4H0.2v3.9h11.5c1.1,0,2-1,2-2C13.6,18.4,12.8,17.4,11.7,17.4z"/>
	</g>
	<rect y="48" opacity="0.98" width="157" height="266"/>
	<rect x="4.9" y="57" opacity="0.1" fill="#8CBF43" width="5" height="23.8"/>
	<rect x="12.5" y="281.2" opacity="0.1" fill="#FFFFFF" width="137.7" height="23.8"/>
	<rect x="4.9" y="87.8" opacity="0.1" fill="#8CBF43" width="5" height="23.8"/>
	<rect x="4.9" y="119.7" opacity="0.1" fill="#8CBF43" width="5" height="23.8"/>
	<rect x="4.9" y="152.1" opacity="0.1" fill="#8CBF43" width="5" height="23.8"/>
	<rect x="4.9" y="184.6" opacity="0.1" fill="#8CBF43" width="5" height="23.8"/>
	<rect x="4.9" y="216.5" opacity="0.1" fill="#8CBF43" width="5" height="23.8"/>
	<rect x="4.9" y="248" opacity="0.1" fill="#8CBF43" width="5" height="23.8"/>
	<rect x="4.9" y="280.9" opacity="0.1" fill="#8CBF43" width="5" height="23.8"/>
	<g>
		<path fill="#FFFFFF" d="M25.1,71.3h-0.8v-3.1h-3.4v3.1h-0.8v-6.5h0.8v2.8h3.4v-2.8h0.8V71.3z"/>
		<path fill="#FFFFFF" d="M31.4,68.9c0,0.8-0.2,1.4-0.6,1.9c-0.4,0.4-1,0.7-1.7,0.7c-0.4,0-0.8-0.1-1.2-0.3
			c-0.3-0.2-0.6-0.5-0.8-0.9c-0.2-0.4-0.3-0.8-0.3-1.3c0-0.8,0.2-1.4,0.6-1.9c0.4-0.4,1-0.7,1.7-0.7c0.7,0,1.2,0.2,1.6,0.7
			C31.2,67.5,31.4,68.1,31.4,68.9z M27.7,68.9c0,0.6,0.1,1.1,0.4,1.4c0.2,0.3,0.6,0.5,1.1,0.5s0.9-0.2,1.1-0.5
			c0.3-0.3,0.4-0.8,0.4-1.4c0-0.6-0.1-1.1-0.4-1.4c-0.3-0.3-0.6-0.5-1.1-0.5c-0.5,0-0.8,0.2-1.1,0.5C27.9,67.8,27.7,68.3,27.7,68.9z
			"/>
		<path fill="#FFFFFF" d="M39.5,71.3v-3.2c0-0.4-0.1-0.7-0.2-0.9C39,67.1,38.8,67,38.4,67c-0.5,0-0.8,0.1-1,0.4
			c-0.2,0.3-0.3,0.7-0.3,1.2v2.7h-0.7v-3.2c0-0.4-0.1-0.7-0.2-0.9c-0.2-0.2-0.4-0.3-0.8-0.3c-0.5,0-0.8,0.1-1,0.4
			c-0.2,0.3-0.3,0.7-0.3,1.4v2.6h-0.7v-4.9h0.6l0.1,0.7h0c0.1-0.2,0.3-0.4,0.6-0.6c0.3-0.1,0.5-0.2,0.9-0.2c0.8,0,1.3,0.3,1.5,0.8h0
			c0.1-0.3,0.4-0.5,0.6-0.6c0.3-0.1,0.6-0.2,0.9-0.2c0.6,0,1,0.1,1.2,0.4c0.3,0.3,0.4,0.7,0.4,1.4v3.2H39.5z"/>
		<path fill="#FFFFFF" d="M44.3,71.4c-0.7,0-1.3-0.2-1.7-0.7c-0.4-0.4-0.6-1.1-0.6-1.8c0-0.8,0.2-1.4,0.6-1.9
			c0.4-0.5,0.9-0.7,1.6-0.7c0.6,0,1.1,0.2,1.5,0.6c0.4,0.4,0.5,0.9,0.5,1.6V69h-3.4c0,0.6,0.2,1,0.4,1.3c0.3,0.3,0.7,0.4,1.2,0.4
			c0.5,0,1-0.1,1.6-0.3v0.7c-0.3,0.1-0.5,0.2-0.7,0.2C44.9,71.4,44.6,71.4,44.3,71.4z M44.1,67c-0.4,0-0.7,0.1-0.9,0.4
			c-0.2,0.3-0.4,0.6-0.4,1.1h2.6c0-0.5-0.1-0.8-0.3-1.1C44.7,67.1,44.4,67,44.1,67z"/>
		<path fill="#FFFFFF" d="M20.1,103.3v-6.5h0.8v5.8h2.9v0.7H20.1z"/>
		<path fill="#FFFFFF" d="M25.2,97.1c0-0.2,0-0.3,0.1-0.4c0.1-0.1,0.2-0.1,0.3-0.1c0.1,0,0.2,0,0.3,0.1c0.1,0.1,0.1,0.2,0.1,0.4
			c0,0.2,0,0.3-0.1,0.4c-0.1,0.1-0.2,0.1-0.3,0.1c-0.1,0-0.2,0-0.3-0.1C25.2,97.4,25.2,97.2,25.2,97.1z M26,103.3h-0.7v-4.9H26
			V103.3z"/>
		<path fill="#FFFFFF" d="M29.1,103.3l-1.9-4.9H28l1.1,2.9c0.2,0.7,0.4,1.1,0.4,1.3h0c0-0.2,0.1-0.5,0.3-1c0.2-0.5,0.6-1.6,1.2-3.2
			h0.8l-1.9,4.9H29.1z"/>
		<path fill="#FFFFFF" d="M35.1,103.4c-0.7,0-1.3-0.2-1.7-0.7c-0.4-0.4-0.6-1.1-0.6-1.8c0-0.8,0.2-1.4,0.6-1.9
			c0.4-0.5,0.9-0.7,1.6-0.7c0.6,0,1.1,0.2,1.5,0.6c0.4,0.4,0.5,0.9,0.5,1.6v0.5h-3.4c0,0.6,0.2,1,0.4,1.3c0.3,0.3,0.7,0.4,1.2,0.4
			c0.5,0,1-0.1,1.6-0.3v0.7c-0.3,0.1-0.5,0.2-0.7,0.2C35.8,103.4,35.5,103.4,35.1,103.4z M34.9,98.9c-0.4,0-0.7,0.1-0.9,0.4
			c-0.2,0.3-0.4,0.6-0.4,1.1h2.6c0-0.5-0.1-0.8-0.3-1.1C35.6,99.1,35.3,98.9,34.9,98.9z"/>
		<path fill="#FFFFFF" d="M44.5,103.3l-2.2-5.8h0c0,0.5,0.1,1,0.1,1.6v4.1h-0.7v-6.5h1.1l2.1,5.4h0l2.1-5.4h1.1v6.5h-0.8v-4.2
			c0-0.5,0-1,0.1-1.6h0l-2.2,5.8H44.5z"/>
		<path fill="#FFFFFF" d="M53.3,103.3l-0.1-0.7h0c-0.2,0.3-0.5,0.5-0.7,0.6c-0.2,0.1-0.5,0.2-0.9,0.2c-0.5,0-0.9-0.1-1.1-0.4
			c-0.3-0.3-0.4-0.6-0.4-1.1c0-1,0.8-1.5,2.4-1.6l0.8,0v-0.3c0-0.4-0.1-0.7-0.2-0.8c-0.2-0.2-0.4-0.3-0.8-0.3
			c-0.4,0-0.9,0.1-1.4,0.4l-0.2-0.6c0.2-0.1,0.5-0.2,0.8-0.3c0.3-0.1,0.6-0.1,0.9-0.1c0.6,0,1,0.1,1.3,0.4c0.3,0.3,0.4,0.7,0.4,1.2
			v3.3H53.3z M51.6,102.8c0.5,0,0.8-0.1,1.1-0.4c0.3-0.3,0.4-0.6,0.4-1.1v-0.4l-0.7,0c-0.6,0-1,0.1-1.3,0.3s-0.4,0.4-0.4,0.8
			c0,0.3,0.1,0.5,0.2,0.6C51.1,102.7,51.3,102.8,51.6,102.8z"/>
		<path fill="#FFFFFF" d="M57.4,102.8c0.1,0,0.3,0,0.4,0c0.1,0,0.2,0,0.3-0.1v0.6c-0.1,0-0.2,0.1-0.4,0.1c-0.2,0-0.3,0-0.4,0
			c-0.9,0-1.4-0.5-1.4-1.5V99h-0.7v-0.4l0.7-0.3l0.3-1h0.4v1.1H58V99h-1.4v2.9c0,0.3,0.1,0.5,0.2,0.7
			C57,102.7,57.2,102.8,57.4,102.8z"/>
		<path fill="#FFFFFF" d="M61.5,103.4c-0.7,0-1.3-0.2-1.6-0.7c-0.4-0.4-0.6-1-0.6-1.8c0-0.8,0.2-1.4,0.6-1.9c0.4-0.4,1-0.7,1.7-0.7
			c0.2,0,0.5,0,0.7,0.1s0.4,0.1,0.6,0.2l-0.2,0.6c-0.2-0.1-0.3-0.1-0.5-0.2c-0.2,0-0.4-0.1-0.5-0.1c-1,0-1.5,0.6-1.5,1.9
			c0,0.6,0.1,1.1,0.4,1.4c0.2,0.3,0.6,0.5,1.1,0.5c0.4,0,0.8-0.1,1.3-0.3v0.7C62.4,103.3,62,103.4,61.5,103.4z"/>
		<path fill="#FFFFFF" d="M67.7,103.3v-3.2c0-0.4-0.1-0.7-0.3-0.9c-0.2-0.2-0.5-0.3-0.9-0.3c-0.5,0-0.9,0.1-1.1,0.4
			c-0.2,0.3-0.4,0.7-0.4,1.4v2.6h-0.7v-6.9h0.7v2.1c0,0.3,0,0.5,0,0.6h0c0.1-0.2,0.4-0.4,0.6-0.6c0.3-0.1,0.6-0.2,0.9-0.2
			c0.6,0,1,0.1,1.3,0.4s0.4,0.7,0.4,1.4v3.2H67.7z"/>
		<path fill="#FFFFFF" d="M72.5,103.4c-0.7,0-1.3-0.2-1.7-0.7c-0.4-0.4-0.6-1.1-0.6-1.8c0-0.8,0.2-1.4,0.6-1.9
			c0.4-0.5,0.9-0.7,1.6-0.7c0.6,0,1.1,0.2,1.5,0.6c0.4,0.4,0.5,0.9,0.5,1.6v0.5h-3.4c0,0.6,0.2,1,0.4,1.3c0.3,0.3,0.7,0.4,1.2,0.4
			c0.5,0,1-0.1,1.6-0.3v0.7c-0.3,0.1-0.5,0.2-0.7,0.2C73.1,103.4,72.8,103.4,72.5,103.4z M72.3,98.9c-0.4,0-0.7,0.1-0.9,0.4
			c-0.2,0.3-0.4,0.6-0.4,1.1h2.6c0-0.5-0.1-0.8-0.3-1.1C73,99.1,72.7,98.9,72.3,98.9z"/>
		<path fill="#FFFFFF" d="M79.2,102c0,0.5-0.2,0.8-0.5,1.1s-0.8,0.4-1.4,0.4c-0.6,0-1.2-0.1-1.5-0.3v-0.7c0.2,0.1,0.5,0.2,0.8,0.3
			c0.3,0.1,0.5,0.1,0.8,0.1c0.4,0,0.7-0.1,0.9-0.2c0.2-0.1,0.3-0.3,0.3-0.6c0-0.2-0.1-0.4-0.2-0.5c-0.2-0.1-0.5-0.3-1-0.5
			c-0.5-0.2-0.8-0.3-1-0.4s-0.3-0.3-0.4-0.4c-0.1-0.2-0.1-0.4-0.1-0.6c0-0.4,0.2-0.7,0.5-0.9c0.3-0.2,0.8-0.3,1.3-0.3
			c0.5,0,1,0.1,1.5,0.3l-0.3,0.6c-0.5-0.2-0.9-0.3-1.3-0.3c-0.4,0-0.6,0.1-0.8,0.2c-0.2,0.1-0.3,0.3-0.3,0.5c0,0.1,0,0.2,0.1,0.3
			c0.1,0.1,0.2,0.2,0.3,0.3c0.1,0.1,0.4,0.2,0.9,0.4c0.6,0.2,1,0.4,1.2,0.6C79.1,101.4,79.2,101.6,79.2,102z"/>
		<path fill="#FFFFFF" d="M24.3,130.6c0,0.7-0.2,1.2-0.7,1.5c-0.5,0.4-1.1,0.5-1.9,0.5h-0.8v2.6h-0.8v-6.5h1.7
			C23.4,128.7,24.3,129.3,24.3,130.6z M20.9,132h0.7c0.7,0,1.2-0.1,1.5-0.3c0.3-0.2,0.4-0.6,0.4-1c0-0.4-0.1-0.8-0.4-1
			c-0.3-0.2-0.7-0.3-1.3-0.3h-0.8V132z"/>
		<path fill="#FFFFFF" d="M28.1,135.3c-0.7,0-1.3-0.2-1.7-0.7c-0.4-0.4-0.6-1.1-0.6-1.8c0-0.8,0.2-1.4,0.6-1.9
			c0.4-0.5,0.9-0.7,1.6-0.7c0.6,0,1.1,0.2,1.5,0.6c0.4,0.4,0.5,0.9,0.5,1.6v0.5h-3.4c0,0.6,0.2,1,0.4,1.3c0.3,0.3,0.7,0.4,1.2,0.4
			c0.5,0,1-0.1,1.6-0.3v0.7c-0.3,0.1-0.5,0.2-0.7,0.2C28.7,135.3,28.4,135.3,28.1,135.3z M27.9,130.9c-0.4,0-0.7,0.1-0.9,0.4
			c-0.2,0.3-0.4,0.6-0.4,1.1h2.6c0-0.5-0.1-0.8-0.3-1.1C28.5,131,28.2,130.9,27.9,130.9z"/>
		<path fill="#FFFFFF" d="M33.8,130.3c0.2,0,0.4,0,0.6,0.1l-0.1,0.7c-0.2,0-0.4-0.1-0.5-0.1c-0.4,0-0.7,0.2-1,0.5
			c-0.3,0.3-0.4,0.7-0.4,1.2v2.6h-0.7v-4.9h0.6l0.1,0.9h0c0.2-0.3,0.4-0.6,0.7-0.7C33.2,130.3,33.5,130.3,33.8,130.3z"/>
		<path fill="#FFFFFF" d="M38,130.9h-1.2v4.3H36v-4.3h-0.9v-0.3l0.9-0.3V130c0-1.2,0.5-1.8,1.6-1.8c0.3,0,0.6,0.1,0.9,0.2l-0.2,0.6
			c-0.3-0.1-0.5-0.1-0.7-0.1c-0.3,0-0.5,0.1-0.6,0.3c-0.1,0.2-0.2,0.5-0.2,0.9v0.3H38V130.9z"/>
		<path fill="#FFFFFF" d="M43.6,132.8c0,0.8-0.2,1.4-0.6,1.9c-0.4,0.4-1,0.7-1.7,0.7c-0.4,0-0.8-0.1-1.2-0.3
			c-0.3-0.2-0.6-0.5-0.8-0.9c-0.2-0.4-0.3-0.8-0.3-1.3c0-0.8,0.2-1.4,0.6-1.9c0.4-0.4,1-0.7,1.7-0.7c0.7,0,1.2,0.2,1.6,0.7
			S43.6,132,43.6,132.8z M39.9,132.8c0,0.6,0.1,1.1,0.4,1.4s0.6,0.5,1.1,0.5s0.9-0.2,1.1-0.5c0.3-0.3,0.4-0.8,0.4-1.4
			c0-0.6-0.1-1.1-0.4-1.4c-0.3-0.3-0.6-0.5-1.1-0.5c-0.5,0-0.8,0.2-1.1,0.5C40,131.7,39.9,132.2,39.9,132.8z"/>
		<path fill="#FFFFFF" d="M47.6,130.3c0.2,0,0.4,0,0.6,0.1l-0.1,0.7c-0.2,0-0.4-0.1-0.5-0.1c-0.4,0-0.7,0.2-1,0.5
			c-0.3,0.3-0.4,0.7-0.4,1.2v2.6h-0.7v-4.9H46l0.1,0.9h0c0.2-0.3,0.4-0.6,0.7-0.7C47,130.3,47.3,130.3,47.6,130.3z"/>
		<path fill="#FFFFFF" d="M55.8,135.2v-3.2c0-0.4-0.1-0.7-0.2-0.9c-0.2-0.2-0.4-0.3-0.8-0.3c-0.5,0-0.8,0.1-1,0.4
			c-0.2,0.3-0.3,0.7-0.3,1.2v2.7h-0.7v-3.2c0-0.4-0.1-0.7-0.2-0.9c-0.2-0.2-0.4-0.3-0.8-0.3c-0.5,0-0.8,0.1-1,0.4
			c-0.2,0.3-0.3,0.7-0.3,1.4v2.6h-0.7v-4.9h0.6l0.1,0.7h0c0.1-0.2,0.3-0.4,0.6-0.6c0.3-0.1,0.5-0.2,0.9-0.2c0.8,0,1.3,0.3,1.5,0.8h0
			c0.1-0.3,0.4-0.5,0.6-0.6c0.3-0.1,0.6-0.2,0.9-0.2c0.6,0,1,0.1,1.2,0.4c0.3,0.3,0.4,0.7,0.4,1.4v3.2H55.8z"/>
		<path fill="#FFFFFF" d="M61.6,135.2l-0.1-0.7h0c-0.2,0.3-0.5,0.5-0.7,0.6c-0.2,0.1-0.5,0.2-0.9,0.2c-0.5,0-0.9-0.1-1.1-0.4
			c-0.3-0.3-0.4-0.6-0.4-1.1c0-1,0.8-1.5,2.4-1.6l0.8,0V132c0-0.4-0.1-0.7-0.2-0.8c-0.2-0.2-0.4-0.3-0.8-0.3c-0.4,0-0.9,0.1-1.4,0.4
			l-0.2-0.6c0.2-0.1,0.5-0.2,0.8-0.3c0.3-0.1,0.6-0.1,0.9-0.1c0.6,0,1,0.1,1.3,0.4c0.3,0.3,0.4,0.7,0.4,1.2v3.3H61.6z M59.9,134.7
			c0.5,0,0.8-0.1,1.1-0.4c0.3-0.3,0.4-0.6,0.4-1.1v-0.4l-0.7,0c-0.6,0-1,0.1-1.3,0.3c-0.3,0.2-0.4,0.4-0.4,0.8
			c0,0.3,0.1,0.5,0.2,0.6C59.4,134.6,59.6,134.7,59.9,134.7z"/>
		<path fill="#FFFFFF" d="M67.5,135.2v-3.2c0-0.4-0.1-0.7-0.3-0.9c-0.2-0.2-0.5-0.3-0.9-0.3c-0.5,0-0.9,0.1-1.1,0.4
			c-0.2,0.3-0.4,0.7-0.4,1.4v2.6h-0.7v-4.9h0.6l0.1,0.7h0c0.2-0.2,0.4-0.4,0.6-0.6c0.3-0.1,0.6-0.2,0.9-0.2c0.6,0,1,0.1,1.3,0.4
			c0.3,0.3,0.4,0.7,0.4,1.4v3.2H67.5z"/>
		<path fill="#FFFFFF" d="M72.2,135.3c-0.7,0-1.3-0.2-1.6-0.7c-0.4-0.4-0.6-1-0.6-1.8c0-0.8,0.2-1.4,0.6-1.9c0.4-0.4,1-0.7,1.7-0.7
			c0.2,0,0.5,0,0.7,0.1s0.4,0.1,0.6,0.2l-0.2,0.6c-0.2-0.1-0.3-0.1-0.5-0.2c-0.2,0-0.4-0.1-0.5-0.1c-1,0-1.5,0.6-1.5,1.9
			c0,0.6,0.1,1.1,0.4,1.4c0.2,0.3,0.6,0.5,1.1,0.5c0.4,0,0.8-0.1,1.3-0.3v0.7C73.1,135.2,72.7,135.3,72.2,135.3z"/>
		<path fill="#FFFFFF" d="M77.1,135.3c-0.7,0-1.3-0.2-1.7-0.7c-0.4-0.4-0.6-1.1-0.6-1.8c0-0.8,0.2-1.4,0.6-1.9
			c0.4-0.5,0.9-0.7,1.6-0.7c0.6,0,1.1,0.2,1.5,0.6c0.4,0.4,0.5,0.9,0.5,1.6v0.5h-3.4c0,0.6,0.2,1,0.4,1.3c0.3,0.3,0.7,0.4,1.2,0.4
			c0.5,0,1-0.1,1.6-0.3v0.7c-0.3,0.1-0.5,0.2-0.7,0.2C77.7,135.3,77.4,135.3,77.1,135.3z M76.9,130.9c-0.4,0-0.7,0.1-0.9,0.4
			c-0.2,0.3-0.4,0.6-0.4,1.1h2.6c0-0.5-0.1-0.8-0.3-1.1C77.6,131,77.3,130.9,76.9,130.9z"/>
		<path fill="#FFFFFF" d="M83.8,133.9c0,0.5-0.2,0.8-0.5,1.1s-0.8,0.4-1.4,0.4c-0.6,0-1.2-0.1-1.5-0.3v-0.7c0.2,0.1,0.5,0.2,0.8,0.3
			c0.3,0.1,0.5,0.1,0.8,0.1c0.4,0,0.7-0.1,0.9-0.2c0.2-0.1,0.3-0.3,0.3-0.6c0-0.2-0.1-0.4-0.2-0.5c-0.2-0.1-0.5-0.3-1-0.5
			c-0.5-0.2-0.8-0.3-1-0.4s-0.3-0.3-0.4-0.4c-0.1-0.2-0.1-0.4-0.1-0.6c0-0.4,0.2-0.7,0.5-0.9c0.3-0.2,0.8-0.3,1.3-0.3
			c0.5,0,1,0.1,1.5,0.3l-0.3,0.6c-0.5-0.2-0.9-0.3-1.3-0.3c-0.4,0-0.6,0.1-0.8,0.2c-0.2,0.1-0.3,0.3-0.3,0.5c0,0.1,0,0.2,0.1,0.3
			s0.2,0.2,0.3,0.3c0.1,0.1,0.4,0.2,0.9,0.4c0.6,0.2,1,0.4,1.2,0.6C83.7,133.3,83.8,133.6,83.8,133.9z"/>
		<path fill="#FFFFFF" d="M20.9,167.2h-0.8v-6.5h3.6v0.7h-2.9v2.4h2.7v0.7h-2.7V167.2z"/>
		<path fill="#FFFFFF" d="M25.1,161c0-0.2,0-0.3,0.1-0.4c0.1-0.1,0.2-0.1,0.3-0.1c0.1,0,0.2,0,0.3,0.1c0.1,0.1,0.1,0.2,0.1,0.4
			c0,0.2,0,0.3-0.1,0.4c-0.1,0.1-0.2,0.1-0.3,0.1c-0.1,0-0.2,0-0.3-0.1C25.2,161.3,25.1,161.1,25.1,161z M25.9,167.2h-0.7v-4.9h0.7
			V167.2z"/>
		<path fill="#FFFFFF" d="M29.2,164.7l-1.7-2.4h0.8l1.3,1.9l1.3-1.9h0.8l-1.7,2.4l1.8,2.5H31l-1.4-2l-1.4,2h-0.8L29.2,164.7z"/>
		<path fill="#FFFFFF" d="M34.8,166.7c0.1,0,0.3,0,0.4,0c0.1,0,0.2,0,0.3-0.1v0.6c-0.1,0-0.2,0.1-0.4,0.1c-0.2,0-0.3,0-0.4,0
			c-0.9,0-1.4-0.5-1.4-1.5v-2.9h-0.7v-0.4l0.7-0.3l0.3-1h0.4v1.1h1.4v0.6h-1.4v2.9c0,0.3,0.1,0.5,0.2,0.7
			C34.4,166.6,34.6,166.7,34.8,166.7z"/>
		<path fill="#FFFFFF" d="M37.7,162.3v3.2c0,0.4,0.1,0.7,0.3,0.9s0.5,0.3,0.9,0.3c0.5,0,0.9-0.1,1.1-0.4c0.2-0.3,0.4-0.7,0.4-1.4
			v-2.6H41v4.9h-0.6l-0.1-0.7h0c-0.2,0.2-0.4,0.4-0.6,0.6c-0.3,0.1-0.6,0.2-0.9,0.2c-0.6,0-1-0.1-1.3-0.4c-0.3-0.3-0.4-0.7-0.4-1.4
			v-3.2H37.7z"/>
		<path fill="#FFFFFF" d="M45.3,162.2c0.2,0,0.4,0,0.6,0.1l-0.1,0.7c-0.2,0-0.4-0.1-0.5-0.1c-0.4,0-0.7,0.2-1,0.5
			c-0.3,0.3-0.4,0.7-0.4,1.2v2.6h-0.7v-4.9h0.6l0.1,0.9h0c0.2-0.3,0.4-0.6,0.7-0.7C44.7,162.3,45,162.2,45.3,162.2z"/>
		<path fill="#FFFFFF" d="M49.3,167.3c-0.7,0-1.3-0.2-1.7-0.7c-0.4-0.4-0.6-1.1-0.6-1.8c0-0.8,0.2-1.4,0.6-1.9
			c0.4-0.5,0.9-0.7,1.6-0.7c0.6,0,1.1,0.2,1.5,0.6c0.4,0.4,0.5,0.9,0.5,1.6v0.5h-3.4c0,0.6,0.2,1,0.4,1.3c0.3,0.3,0.7,0.4,1.2,0.4
			c0.5,0,1-0.1,1.6-0.3v0.7c-0.3,0.1-0.5,0.2-0.7,0.2C49.9,167.2,49.7,167.3,49.3,167.3z M49.1,162.8c-0.4,0-0.7,0.1-0.9,0.4
			c-0.2,0.3-0.4,0.6-0.4,1.1h2.6c0-0.5-0.1-0.8-0.3-1.1C49.8,162.9,49.5,162.8,49.1,162.8z"/>
		<path fill="#FFFFFF" d="M56,165.8c0,0.5-0.2,0.8-0.5,1.1s-0.8,0.4-1.4,0.4c-0.6,0-1.2-0.1-1.5-0.3v-0.7c0.2,0.1,0.5,0.2,0.8,0.3
			c0.3,0.1,0.5,0.1,0.8,0.1c0.4,0,0.7-0.1,0.9-0.2c0.2-0.1,0.3-0.3,0.3-0.6c0-0.2-0.1-0.4-0.2-0.5c-0.2-0.1-0.5-0.3-1-0.5
			c-0.5-0.2-0.8-0.3-1-0.4s-0.3-0.3-0.4-0.4c-0.1-0.2-0.1-0.4-0.1-0.6c0-0.4,0.2-0.7,0.5-0.9c0.3-0.2,0.8-0.3,1.3-0.3
			c0.5,0,1,0.1,1.5,0.3l-0.3,0.6c-0.5-0.2-0.9-0.3-1.3-0.3c-0.4,0-0.6,0.1-0.8,0.2c-0.2,0.1-0.3,0.3-0.3,0.5c0,0.1,0,0.2,0.1,0.3
			c0.1,0.1,0.2,0.2,0.3,0.3c0.1,0.1,0.4,0.2,0.9,0.4c0.6,0.2,1,0.4,1.2,0.6C55.9,165.2,56,165.5,56,165.8z"/>
		<path fill="#FFFFFF" d="M20.1,199.1v-6.5h0.8v5.8h2.9v0.7H20.1z"/>
		<path fill="#FFFFFF" d="M27.3,199.2c-0.7,0-1.3-0.2-1.7-0.7c-0.4-0.4-0.6-1.1-0.6-1.8c0-0.8,0.2-1.4,0.6-1.9
			c0.4-0.5,0.9-0.7,1.6-0.7c0.6,0,1.1,0.2,1.5,0.6c0.4,0.4,0.5,0.9,0.5,1.6v0.5h-3.4c0,0.6,0.2,1,0.4,1.3c0.3,0.3,0.7,0.4,1.2,0.4
			c0.5,0,1-0.1,1.6-0.3v0.7c-0.3,0.1-0.5,0.2-0.7,0.2C27.9,199.2,27.6,199.2,27.3,199.2z M27.1,194.8c-0.4,0-0.7,0.1-0.9,0.4
			c-0.2,0.3-0.4,0.6-0.4,1.1h2.6c0-0.5-0.1-0.8-0.3-1.1S27.5,194.8,27.1,194.8z"/>
		<path fill="#FFFFFF" d="M33.8,199.1l-0.1-0.7h0c-0.2,0.3-0.5,0.5-0.7,0.6c-0.2,0.1-0.5,0.2-0.9,0.2c-0.5,0-0.9-0.1-1.1-0.4
			c-0.3-0.3-0.4-0.6-0.4-1.1c0-1,0.8-1.5,2.4-1.6l0.8,0v-0.3c0-0.4-0.1-0.7-0.2-0.8c-0.2-0.2-0.4-0.3-0.8-0.3
			c-0.4,0-0.9,0.1-1.4,0.4l-0.2-0.6c0.2-0.1,0.5-0.2,0.8-0.3c0.3-0.1,0.6-0.1,0.9-0.1c0.6,0,1,0.1,1.3,0.4c0.3,0.3,0.4,0.7,0.4,1.2
			v3.3H33.8z M32.2,198.6c0.5,0,0.8-0.1,1.1-0.4c0.3-0.3,0.4-0.6,0.4-1.1v-0.4l-0.7,0c-0.6,0-1,0.1-1.3,0.3
			c-0.3,0.2-0.4,0.4-0.4,0.8c0,0.3,0.1,0.5,0.2,0.6C31.7,198.5,31.9,198.6,32.2,198.6z"/>
		<path fill="#FFFFFF" d="M40.4,194.2v0.5l-0.9,0.1c0.1,0.1,0.2,0.2,0.2,0.4c0.1,0.2,0.1,0.4,0.1,0.6c0,0.5-0.2,0.9-0.5,1.1
			c-0.3,0.3-0.8,0.4-1.3,0.4c-0.1,0-0.3,0-0.4,0c-0.3,0.2-0.5,0.4-0.5,0.6c0,0.1,0.1,0.2,0.2,0.3c0.1,0.1,0.3,0.1,0.6,0.1h0.9
			c0.5,0,0.9,0.1,1.2,0.3c0.3,0.2,0.4,0.5,0.4,1c0,0.5-0.2,1-0.6,1.2c-0.4,0.3-1.1,0.4-1.9,0.4c-0.6,0-1.1-0.1-1.5-0.4
			c-0.3-0.2-0.5-0.6-0.5-1c0-0.3,0.1-0.6,0.3-0.8c0.2-0.2,0.5-0.4,0.8-0.4c-0.1-0.1-0.2-0.1-0.3-0.3c-0.1-0.1-0.1-0.3-0.1-0.4
			c0-0.2,0-0.3,0.1-0.5c0.1-0.1,0.2-0.3,0.4-0.4c-0.3-0.1-0.5-0.3-0.6-0.5c-0.2-0.3-0.2-0.5-0.2-0.9c0-0.5,0.2-0.9,0.5-1.2
			c0.3-0.3,0.8-0.4,1.4-0.4c0.3,0,0.5,0,0.7,0.1H40.4z M36.5,199.9c0,0.3,0.1,0.5,0.3,0.6c0.2,0.1,0.5,0.2,1,0.2
			c0.6,0,1.1-0.1,1.4-0.3c0.3-0.2,0.4-0.4,0.4-0.8c0-0.3-0.1-0.4-0.2-0.6c-0.2-0.1-0.5-0.2-0.9-0.2h-0.9c-0.3,0-0.6,0.1-0.8,0.2
			C36.6,199.4,36.5,199.6,36.5,199.9z M36.9,195.8c0,0.3,0.1,0.6,0.3,0.8c0.2,0.2,0.5,0.3,0.8,0.3c0.7,0,1.1-0.4,1.1-1.1
			c0-0.7-0.4-1.1-1.1-1.1c-0.3,0-0.6,0.1-0.8,0.3C37,195.1,36.9,195.4,36.9,195.8z"/>
		<path fill="#FFFFFF" d="M42.6,194.2v3.2c0,0.4,0.1,0.7,0.3,0.9s0.5,0.3,0.9,0.3c0.5,0,0.9-0.1,1.1-0.4c0.2-0.3,0.4-0.7,0.4-1.4
			v-2.6h0.7v4.9h-0.6l-0.1-0.7h0c-0.2,0.2-0.4,0.4-0.6,0.6c-0.3,0.1-0.6,0.2-0.9,0.2c-0.6,0-1-0.1-1.3-0.4c-0.3-0.3-0.4-0.7-0.4-1.4
			v-3.2H42.6z"/>
		<path fill="#FFFFFF" d="M50,199.2c-0.7,0-1.3-0.2-1.7-0.7c-0.4-0.4-0.6-1.1-0.6-1.8c0-0.8,0.2-1.4,0.6-1.9
			c0.4-0.5,0.9-0.7,1.6-0.7c0.6,0,1.1,0.2,1.5,0.6c0.4,0.4,0.5,0.9,0.5,1.6v0.5h-3.4c0,0.6,0.2,1,0.4,1.3c0.3,0.3,0.7,0.4,1.2,0.4
			c0.5,0,1-0.1,1.6-0.3v0.7c-0.3,0.1-0.5,0.2-0.7,0.2C50.6,199.2,50.4,199.2,50,199.2z M49.8,194.8c-0.4,0-0.7,0.1-0.9,0.4
			s-0.4,0.6-0.4,1.1H51c0-0.5-0.1-0.8-0.3-1.1C50.5,194.9,50.2,194.8,49.8,194.8z"/>
		<path fill="#FFFFFF" d="M56.7,197.8c0,0.5-0.2,0.8-0.5,1.1s-0.8,0.4-1.4,0.4c-0.6,0-1.2-0.1-1.5-0.3v-0.7c0.2,0.1,0.5,0.2,0.8,0.3
			c0.3,0.1,0.5,0.1,0.8,0.1c0.4,0,0.7-0.1,0.9-0.2c0.2-0.1,0.3-0.3,0.3-0.6c0-0.2-0.1-0.4-0.2-0.5c-0.2-0.1-0.5-0.3-1-0.5
			c-0.5-0.2-0.8-0.3-1-0.4c-0.2-0.1-0.3-0.3-0.4-0.4c-0.1-0.2-0.1-0.4-0.1-0.6c0-0.4,0.2-0.7,0.5-0.9c0.3-0.2,0.8-0.3,1.3-0.3
			c0.5,0,1,0.1,1.5,0.3l-0.3,0.6c-0.5-0.2-0.9-0.3-1.3-0.3c-0.4,0-0.6,0.1-0.8,0.2c-0.2,0.1-0.3,0.3-0.3,0.5c0,0.1,0,0.2,0.1,0.3
			c0.1,0.1,0.2,0.2,0.3,0.3c0.1,0.1,0.4,0.2,0.9,0.4c0.6,0.2,1,0.4,1.2,0.6C56.6,197.2,56.7,197.5,56.7,197.8z"/>
		<path fill="#FFFFFF" d="M24.3,226.4c0,0.7-0.2,1.2-0.7,1.5c-0.5,0.4-1.1,0.5-1.9,0.5h-0.8v2.6h-0.8v-6.5h1.7
			C23.4,224.5,24.3,225.2,24.3,226.4z M20.9,227.8h0.7c0.7,0,1.2-0.1,1.5-0.3c0.3-0.2,0.4-0.6,0.4-1c0-0.4-0.1-0.8-0.4-1
			c-0.3-0.2-0.7-0.3-1.3-0.3h-0.8V227.8z"/>
		<path fill="#FFFFFF" d="M28.2,226.1c0.2,0,0.4,0,0.6,0.1l-0.1,0.7c-0.2,0-0.4-0.1-0.5-0.1c-0.4,0-0.7,0.2-1,0.5
			c-0.3,0.3-0.4,0.7-0.4,1.2v2.6H26v-4.9h0.6l0.1,0.9h0c0.2-0.3,0.4-0.6,0.7-0.7C27.6,226.2,27.9,226.1,28.2,226.1z"/>
		<path fill="#FFFFFF" d="M34.4,228.6c0,0.8-0.2,1.4-0.6,1.9c-0.4,0.4-1,0.7-1.7,0.7c-0.4,0-0.8-0.1-1.2-0.3
			c-0.3-0.2-0.6-0.5-0.8-0.9s-0.3-0.8-0.3-1.3c0-0.8,0.2-1.4,0.6-1.9c0.4-0.4,1-0.7,1.7-0.7c0.7,0,1.2,0.2,1.6,0.7
			C34.2,227.2,34.4,227.8,34.4,228.6z M30.7,228.6c0,0.6,0.1,1.1,0.4,1.4c0.2,0.3,0.6,0.5,1.1,0.5c0.5,0,0.9-0.2,1.1-0.5
			s0.4-0.8,0.4-1.4c0-0.6-0.1-1.1-0.4-1.4c-0.3-0.3-0.6-0.5-1.1-0.5c-0.5,0-0.8,0.2-1.1,0.5C30.8,227.5,30.7,228,30.7,228.6z"/>
		<path fill="#FFFFFF" d="M38.4,226.7h-1.2v4.3h-0.7v-4.3h-0.9v-0.3l0.9-0.3v-0.3c0-1.2,0.5-1.8,1.6-1.8c0.3,0,0.6,0.1,0.9,0.2
			l-0.2,0.6c-0.3-0.1-0.5-0.1-0.7-0.1c-0.3,0-0.5,0.1-0.6,0.3c-0.1,0.2-0.2,0.5-0.2,0.9v0.3h1.2V226.7z M39.2,224.8
			c0-0.2,0-0.3,0.1-0.4c0.1-0.1,0.2-0.1,0.3-0.1c0.1,0,0.2,0,0.3,0.1c0.1,0.1,0.1,0.2,0.1,0.4c0,0.2,0,0.3-0.1,0.4
			c-0.1,0.1-0.2,0.1-0.3,0.1c-0.1,0-0.2,0-0.3-0.1C39.3,225.1,39.2,225,39.2,224.8z M40,231.1h-0.7v-4.9H40V231.1z"/>
		<path fill="#FFFFFF" d="M42.8,231.1h-0.7v-6.9h0.7V231.1z"/>
		<path fill="#FFFFFF" d="M46.9,231.1c-0.7,0-1.3-0.2-1.7-0.7c-0.4-0.4-0.6-1.1-0.6-1.8c0-0.8,0.2-1.4,0.6-1.9
			c0.4-0.5,0.9-0.7,1.6-0.7c0.6,0,1.1,0.2,1.5,0.6c0.4,0.4,0.5,0.9,0.5,1.6v0.5h-3.4c0,0.6,0.2,1,0.4,1.3c0.3,0.3,0.7,0.4,1.2,0.4
			c0.5,0,1-0.1,1.6-0.3v0.7c-0.3,0.1-0.5,0.2-0.7,0.2C47.6,231.1,47.3,231.1,46.9,231.1z M46.7,226.7c-0.4,0-0.7,0.1-0.9,0.4
			c-0.2,0.3-0.4,0.6-0.4,1.1h2.6c0-0.5-0.1-0.8-0.3-1.1C47.4,226.8,47.1,226.7,46.7,226.7z"/>
		<path fill="#FFFFFF" d="M22.1,263h-0.8v-5.8h-2.1v-0.7h4.9v0.7h-2.1V263z"/>
		<path fill="#FFFFFF" d="M29.5,263l-0.9-2.9c-0.1-0.2-0.2-0.6-0.3-1.2h0c-0.1,0.5-0.2,0.9-0.3,1.2l-0.9,2.9h-0.9l-1.3-4.9h0.8
			c0.3,1.2,0.6,2.2,0.7,2.8c0.2,0.6,0.3,1.1,0.3,1.3h0c0-0.2,0.1-0.4,0.2-0.7c0.1-0.3,0.1-0.5,0.2-0.6l0.9-2.8h0.8l0.9,2.8
			c0.2,0.5,0.3,0.9,0.3,1.3h0c0-0.1,0-0.3,0.1-0.5c0.1-0.2,0.4-1.4,0.9-3.6h0.8l-1.3,4.9H29.5z"/>
		<path fill="#FFFFFF" d="M33.1,256.8c0-0.2,0-0.3,0.1-0.4c0.1-0.1,0.2-0.1,0.3-0.1c0.1,0,0.2,0,0.3,0.1c0.1,0.1,0.1,0.2,0.1,0.4
			c0,0.2,0,0.3-0.1,0.4c-0.1,0.1-0.2,0.1-0.3,0.1c-0.1,0-0.2,0-0.3-0.1C33.1,257.1,33.1,257,33.1,256.8z M33.9,263h-0.7v-4.9h0.7
			V263z"/>
		<path fill="#FFFFFF" d="M37.5,262.5c0.1,0,0.3,0,0.4,0c0.1,0,0.2,0,0.3-0.1v0.6c-0.1,0-0.2,0.1-0.4,0.1c-0.2,0-0.3,0-0.4,0
			c-0.9,0-1.4-0.5-1.4-1.5v-2.9h-0.7v-0.4L36,258l0.3-1h0.4v1.1h1.4v0.6h-1.4v2.9c0,0.3,0.1,0.5,0.2,0.7
			C37.1,262.4,37.3,262.5,37.5,262.5z"/>
		<path fill="#FFFFFF" d="M41.2,262.5c0.1,0,0.3,0,0.4,0c0.1,0,0.2,0,0.3-0.1v0.6c-0.1,0-0.2,0.1-0.4,0.1c-0.2,0-0.3,0-0.4,0
			c-0.9,0-1.4-0.5-1.4-1.5v-2.9H39v-0.4l0.7-0.3l0.3-1h0.4v1.1h1.4v0.6h-1.4v2.9c0,0.3,0.1,0.5,0.2,0.7
			C40.8,262.4,41,262.5,41.2,262.5z"/>
		<path fill="#FFFFFF" d="M45.4,263.1c-0.7,0-1.3-0.2-1.7-0.7c-0.4-0.4-0.6-1.1-0.6-1.8c0-0.8,0.2-1.4,0.6-1.9
			c0.4-0.5,0.9-0.7,1.6-0.7c0.6,0,1.1,0.2,1.5,0.6c0.4,0.4,0.5,0.9,0.5,1.6v0.5h-3.4c0,0.6,0.2,1,0.4,1.3c0.3,0.3,0.7,0.4,1.2,0.4
			c0.5,0,1-0.1,1.6-0.3v0.7c-0.3,0.1-0.5,0.2-0.7,0.2C46,263.1,45.7,263.1,45.4,263.1z M45.2,258.6c-0.4,0-0.7,0.1-0.9,0.4
			s-0.4,0.6-0.4,1.1h2.6c0-0.5-0.1-0.8-0.3-1.1C45.9,258.8,45.6,258.6,45.2,258.6z"/>
		<path fill="#FFFFFF" d="M51.2,258c0.2,0,0.4,0,0.6,0.1l-0.1,0.7c-0.2,0-0.4-0.1-0.5-0.1c-0.4,0-0.7,0.2-1,0.5
			c-0.3,0.3-0.4,0.7-0.4,1.2v2.6h-0.7v-4.9h0.6l0.1,0.9h0c0.2-0.3,0.4-0.6,0.7-0.7C50.6,258.1,50.9,258,51.2,258z"/>
		<path fill="#FFFFFF" d="M23.8,293.2c0,0.6-0.2,1-0.6,1.3c-0.4,0.3-1,0.5-1.7,0.5c-0.8,0-1.4-0.1-1.8-0.3V294
			c0.3,0.1,0.6,0.2,0.9,0.3c0.3,0.1,0.6,0.1,0.9,0.1c0.5,0,0.9-0.1,1.1-0.3c0.3-0.2,0.4-0.5,0.4-0.8c0-0.2,0-0.4-0.1-0.6
			c-0.1-0.1-0.2-0.3-0.5-0.4c-0.2-0.1-0.5-0.3-1-0.4c-0.6-0.2-1-0.5-1.3-0.8c-0.3-0.3-0.4-0.7-0.4-1.2c0-0.5,0.2-0.9,0.6-1.2
			c0.4-0.3,0.9-0.4,1.5-0.4c0.6,0,1.2,0.1,1.8,0.4l-0.2,0.7c-0.5-0.2-1.1-0.3-1.6-0.3c-0.4,0-0.7,0.1-0.9,0.3
			c-0.2,0.2-0.3,0.4-0.3,0.7c0,0.2,0,0.4,0.1,0.6c0.1,0.1,0.2,0.3,0.4,0.4c0.2,0.1,0.5,0.3,0.9,0.4c0.7,0.2,1.2,0.5,1.4,0.8
			S23.8,292.8,23.8,293.2z"/>
		<path fill="#FFFFFF" d="M27.6,295c-0.7,0-1.3-0.2-1.7-0.7c-0.4-0.4-0.6-1.1-0.6-1.8c0-0.8,0.2-1.4,0.6-1.9
			c0.4-0.5,0.9-0.7,1.6-0.7c0.6,0,1.1,0.2,1.5,0.6c0.4,0.4,0.5,0.9,0.5,1.6v0.5H26c0,0.6,0.2,1,0.4,1.3c0.3,0.3,0.7,0.4,1.2,0.4
			c0.5,0,1-0.1,1.6-0.3v0.7c-0.3,0.1-0.5,0.2-0.7,0.2C28.2,295,27.9,295,27.6,295z M27.4,290.6c-0.4,0-0.7,0.1-0.9,0.4
			c-0.2,0.3-0.4,0.6-0.4,1.1h2.6c0-0.5-0.1-0.8-0.3-1.1C28.1,290.7,27.8,290.6,27.4,290.6z"/>
		<path fill="#FFFFFF" d="M32.7,294.4c0.1,0,0.3,0,0.4,0c0.1,0,0.2,0,0.3-0.1v0.6c-0.1,0-0.2,0.1-0.4,0.1c-0.2,0-0.3,0-0.4,0
			c-0.9,0-1.4-0.5-1.4-1.5v-2.9h-0.7v-0.4l0.7-0.3l0.3-1h0.4v1.1h1.4v0.6h-1.4v2.9c0,0.3,0.1,0.5,0.2,0.7
			C32.3,294.3,32.4,294.4,32.7,294.4z"/>
		<path fill="#FFFFFF" d="M36.4,294.4c0.1,0,0.3,0,0.4,0c0.1,0,0.2,0,0.3-0.1v0.6c-0.1,0-0.2,0.1-0.4,0.1c-0.2,0-0.3,0-0.4,0
			c-0.9,0-1.4-0.5-1.4-1.5v-2.9h-0.7v-0.4l0.7-0.3l0.3-1h0.4v1.1H37v0.6h-1.4v2.9c0,0.3,0.1,0.5,0.2,0.7
			C36,294.3,36.2,294.4,36.4,294.4z"/>
		<path fill="#FFFFFF" d="M38.5,288.7c0-0.2,0-0.3,0.1-0.4c0.1-0.1,0.2-0.1,0.3-0.1c0.1,0,0.2,0,0.3,0.1c0.1,0.1,0.1,0.2,0.1,0.4
			c0,0.2,0,0.3-0.1,0.4c-0.1,0.1-0.2,0.1-0.3,0.1c-0.1,0-0.2,0-0.3-0.1C38.5,289,38.5,288.9,38.5,288.7z M39.3,294.9h-0.7v-4.9h0.7
			V294.9z"/>
		<path fill="#FFFFFF" d="M44.7,294.9v-3.2c0-0.4-0.1-0.7-0.3-0.9c-0.2-0.2-0.5-0.3-0.9-0.3c-0.5,0-0.9,0.1-1.1,0.4
			c-0.2,0.3-0.4,0.7-0.4,1.4v2.6h-0.7v-4.9h0.6l0.1,0.7h0c0.2-0.2,0.4-0.4,0.6-0.6c0.3-0.1,0.6-0.2,0.9-0.2c0.6,0,1,0.1,1.3,0.4
			c0.3,0.3,0.4,0.7,0.4,1.4v3.2H44.7z"/>
		<path fill="#FFFFFF" d="M51.4,290.1v0.5l-0.9,0.1c0.1,0.1,0.2,0.2,0.2,0.4c0.1,0.2,0.1,0.4,0.1,0.6c0,0.5-0.2,0.9-0.5,1.1
			c-0.3,0.3-0.8,0.4-1.3,0.4c-0.1,0-0.3,0-0.4,0c-0.3,0.2-0.5,0.4-0.5,0.6c0,0.1,0.1,0.2,0.2,0.3c0.1,0.1,0.3,0.1,0.6,0.1h0.9
			c0.5,0,0.9,0.1,1.2,0.3c0.3,0.2,0.4,0.5,0.4,1c0,0.5-0.2,1-0.6,1.2c-0.4,0.3-1.1,0.4-1.9,0.4c-0.6,0-1.1-0.1-1.5-0.4
			c-0.3-0.2-0.5-0.6-0.5-1c0-0.3,0.1-0.6,0.3-0.8c0.2-0.2,0.5-0.4,0.8-0.4c-0.1-0.1-0.2-0.1-0.3-0.3c-0.1-0.1-0.1-0.3-0.1-0.4
			c0-0.2,0-0.3,0.1-0.5c0.1-0.1,0.2-0.3,0.4-0.4c-0.3-0.1-0.5-0.3-0.6-0.5c-0.2-0.3-0.2-0.5-0.2-0.9c0-0.5,0.2-0.9,0.5-1.2
			c0.3-0.3,0.8-0.4,1.4-0.4c0.3,0,0.5,0,0.7,0.1H51.4z M47.5,295.8c0,0.3,0.1,0.5,0.3,0.6c0.2,0.1,0.5,0.2,1,0.2
			c0.6,0,1.1-0.1,1.4-0.3c0.3-0.2,0.4-0.4,0.4-0.8c0-0.3-0.1-0.4-0.2-0.6c-0.2-0.1-0.5-0.2-0.9-0.2h-0.9c-0.3,0-0.6,0.1-0.8,0.2
			C47.6,295.2,47.5,295.5,47.5,295.8z M47.9,291.6c0,0.3,0.1,0.6,0.3,0.8c0.2,0.2,0.5,0.3,0.8,0.3c0.7,0,1.1-0.4,1.1-1.1
			c0-0.7-0.4-1.1-1.1-1.1c-0.3,0-0.6,0.1-0.8,0.3C48,291,47.9,291.3,47.9,291.6z"/>
		<path fill="#FFFFFF" d="M56,293.6c0,0.5-0.2,0.8-0.5,1.1c-0.3,0.2-0.8,0.4-1.4,0.4c-0.6,0-1.2-0.1-1.5-0.3V294
			c0.2,0.1,0.5,0.2,0.8,0.3c0.3,0.1,0.5,0.1,0.8,0.1c0.4,0,0.7-0.1,0.9-0.2c0.2-0.1,0.3-0.3,0.3-0.6c0-0.2-0.1-0.4-0.2-0.5
			c-0.2-0.1-0.5-0.3-1-0.5c-0.5-0.2-0.8-0.3-1-0.4c-0.2-0.1-0.3-0.3-0.4-0.4c-0.1-0.2-0.1-0.4-0.1-0.6c0-0.4,0.2-0.7,0.5-0.9
			c0.3-0.2,0.8-0.3,1.3-0.3c0.5,0,1,0.1,1.5,0.3l-0.3,0.6c-0.5-0.2-0.9-0.3-1.3-0.3c-0.4,0-0.6,0.1-0.8,0.2
			c-0.2,0.1-0.3,0.3-0.3,0.5c0,0.1,0,0.2,0.1,0.3c0.1,0.1,0.2,0.2,0.3,0.3c0.1,0.1,0.4,0.2,0.9,0.4c0.6,0.2,1,0.4,1.2,0.6
			C55.9,293,56,293.3,56,293.6z"/>
	</g>
	<g>
		<path fill="#FAE924" d="M216.5,166.4l-0.7,0.9c-1.2-1.1-2.6-1.7-4.1-1.7c-1,0-1.9,0.2-2.8,0.7c-0.9,0.5-1.6,1.1-2,2
			c-0.5,0.8-0.7,1.7-0.7,2.7c0,0.8,0.2,1.6,0.6,2.3c0.4,0.7,0.9,1.2,1.6,1.5c0.7,0.4,1.5,0.6,2.4,0.6c1.4,0,2.7-0.4,3.9-1.3l0.6,0.9
			c-0.9,0.6-1.7,1-2.3,1.2s-1.4,0.3-2.2,0.3c-1.6,0-2.8-0.4-3.8-1.2c-1.3-1.1-2-2.5-2-4.2c0-1.8,0.7-3.4,2-4.6
			c1.3-1.3,2.9-1.9,4.9-1.9c0.9,0,1.7,0.1,2.4,0.4C215,165.3,215.8,165.8,216.5,166.4z"/>
		<path fill="#FAE924" d="M219.3,164.6h1l-1.6,11.6h-1.1L219.3,164.6z"/>
		<path fill="#FAE924" d="M222.4,167.8h1l-1.1,8.4h-1.1L222.4,167.8z M223.3,164.4c0.2,0,0.4,0.1,0.6,0.3c0.2,0.2,0.3,0.4,0.3,0.6
			c0,0.2-0.1,0.4-0.3,0.6s-0.4,0.3-0.6,0.3c-0.2,0-0.4-0.1-0.6-0.3c-0.2-0.2-0.3-0.4-0.3-0.6c0-0.2,0.1-0.4,0.3-0.6
			C222.8,164.4,223,164.4,223.3,164.4z"/>
		<path fill="#FAE924" d="M234,169.6l-0.9,0.5c-0.6-1-1.6-1.5-2.8-1.5c-0.7,0-1.4,0.2-2,0.5c-0.6,0.3-1.1,0.8-1.4,1.4
			c-0.3,0.6-0.5,1.2-0.5,1.9c0,0.6,0.1,1.1,0.4,1.6c0.3,0.5,0.6,0.8,1.1,1.1c0.5,0.3,1,0.4,1.6,0.4c0.6,0,1.3-0.1,1.9-0.4
			c0.6-0.3,1-0.6,1.4-1l0.9,0.6c-0.6,0.6-1.2,1-1.8,1.3c-0.7,0.3-1.4,0.4-2.3,0.4c-1.3,0-2.4-0.4-3.1-1.1c-0.7-0.7-1.1-1.7-1.1-2.9
			c0-1.3,0.5-2.5,1.5-3.4c1-0.9,2.2-1.4,3.6-1.4c0.8,0,1.6,0.2,2.2,0.5C233.1,168.5,233.6,169,234,169.6z"/>
		<path fill="#FAE924" d="M237.2,164.6h1l-0.8,6.4l4.1-3.1h1.7l-4.9,3.7l4.3,4.6h-1.4l-3.9-4.2l-0.5,4.2h-1.1L237.2,164.6z"/>
		<path fill="#FAE924" d="M254.4,167.8h1l-1.1,8.4h-1.1L254.4,167.8z M255.2,164.4c0.2,0,0.4,0.1,0.6,0.3c0.2,0.2,0.3,0.4,0.3,0.6
			c0,0.2-0.1,0.4-0.3,0.6s-0.4,0.3-0.6,0.3c-0.2,0-0.4-0.1-0.6-0.3c-0.2-0.2-0.3-0.4-0.3-0.6c0-0.2,0.1-0.4,0.3-0.6
			C254.8,164.4,255,164.4,255.2,164.4z"/>
		<path fill="#FAE924" d="M265.9,169.6l-0.9,0.5c-0.6-1-1.6-1.5-2.8-1.5c-0.7,0-1.4,0.2-2,0.5c-0.6,0.3-1.1,0.8-1.4,1.4
			c-0.3,0.6-0.5,1.2-0.5,1.9c0,0.6,0.1,1.1,0.4,1.6c0.3,0.5,0.6,0.8,1.1,1.1c0.5,0.3,1,0.4,1.6,0.4c0.6,0,1.3-0.1,1.9-0.4
			s1-0.6,1.4-1l0.9,0.6c-0.6,0.6-1.2,1-1.8,1.3c-0.7,0.3-1.4,0.4-2.3,0.4c-1.3,0-2.4-0.4-3.1-1.1c-0.7-0.7-1.1-1.7-1.1-2.9
			c0-1.3,0.5-2.5,1.5-3.4c1-0.9,2.2-1.4,3.6-1.4c0.8,0,1.6,0.2,2.2,0.5S265.6,169,265.9,169.6z"/>
		<path fill="#FAE924" d="M272.6,167.6c0.7,0,1.4,0.2,2,0.5c0.6,0.3,1.1,0.8,1.4,1.4c0.3,0.6,0.5,1.3,0.5,2.1c0,0.9-0.2,1.7-0.6,2.4
			c-0.4,0.8-1,1.3-1.7,1.7c-0.7,0.4-1.5,0.6-2.4,0.6c-1.1,0-2-0.4-2.8-1.1c-0.7-0.7-1.1-1.7-1.1-2.8c0-0.9,0.2-1.7,0.6-2.5
			c0.4-0.8,1-1.3,1.8-1.8C270.9,167.8,271.7,167.6,272.6,167.6z M272.5,168.6c-0.7,0-1.3,0.2-1.9,0.5c-0.6,0.3-1,0.8-1.4,1.4
			c-0.3,0.6-0.5,1.2-0.5,1.9c0,0.9,0.3,1.6,0.8,2.2c0.5,0.6,1.2,0.8,2.1,0.8c0.7,0,1.3-0.2,1.8-0.5c0.5-0.3,1-0.8,1.3-1.4
			c0.3-0.6,0.5-1.3,0.5-1.9c0-0.6-0.1-1.1-0.4-1.5c-0.2-0.4-0.6-0.8-1-1C273.5,168.7,273,168.6,272.5,168.6z"/>
		<path fill="#FAE924" d="M279.5,167.8h1l-0.2,1.3c0.9-1,1.8-1.5,3-1.5c0.9,0,1.6,0.3,2.1,0.8s0.8,1.2,0.8,2.1c0,0.4-0.1,1-0.2,1.8
			l-0.5,3.8h-1.1l0.5-3.8c0.1-0.8,0.2-1.4,0.2-1.8c0-0.6-0.2-1.1-0.5-1.4c-0.4-0.4-0.8-0.5-1.4-0.5c-0.6,0-1.1,0.1-1.6,0.4
			c-0.5,0.3-0.9,0.7-1.1,1.2s-0.5,1.3-0.6,2.4l-0.5,3.6h-1.1L279.5,167.8z"/>
		<path fill="#FAE924" d="M295.6,164.7h1.1l-0.4,3.1h1.7l-0.1,0.9h-1.7l-1,7.4H294l1-7.4h-1.4l0.1-0.9h1.4L295.6,164.7z"/>
		<path fill="#FAE924" d="M303.8,167.6c0.7,0,1.4,0.2,2,0.5c0.6,0.3,1.1,0.8,1.4,1.4c0.3,0.6,0.5,1.3,0.5,2.1c0,0.9-0.2,1.7-0.6,2.4
			c-0.4,0.8-1,1.3-1.7,1.7c-0.7,0.4-1.5,0.6-2.4,0.6c-1.1,0-2.1-0.4-2.8-1.1c-0.7-0.7-1.1-1.7-1.1-2.8c0-0.9,0.2-1.7,0.6-2.5
			c0.4-0.8,1-1.3,1.8-1.8C302.1,167.8,302.9,167.6,303.8,167.6z M303.8,168.6c-0.7,0-1.3,0.2-1.9,0.5s-1,0.8-1.4,1.4
			c-0.3,0.6-0.5,1.2-0.5,1.9c0,0.9,0.3,1.6,0.8,2.2s1.2,0.8,2.1,0.8c0.7,0,1.3-0.2,1.8-0.5c0.5-0.3,1-0.8,1.3-1.4
			c0.3-0.6,0.5-1.3,0.5-1.9c0-0.6-0.1-1.1-0.4-1.5c-0.2-0.4-0.6-0.8-1-1C304.8,168.7,304.3,168.6,303.8,168.6z"/>
		<path fill="#FAE924" d="M212.1,199.9H211l0.2-1.3c-1,1-2.1,1.5-3.3,1.5c-1.1,0-2.1-0.4-2.8-1.1c-0.7-0.7-1.1-1.7-1.1-2.8
			c0-1.3,0.5-2.5,1.4-3.4c1-1,2.1-1.4,3.4-1.4c0.7,0,1.3,0.1,1.8,0.4c0.5,0.3,1,0.7,1.3,1.4l0.2-1.6h1.1L212.1,199.9z M208,199.1
			c0.7,0,1.3-0.2,1.9-0.5c0.6-0.3,1-0.8,1.4-1.4c0.3-0.6,0.5-1.3,0.5-2c0-0.9-0.3-1.6-0.8-2.1c-0.5-0.5-1.3-0.8-2.1-0.8
			c-1,0-1.9,0.4-2.6,1.1c-0.7,0.7-1.1,1.7-1.1,2.7c0,0.9,0.3,1.6,0.8,2.1C206.4,198.8,207.1,199.1,208,199.1z"/>
		<path fill="#FAE924" d="M223.9,193.3l-0.9,0.5c-0.6-1-1.6-1.5-2.8-1.5c-0.7,0-1.4,0.2-2,0.5c-0.6,0.3-1.1,0.8-1.4,1.4
			c-0.3,0.6-0.5,1.2-0.5,1.9c0,0.6,0.1,1.1,0.4,1.6c0.3,0.5,0.6,0.8,1.1,1.1c0.5,0.3,1,0.4,1.6,0.4c0.6,0,1.3-0.1,1.9-0.4
			c0.6-0.3,1-0.6,1.4-1l0.9,0.6c-0.6,0.6-1.2,1-1.8,1.3c-0.7,0.3-1.4,0.4-2.3,0.4c-1.3,0-2.4-0.4-3.1-1.1c-0.7-0.7-1.1-1.7-1.1-2.9
			c0-1.3,0.5-2.5,1.5-3.4c1-0.9,2.2-1.4,3.6-1.4c0.8,0,1.6,0.2,2.2,0.5C223.1,192.1,223.6,192.6,223.9,193.3z"/>
		<path fill="#FAE924" d="M234.5,193.3l-0.9,0.5c-0.6-1-1.6-1.5-2.8-1.5c-0.7,0-1.4,0.2-2,0.5c-0.6,0.3-1.1,0.8-1.4,1.4
			c-0.3,0.6-0.5,1.2-0.5,1.9c0,0.6,0.1,1.1,0.4,1.6c0.3,0.5,0.6,0.8,1.1,1.1c0.5,0.3,1,0.4,1.6,0.4c0.6,0,1.3-0.1,1.9-0.4
			c0.6-0.3,1-0.6,1.4-1l0.9,0.6c-0.6,0.6-1.2,1-1.8,1.3c-0.6,0.3-1.4,0.4-2.3,0.4c-1.3,0-2.4-0.4-3.1-1.1c-0.7-0.7-1.1-1.7-1.1-2.9
			c0-1.3,0.5-2.5,1.5-3.4c1-0.9,2.2-1.4,3.6-1.4c0.8,0,1.6,0.2,2.2,0.5S234.2,192.6,234.5,193.3z"/>
		<path fill="#FAE924" d="M244.9,195.9h-7.5c0,1,0.2,1.8,0.8,2.3c0.5,0.6,1.2,0.9,2.1,0.9c0.6,0,1.1-0.1,1.6-0.4
			c0.5-0.2,0.9-0.6,1.2-1l0.8,0.7c-0.4,0.5-0.9,0.9-1.6,1.2c-0.7,0.3-1.4,0.5-2.1,0.5c-1.3,0-2.3-0.4-3-1.2c-0.7-0.8-1-1.7-1-2.7
			c0-0.8,0.2-1.6,0.7-2.4c0.4-0.8,1-1.4,1.8-1.8c0.7-0.4,1.6-0.6,2.4-0.6c1.1,0,2,0.4,2.7,1.1c0.7,0.7,1.1,1.7,1.1,2.8
			C244.9,195.3,244.9,195.6,244.9,195.9z M243.9,194.9c0-0.8-0.3-1.4-0.8-1.9c-0.5-0.5-1.1-0.7-1.9-0.7c-0.8,0-1.6,0.2-2.2,0.7
			s-1.1,1.1-1.4,1.9H243.9z"/>
		<path fill="#FAE924" d="M251.9,192.4l-0.6,0.9c-0.5-0.7-1-1-1.7-1c-0.4,0-0.7,0.1-0.9,0.4c-0.3,0.2-0.4,0.5-0.4,0.8
			c0,0.2,0.1,0.4,0.2,0.6c0.2,0.2,0.5,0.5,1.1,0.8c0.8,0.5,1.3,1,1.6,1.4c0.3,0.4,0.4,0.8,0.4,1.3c0,0.7-0.2,1.3-0.7,1.7
			c-0.5,0.5-1.1,0.7-1.9,0.7c-1,0-1.9-0.5-2.6-1.4l0.7-0.8c0.6,0.8,1.3,1.1,2,1.1c0.4,0,0.8-0.1,1.1-0.4c0.3-0.3,0.5-0.6,0.5-1
			c0-0.3-0.1-0.6-0.3-0.9c-0.2-0.2-0.6-0.5-1.2-0.9c-0.7-0.5-1.2-0.9-1.4-1.2c-0.2-0.3-0.3-0.7-0.3-1.1c0-0.6,0.2-1.1,0.7-1.6
			c0.5-0.4,1.1-0.7,1.8-0.7c0.4,0,0.8,0.1,1.1,0.3C251.2,191.7,251.5,192,251.9,192.4z"/>
		<path fill="#FAE924" d="M258.4,192.4l-0.6,0.9c-0.5-0.7-1-1-1.7-1c-0.4,0-0.7,0.1-0.9,0.4c-0.3,0.2-0.4,0.5-0.4,0.8
			c0,0.2,0.1,0.4,0.2,0.6c0.2,0.2,0.5,0.5,1.1,0.8c0.8,0.5,1.3,1,1.6,1.4c0.3,0.4,0.4,0.8,0.4,1.3c0,0.7-0.2,1.3-0.7,1.7
			c-0.5,0.5-1.1,0.7-1.9,0.7c-1,0-1.9-0.5-2.6-1.4l0.7-0.8c0.6,0.8,1.3,1.1,2,1.1c0.4,0,0.8-0.1,1.1-0.4c0.3-0.3,0.5-0.6,0.5-1
			c0-0.3-0.1-0.6-0.3-0.9c-0.2-0.2-0.6-0.5-1.2-0.9c-0.7-0.5-1.2-0.9-1.4-1.2c-0.2-0.3-0.3-0.7-0.3-1.1c0-0.6,0.2-1.1,0.7-1.6
			c0.5-0.4,1.1-0.7,1.8-0.7c0.4,0,0.8,0.1,1.1,0.3C257.7,191.7,258,192,258.4,192.4z"/>
		<path fill="#FAE924" d="M265.7,191.5h1.1l-0.2,1.2c0.3-0.4,0.7-0.8,1.2-1c0.5-0.2,1-0.4,1.5-0.4c0.6,0,1.2,0.2,1.7,0.6
			c0.4,0.3,0.7,0.7,0.8,1.3c0.4-0.6,0.9-1.1,1.4-1.4c0.6-0.3,1.1-0.5,1.7-0.5c0.8,0,1.4,0.2,1.9,0.7c0.5,0.5,0.8,1.1,0.8,1.9
			c0,0.4,0,0.8-0.1,1.3l-0.6,4.6H276l0.5-4c0.1-0.8,0.2-1.5,0.2-1.8c0-0.5-0.2-0.9-0.5-1.2c-0.3-0.3-0.7-0.5-1.3-0.5
			c-0.6,0-1.1,0.2-1.5,0.5c-0.5,0.3-0.8,0.8-1,1.2c-0.2,0.5-0.4,1.1-0.4,1.8l-0.6,4h-1.1l0.6-4.6c0.1-0.5,0.1-0.9,0.1-1.2
			c0-0.5-0.2-1-0.5-1.3c-0.3-0.3-0.7-0.5-1.3-0.5c-0.4,0-0.9,0.1-1.2,0.3c-0.4,0.2-0.7,0.5-1,0.8c-0.3,0.3-0.4,0.7-0.6,1.2
			c-0.1,0.5-0.2,0.9-0.3,1.3l-0.5,3.9h-1.1L265.7,191.5z"/>
		<path fill="#FAE924" d="M288.5,195.9H281c0,1,0.2,1.8,0.8,2.3c0.5,0.6,1.2,0.9,2.1,0.9c0.6,0,1.1-0.1,1.6-0.4
			c0.5-0.2,0.9-0.6,1.2-1l0.8,0.7c-0.4,0.5-0.9,0.9-1.6,1.2c-0.7,0.3-1.4,0.5-2.1,0.5c-1.3,0-2.3-0.4-3-1.2c-0.7-0.8-1-1.7-1-2.7
			c0-0.8,0.2-1.6,0.7-2.4c0.4-0.8,1-1.4,1.8-1.8c0.7-0.4,1.6-0.6,2.4-0.6c1.1,0,2,0.4,2.7,1.1c0.7,0.7,1.1,1.7,1.1,2.8
			C288.6,195.3,288.5,195.6,288.5,195.9z M287.5,194.9c0-0.8-0.3-1.4-0.8-1.9c-0.5-0.5-1.1-0.7-1.9-0.7c-0.8,0-1.6,0.2-2.2,0.7
			c-0.6,0.5-1.1,1.1-1.4,1.9H287.5z"/>
		<path fill="#FAE924" d="M291.6,191.5h1l-0.2,1.3c0.9-1,1.8-1.5,3-1.5c0.9,0,1.6,0.3,2.1,0.8s0.8,1.2,0.8,2.1c0,0.4-0.1,1-0.2,1.8
			l-0.5,3.8h-1.1l0.5-3.8c0.1-0.8,0.2-1.4,0.2-1.8c0-0.6-0.2-1.1-0.5-1.4c-0.4-0.4-0.8-0.5-1.4-0.5c-0.6,0-1.1,0.1-1.6,0.4
			s-0.9,0.7-1.1,1.2c-0.3,0.5-0.5,1.3-0.6,2.4l-0.5,3.6h-1.1L291.6,191.5z"/>
		<path fill="#FAE924" d="M302.1,191.5h1.1l-0.5,3.5c-0.2,1-0.2,1.7-0.2,2c0,0.6,0.2,1.1,0.6,1.5c0.4,0.4,0.9,0.6,1.6,0.6
			c0.5,0,1-0.2,1.4-0.5c0.4-0.3,0.7-0.7,0.8-1.2c0.1-0.3,0.2-0.8,0.3-1.7l0.6-4.2h1.1l-0.4,3.2c-0.2,1.5-0.4,2.6-0.6,3.2
			c-0.2,0.6-0.6,1.2-1.2,1.6c-0.6,0.4-1.2,0.6-2,0.6c-0.9,0-1.7-0.3-2.2-0.9c-0.6-0.6-0.9-1.3-0.9-2.2c0-0.4,0-0.8,0.1-1.2l0.1-0.7
			l0-0.3L302.1,191.5z"/>
		<path fill="#FAE924" d="M234.9,215.1h1l-1.1,8.4h-1.1L234.9,215.1z M235.7,211.7c0.2,0,0.4,0.1,0.6,0.3c0.2,0.2,0.3,0.4,0.3,0.6
			c0,0.2-0.1,0.4-0.3,0.6c-0.2,0.2-0.4,0.3-0.6,0.3c-0.2,0-0.4-0.1-0.6-0.3c-0.2-0.2-0.3-0.4-0.3-0.6c0-0.2,0.1-0.4,0.3-0.6
			C235.3,211.8,235.5,211.7,235.7,211.7z"/>
		<path fill="#FAE924" d="M240,212h1.1l-0.4,3.1h1.7l-0.1,0.9h-1.7l-1,7.4h-1.1l1-7.4H238l0.1-0.9h1.4L240,212z"/>
		<path fill="#FAE924" d="M251.9,219.5h-7.5c0,1,0.2,1.8,0.8,2.3c0.5,0.6,1.2,0.9,2.1,0.9c0.6,0,1.1-0.1,1.6-0.4
			c0.5-0.2,0.9-0.6,1.2-1l0.8,0.7c-0.4,0.5-0.9,0.9-1.6,1.2c-0.7,0.3-1.4,0.5-2.1,0.5c-1.3,0-2.3-0.4-3-1.2c-0.7-0.8-1-1.7-1-2.7
			c0-0.8,0.2-1.6,0.7-2.4c0.4-0.8,1-1.4,1.8-1.8c0.7-0.4,1.6-0.6,2.4-0.6c1.1,0,2,0.4,2.7,1.1c0.7,0.7,1.1,1.7,1.1,2.8
			C252,219,251.9,219.2,251.9,219.5z M250.9,218.6c0-0.8-0.3-1.4-0.8-1.9s-1.1-0.7-1.9-0.7c-0.8,0-1.6,0.2-2.2,0.7s-1.1,1.1-1.4,1.9
			H250.9z"/>
		<path fill="#FAE924" d="M255,215.1h1.1l-0.2,1.2c0.3-0.4,0.7-0.8,1.2-1c0.5-0.2,1-0.4,1.5-0.4c0.6,0,1.2,0.2,1.7,0.6
			c0.4,0.3,0.7,0.7,0.8,1.3c0.4-0.6,0.9-1.1,1.4-1.4c0.6-0.3,1.1-0.5,1.7-0.5c0.8,0,1.4,0.2,1.9,0.7c0.5,0.5,0.8,1.1,0.8,1.9
			c0,0.4,0,0.8-0.1,1.3l-0.6,4.6h-1.1l0.5-4c0.1-0.8,0.2-1.5,0.2-1.8c0-0.5-0.2-0.9-0.5-1.2c-0.3-0.3-0.7-0.5-1.3-0.5
			c-0.6,0-1.1,0.2-1.5,0.5c-0.5,0.3-0.8,0.8-1,1.2s-0.4,1.1-0.4,1.8l-0.6,4h-1.1l0.6-4.6c0.1-0.5,0.1-0.9,0.1-1.2
			c0-0.5-0.2-1-0.5-1.3c-0.3-0.3-0.7-0.5-1.3-0.5c-0.4,0-0.9,0.1-1.2,0.3c-0.4,0.2-0.7,0.5-1,0.8c-0.3,0.3-0.4,0.7-0.6,1.2
			c-0.1,0.5-0.2,0.9-0.3,1.3l-0.5,3.9h-1.1L255,215.1z"/>
		<path fill="#FAE924" d="M274.1,216.1l-0.6,0.9c-0.5-0.7-1-1-1.7-1c-0.4,0-0.7,0.1-0.9,0.4c-0.3,0.2-0.4,0.5-0.4,0.8
			c0,0.2,0.1,0.4,0.2,0.6c0.2,0.2,0.5,0.5,1.1,0.8c0.8,0.5,1.3,1,1.6,1.4c0.3,0.4,0.4,0.8,0.4,1.3c0,0.7-0.2,1.3-0.7,1.7
			c-0.5,0.5-1.1,0.7-1.9,0.7c-1,0-1.9-0.5-2.6-1.4l0.7-0.8c0.6,0.8,1.3,1.1,2,1.1c0.4,0,0.8-0.1,1.1-0.4c0.3-0.3,0.5-0.6,0.5-1
			c0-0.3-0.1-0.6-0.3-0.9c-0.2-0.2-0.6-0.5-1.2-0.9c-0.7-0.5-1.2-0.9-1.4-1.2c-0.2-0.3-0.3-0.7-0.3-1.1c0-0.6,0.2-1.1,0.7-1.6
			c0.5-0.4,1.1-0.7,1.8-0.7c0.4,0,0.8,0.1,1.1,0.3C273.4,215.3,273.8,215.6,274.1,216.1z"/>
		<path fill="#FAE924" d="M276.7,221.8c0.3,0,0.5,0.1,0.7,0.3c0.2,0.2,0.3,0.4,0.3,0.7s-0.1,0.5-0.3,0.7c-0.2,0.2-0.4,0.3-0.7,0.3
			c-0.3,0-0.5-0.1-0.7-0.3c-0.2-0.2-0.3-0.4-0.3-0.7s0.1-0.5,0.3-0.7C276.2,221.9,276.4,221.8,276.7,221.8z"/>
	</g>
	<g>
		<g>
			<path fill="#FFFFFF" d="M24.5,29.1c-0.2,0.1-0.4,0.2-0.5,0.3c-0.1,0.1-0.3,0.2-0.4,0.4c-0.3,0.2-0.5,0.5-0.8,0.8
				c-0.5,0.6-1,1.2-1.4,1.8c-0.9,1.2-1.8,2.5-2.6,3.8l-0.1-1l1.6,1.4c0.5,0.5,1,1,1.4,1.6c0.9,1.1,1.7,2.3,2.3,3.7L23.8,42
				c-1.4-0.7-2.5-1.6-3.5-2.5c-0.5-0.5-1-1-1.5-1.5l-1.3-1.7L17,35.7l0.4-0.5c1-1.2,2.1-2.4,3.2-3.5c0.6-0.5,1.1-1.1,1.8-1.6
				c0.3-0.2,0.6-0.5,1-0.7c0.2-0.1,0.4-0.2,0.5-0.3c0.2-0.1,0.4-0.1,0.6-0.2L24.5,29.1z"/>
		</g>
		<g>
			<path fill="#FFFFFF" d="M21.6,34.5c0,0,0.8-0.1,2.4-0.4c1.6-0.2,3.9-0.5,6.9-0.5c3,0,6.6,0.1,10.8,0.6c2.1,0.2,4.3,0.6,6.6,0.9
				c2.3,0.4,4.7,0.8,7.2,1.4c5,1.1,10.4,2.6,16,4.3c5.6,1.8,11.5,4,17.4,6.5c5.9,2.5,11.9,5.4,17.9,8.5c3,1.6,6,3.2,8.9,5
				c1.5,0.9,3,1.7,4.4,2.6l4.4,2.7c1.5,0.9,2.9,1.9,4.3,2.9c1.4,1,2.8,1.9,4.2,2.9c1.4,1,2.8,2,4.1,3l2.1,1.5l2,1.6
				c1.3,1,2.7,2.1,4,3.1c1.3,1,2.6,2.1,3.8,3.2c1.3,1.1,2.5,2.1,3.8,3.2c1.2,1.1,2.4,2.2,3.6,3.2c4.8,4.3,9.2,8.7,13.3,12.9
				c2.1,2.1,3.9,4.3,5.8,6.3c1.9,2,3.6,4.1,5.3,6.1c3.4,3.9,6.2,7.7,8.8,10.9c2.5,3.4,4.6,6.3,6.3,8.8c3.3,5,5.2,7.8,5.2,7.8
				s-2-2.8-5.5-7.6c-1.8-2.4-4-5.3-6.6-8.5c-2.7-3.2-5.6-6.9-9-10.7c-1.7-1.9-3.4-3.9-5.4-5.9c-1.9-2-3.8-4.1-5.9-6.2
				c-2.1-2-4.2-4.2-6.5-6.3c-2.3-2.1-4.5-4.3-6.9-6.4c-1.2-1.1-2.4-2.1-3.6-3.2c-1.2-1.1-2.5-2.1-3.8-3.1c-1.3-1-2.5-2.1-3.8-3.1
				c-1.3-1-2.6-2-4-3.1l-2-1.5l-2.1-1.5c-1.4-1-2.7-2-4.1-3c-1.4-1-2.8-1.9-4.2-2.9c-1.4-0.9-2.8-1.9-4.3-2.8l-4.3-2.7
				c-1.4-0.9-2.9-1.8-4.4-2.6c-2.9-1.8-5.9-3.4-8.8-5c-5.9-3.1-11.8-6.1-17.7-8.6c-5.9-2.5-11.6-4.8-17.2-6.7
				c-5.5-1.9-10.9-3.5-15.8-4.6c-2.5-0.6-4.9-1.1-7.2-1.6c-2.3-0.4-4.5-0.8-6.5-1.1C37.6,34.2,34,34,31,33.9c-3,0-5.3,0.1-6.9,0.2
				C22.5,34.4,21.6,34.5,21.6,34.5z"/>
		</g>
	</g>
	<g>
		<g>
			<path fill="#FFFFFF" d="M84.2,299.7c-0.2-0.1-0.4-0.1-0.5-0.2c-0.2-0.1-0.4-0.2-0.5-0.3c-0.3-0.2-0.6-0.5-0.9-0.8
				c-0.6-0.5-1.1-1.1-1.6-1.7c-1-1.2-2-2.4-2.9-3.7l-0.4-0.5l0.5-0.5l1.4-1.6c0.5-0.5,1-1,1.6-1.4c1.1-0.9,2.3-1.7,3.7-2.3l0.1,0.1
				c-0.7,1.3-1.6,2.5-2.5,3.5c-0.5,0.5-1,1-1.5,1.5l-1.7,1.3l0.1-1c0.7,1.3,1.5,2.7,2.3,4c0.4,0.6,0.8,1.3,1.3,1.9
				c0.2,0.3,0.5,0.6,0.7,0.9c0.1,0.2,0.3,0.3,0.4,0.4c0.1,0.1,0.3,0.2,0.5,0.3L84.2,299.7z"/>
		</g>
		<g>
			<path fill="#FFFFFF" d="M81.9,293.9c0,0,0.6,0.1,1.8,0.4c1.2,0.3,2.9,0.6,5.1,1c2.2,0.4,4.9,0.9,8,1.2c3.1,0.4,6.6,0.7,10.5,0.9
				c1.9,0.1,3.9,0.1,6,0.1c2.1-0.1,4.2-0.1,6.4-0.2c2.2-0.1,4.5-0.4,6.7-0.6c2.3-0.3,4.6-0.6,7-1.1c4.7-0.9,9.6-2,14.3-3.6
				c4.8-1.6,9.5-3.5,14.1-5.8l1.7-0.8c0.6-0.3,1.1-0.6,1.7-0.9c1.1-0.6,2.2-1.2,3.3-1.9c1.1-0.7,2.2-1.3,3.2-2
				c0.5-0.3,1.1-0.7,1.6-1l1.5-1.1c1-0.7,2.1-1.4,3.1-2.2c1-0.8,2-1.5,2.9-2.3c2-1.5,3.8-3.2,5.6-4.7c1.8-1.6,3.4-3.3,5.1-4.9
				c1.6-1.6,3.2-3.3,4.7-4.9c1.5-1.7,2.8-3.3,4.2-4.9c1.3-1.6,2.5-3.2,3.7-4.7c1.2-1.5,2.2-3,3.3-4.5c1-1.4,2-2.8,2.9-4.1
				c1.7-2.6,3.2-4.9,4.4-6.9c2.3-3.9,3.6-6.1,3.6-6.1s-1.2,2.3-3.3,6.3c-1.1,2-2.5,4.3-4.1,7.1c-0.8,1.4-1.8,2.7-2.7,4.2
				c-1,1.5-2,3-3.2,4.6c-1.2,1.6-2.3,3.2-3.6,4.9c-1.3,1.6-2.7,3.3-4.1,5c-1.5,1.7-3,3.4-4.6,5.1c-0.8,0.8-1.7,1.7-2.5,2.5
				c-0.9,0.8-1.7,1.7-2.6,2.5c-1.8,1.6-3.6,3.3-5.6,4.8c-1,0.8-2,1.6-3,2.4c-1,0.7-2.1,1.5-3.1,2.2l-1.6,1.1c-0.5,0.4-1.1,0.7-1.6,1
				c-1.1,0.7-2.2,1.4-3.3,2.1c-1.1,0.6-2.3,1.3-3.4,1.9c-0.6,0.3-1.1,0.6-1.7,1l-1.7,0.9c-4.6,2.4-9.5,4.2-14.4,5.8
				c-4.9,1.6-9.8,2.7-14.6,3.6c-2.4,0.4-4.8,0.7-7.1,1c-2.3,0.2-4.6,0.4-6.9,0.4c-2.2,0.1-4.4,0.1-6.5,0.1c-2.1-0.1-4.1-0.1-6.1-0.3
				c-3.9-0.2-7.4-0.7-10.5-1.2c-3.1-0.5-5.8-1.1-8-1.6c-1.1-0.2-2.1-0.5-2.9-0.7c-0.9-0.2-1.6-0.4-2.1-0.6
				C82.5,294.1,81.9,293.9,81.9,293.9z"/>
		</g>
	</g>
</g>
</svg>
