<?xml version="1.0" encoding="utf-8"?>
<!-- Generator: Adobe Illustrator 18.1.0, SVG Export Plug-In . SVG Version: 6.00 Build 0)  -->
<svg version="1.1" id="Layer_1" xmlns="http://www.w3.org/2000/svg" xmlns:xlink="http://www.w3.org/1999/xlink" x="0px" y="0px"
	 viewBox="0 0 344 358" enable-background="new 0 0 344 358" xml:space="preserve">
<g>
	<path opacity="0.6" fill="#FAE924" d="M199.9,60.2H6.9c-3,0-5.4-2.4-5.4-5.4v0c0-3,2.4-5.4,5.4-5.4h193"/>
	<path fill="none" stroke="#FFFFFF" stroke-width="1.9718" stroke-miterlimit="10" d="M337.7,59.7H7c-3,0-5.4-2.4-5.4-5.4v-0.2
		c0-3,2.4-5.4,5.4-5.4h330.7c3,0,5.4,2.4,5.4,5.4v0.2C343.1,57.3,340.7,59.7,337.7,59.7z"/>
	<g>
		<g>
			<path fill="#FFFFFF" d="M49.6,33.4c0,0.2,0,0.4,0.1,0.6c0.1,0.2,0.1,0.3,0.2,0.5c0.1,0.3,0.3,0.7,0.5,1c0.4,0.7,0.8,1.3,1.2,2
				c0.8,1.3,1.7,2.5,2.7,3.7l-1-0.3l1.9-1c0.6-0.3,1.3-0.6,2-0.8c1.4-0.4,2.7-0.8,4.3-0.9l0.1,0.2c-1.1,1-2.3,1.8-3.6,2.5
				c-0.6,0.3-1.3,0.6-1.9,0.9l-2,0.7l-0.7,0.2l-0.3-0.5c-0.8-1.4-1.5-2.7-2.2-4.2c-0.3-0.7-0.6-1.4-0.9-2.2
				c-0.1-0.4-0.2-0.8-0.3-1.1c-0.1-0.2-0.1-0.4-0.1-0.6c0-0.2,0-0.4,0-0.6L49.6,33.4z"/>
		</g>
		<g>
			<path fill="#FFFFFF" d="M53.7,37.9c0,0,0-0.3,0.1-1c0.1-0.6,0.2-1.6,0.3-2.8c0.2-1.2,0.4-2.7,0.7-4.3c0.3-1.7,0.7-3.6,1.3-5.6
				c0.6-2,1.3-4.2,2.4-6.4c1.1-2.2,2.6-4.4,4.7-6.2c2-1.8,4.6-3.2,7.3-4c2.7-0.8,5.6-1.2,8.4-1.3c2.8,0,5.7,0.1,8.4,0.5
				c2.7,0.3,5.4,0.8,8,1.4c1.3,0.3,2.5,0.6,3.8,0.9c1.2,0.3,2.4,0.6,3.6,0.9c2.3,0.6,4.5,1.3,6.5,1.9c2,0.6,3.8,1.2,5.4,1.8
				c1.6,0.6,3,1,4.1,1.5c2.3,0.8,3.6,1.4,3.6,1.4s-1.3-0.3-3.7-1c-2.3-0.7-5.7-1.5-9.7-2.6c-1-0.3-2.1-0.5-3.1-0.8
				c-1.1-0.2-2.2-0.6-3.4-0.8c-2.3-0.5-4.8-1-7.3-1.5c-2.5-0.5-5.2-0.9-7.9-1.2c-2.7-0.3-5.4-0.4-8.1-0.4c-2.7,0-5.4,0.4-7.9,1.1
				c-2.5,0.7-4.8,1.9-6.7,3.5c-1.9,1.6-3.4,3.6-4.5,5.6c-1.1,2-2,4.1-2.6,6c-0.7,1.9-1.2,3.8-1.6,5.4c-0.4,1.6-0.8,3.1-1,4.3
				C54,36.6,53.7,37.9,53.7,37.9z"/>
		</g>
	</g>
	<g>
		<path fill="#FAE924" d="M94,316.3l-0.7,0.9c-1.2-1.1-2.6-1.7-4.1-1.7c-1,0-1.9,0.2-2.8,0.7c-0.9,0.5-1.6,1.1-2,2
			c-0.5,0.8-0.7,1.7-0.7,2.7c0,0.8,0.2,1.6,0.6,2.3c0.4,0.7,0.9,1.2,1.6,1.5c0.7,0.4,1.5,0.6,2.4,0.6c1.4,0,2.7-0.4,3.9-1.3l0.6,0.9
			c-0.9,0.6-1.7,1-2.3,1.2c-0.6,0.2-1.4,0.3-2.2,0.3c-1.6,0-2.8-0.4-3.8-1.2c-1.3-1.1-2-2.5-2-4.2c0-1.8,0.7-3.4,2-4.6
			c1.3-1.3,2.9-1.9,4.9-1.9c0.9,0,1.7,0.1,2.4,0.4C92.5,315.2,93.3,315.7,94,316.3z"/>
		<path fill="#FAE924" d="M97,314.5h1.1l-0.6,4.5c0.9-1,1.9-1.5,3-1.5c0.8,0,1.5,0.3,2.1,0.8c0.5,0.5,0.8,1.2,0.8,2.1
			c0,0.5-0.1,1.1-0.2,1.9l-0.5,3.8h-1.1l0.5-3.8c0.1-0.8,0.2-1.4,0.2-1.9c0-0.6-0.2-1-0.5-1.4s-0.8-0.5-1.4-0.5
			c-0.5,0-1.1,0.1-1.5,0.4c-0.5,0.3-0.9,0.7-1.1,1.2c-0.3,0.5-0.5,1.3-0.6,2.4l-0.5,3.6h-1.1L97,314.5z"/>
		<path fill="#FAE924" d="M110.4,317.5c0.7,0,1.4,0.2,2,0.5c0.6,0.3,1.1,0.8,1.4,1.4c0.3,0.6,0.5,1.3,0.5,2.1c0,0.9-0.2,1.7-0.6,2.4
			c-0.4,0.8-1,1.3-1.7,1.7c-0.7,0.4-1.5,0.6-2.4,0.6c-1.1,0-2-0.4-2.8-1.1c-0.7-0.7-1.1-1.7-1.1-2.8c0-0.9,0.2-1.7,0.6-2.5
			c0.4-0.8,1-1.3,1.8-1.8C108.7,317.7,109.5,317.5,110.4,317.5z M110.4,318.5c-0.7,0-1.3,0.2-1.9,0.5c-0.6,0.3-1,0.8-1.4,1.4
			c-0.3,0.6-0.5,1.2-0.5,1.9c0,0.9,0.3,1.6,0.8,2.2s1.2,0.8,2.1,0.8c0.7,0,1.3-0.2,1.8-0.5c0.5-0.3,1-0.8,1.3-1.4s0.5-1.3,0.5-1.9
			c0-0.6-0.1-1.1-0.4-1.5c-0.2-0.4-0.6-0.8-1-1C111.4,318.6,110.9,318.5,110.4,318.5z"/>
		<path fill="#FAE924" d="M121.1,317.5c0.7,0,1.4,0.2,2,0.5c0.6,0.3,1.1,0.8,1.4,1.4c0.3,0.6,0.5,1.3,0.5,2.1c0,0.9-0.2,1.7-0.6,2.4
			c-0.4,0.8-1,1.3-1.7,1.7c-0.7,0.4-1.5,0.6-2.4,0.6c-1.1,0-2-0.4-2.8-1.1c-0.7-0.7-1.1-1.7-1.1-2.8c0-0.9,0.2-1.7,0.6-2.5
			c0.4-0.8,1-1.3,1.8-1.8C119.4,317.7,120.2,317.5,121.1,317.5z M121.1,318.5c-0.7,0-1.3,0.2-1.9,0.5c-0.6,0.3-1,0.8-1.4,1.4
			c-0.3,0.6-0.5,1.2-0.5,1.9c0,0.9,0.3,1.6,0.8,2.2s1.2,0.8,2.1,0.8c0.7,0,1.3-0.2,1.8-0.5c0.5-0.3,1-0.8,1.3-1.4s0.5-1.3,0.5-1.9
			c0-0.6-0.1-1.1-0.4-1.5c-0.2-0.4-0.6-0.8-1-1C122.1,318.6,121.6,318.5,121.1,318.5z"/>
		<path fill="#FAE924" d="M131.9,318.6l-0.6,0.9c-0.5-0.7-1-1-1.7-1c-0.4,0-0.7,0.1-0.9,0.4c-0.3,0.2-0.4,0.5-0.4,0.8
			c0,0.2,0.1,0.4,0.2,0.6c0.2,0.2,0.5,0.5,1.1,0.8c0.8,0.5,1.3,1,1.6,1.4c0.3,0.4,0.4,0.8,0.4,1.3c0,0.7-0.2,1.3-0.7,1.7
			c-0.5,0.5-1.1,0.7-1.9,0.7c-1,0-1.9-0.5-2.6-1.4l0.7-0.8c0.6,0.8,1.3,1.1,2,1.1c0.4,0,0.8-0.1,1.1-0.4s0.5-0.6,0.5-1
			c0-0.3-0.1-0.6-0.3-0.9c-0.2-0.2-0.6-0.5-1.2-0.9c-0.7-0.5-1.2-0.9-1.4-1.2c-0.2-0.3-0.3-0.7-0.3-1.1c0-0.6,0.2-1.1,0.7-1.6
			c0.5-0.4,1.1-0.7,1.8-0.7c0.4,0,0.8,0.1,1.1,0.3C131.2,317.9,131.6,318.2,131.9,318.6z"/>
		<path fill="#FAE924" d="M142.1,322.1h-7.5c0,1,0.2,1.8,0.8,2.3c0.5,0.6,1.2,0.9,2.1,0.9c0.6,0,1.1-0.1,1.6-0.4
			c0.5-0.2,0.9-0.6,1.2-1l0.8,0.7c-0.4,0.5-0.9,0.9-1.6,1.2c-0.7,0.3-1.4,0.5-2.1,0.5c-1.3,0-2.3-0.4-3-1.2c-0.7-0.8-1-1.7-1-2.7
			c0-0.8,0.2-1.6,0.7-2.4c0.4-0.8,1-1.4,1.8-1.8c0.7-0.4,1.6-0.6,2.4-0.6c1.1,0,2,0.4,2.7,1.1c0.7,0.7,1.1,1.7,1.1,2.8
			C142.1,321.6,142.1,321.8,142.1,322.1z M141.1,321.2c0-0.8-0.3-1.4-0.8-1.9c-0.5-0.5-1.1-0.7-1.9-0.7c-0.8,0-1.6,0.2-2.2,0.7
			s-1.1,1.1-1.4,1.9H141.1z"/>
		<path fill="#FAE924" d="M153.6,314.8l-0.1,1c-0.4-0.4-0.8-0.6-1.1-0.6c-0.2,0-0.4,0.1-0.6,0.3c-0.2,0.2-0.3,0.6-0.4,1.3l-0.1,0.9
			h1.8l-0.1,0.9h-1.8l-1,7.4h-1.1l1-7.4h-1l0.1-0.9h1l0.1-0.7c0.1-0.9,0.3-1.4,0.4-1.7c0.1-0.3,0.3-0.5,0.6-0.7s0.6-0.3,0.9-0.3
			C152.8,314.3,153.2,314.4,153.6,314.8z"/>
		<path fill="#FAE924" d="M154.9,317.7h1.1l-0.1,1.1c0.3-0.4,0.6-0.7,1-0.9c0.4-0.2,0.8-0.3,1.2-0.3c0.3,0,0.6,0.1,0.9,0.2l-0.5,1
			c-0.3-0.1-0.5-0.2-0.7-0.2c-0.4,0-0.7,0.1-1.1,0.4c-0.4,0.3-0.7,0.6-0.9,1.1c-0.2,0.5-0.4,1.3-0.6,2.5l-0.5,3.6h-1.1L154.9,317.7z
			"/>
		<path fill="#FAE924" d="M164.2,317.5c0.7,0,1.4,0.2,2,0.5c0.6,0.3,1.1,0.8,1.4,1.4c0.3,0.6,0.5,1.3,0.5,2.1c0,0.9-0.2,1.7-0.6,2.4
			c-0.4,0.8-1,1.3-1.7,1.7c-0.7,0.4-1.5,0.6-2.4,0.6c-1.1,0-2.1-0.4-2.8-1.1c-0.7-0.7-1.1-1.7-1.1-2.8c0-0.9,0.2-1.7,0.6-2.5
			c0.4-0.8,1-1.3,1.8-1.8C162.6,317.7,163.4,317.5,164.2,317.5z M164.2,318.5c-0.7,0-1.3,0.2-1.9,0.5s-1,0.8-1.4,1.4
			c-0.3,0.6-0.5,1.2-0.5,1.9c0,0.9,0.3,1.6,0.8,2.2c0.5,0.6,1.2,0.8,2.1,0.8c0.7,0,1.3-0.2,1.8-0.5c0.5-0.3,1-0.8,1.3-1.4
			c0.3-0.6,0.5-1.3,0.5-1.9c0-0.6-0.1-1.1-0.4-1.5c-0.2-0.4-0.6-0.8-1-1C165.2,318.6,164.7,318.5,164.2,318.5z"/>
		<path fill="#FAE924" d="M171.1,317.7h1.1l-0.2,1.2c0.3-0.4,0.7-0.8,1.2-1c0.5-0.2,1-0.4,1.5-0.4c0.6,0,1.2,0.2,1.7,0.6
			c0.4,0.3,0.7,0.7,0.8,1.3c0.4-0.6,0.9-1.1,1.4-1.4c0.6-0.3,1.1-0.5,1.7-0.5c0.8,0,1.4,0.2,1.9,0.7c0.5,0.5,0.7,1.1,0.7,1.9
			c0,0.4,0,0.8-0.1,1.3l-0.6,4.6h-1.1l0.5-4c0.1-0.8,0.2-1.5,0.2-1.8c0-0.5-0.2-0.9-0.5-1.2c-0.3-0.3-0.7-0.5-1.3-0.5
			c-0.6,0-1.1,0.2-1.6,0.5s-0.8,0.8-1,1.2c-0.2,0.5-0.4,1.1-0.5,1.8l-0.6,4h-1.1l0.6-4.6c0.1-0.5,0.1-0.9,0.1-1.2
			c0-0.5-0.2-1-0.5-1.3c-0.3-0.3-0.7-0.5-1.3-0.5c-0.4,0-0.9,0.1-1.3,0.3c-0.4,0.2-0.7,0.5-1,0.8c-0.3,0.3-0.4,0.7-0.6,1.2
			c-0.1,0.5-0.2,0.9-0.3,1.3l-0.5,3.9H170L171.1,317.7z"/>
		<path fill="#FAE924" d="M191.1,317.7h1.1l-0.2,1.2c0.3-0.4,0.7-0.8,1.2-1c0.5-0.2,1-0.4,1.5-0.4c0.6,0,1.2,0.2,1.7,0.6
			c0.4,0.3,0.7,0.7,0.8,1.3c0.4-0.6,0.9-1.1,1.4-1.4c0.6-0.3,1.1-0.5,1.7-0.5c0.8,0,1.4,0.2,1.9,0.7c0.5,0.5,0.8,1.1,0.8,1.9
			c0,0.4,0,0.8-0.1,1.3l-0.6,4.6h-1.1l0.5-4c0.1-0.8,0.2-1.5,0.2-1.8c0-0.5-0.2-0.9-0.5-1.2c-0.3-0.3-0.7-0.5-1.3-0.5
			c-0.6,0-1.1,0.2-1.5,0.5c-0.5,0.3-0.8,0.8-1,1.2c-0.2,0.5-0.4,1.1-0.4,1.8l-0.6,4h-1.1l0.6-4.6c0.1-0.5,0.1-0.9,0.1-1.2
			c0-0.5-0.2-1-0.5-1.3c-0.3-0.3-0.7-0.5-1.3-0.5c-0.4,0-0.9,0.1-1.2,0.3c-0.4,0.2-0.7,0.5-1,0.8c-0.3,0.3-0.4,0.7-0.6,1.2
			c-0.1,0.5-0.2,0.9-0.3,1.3l-0.5,3.9H190L191.1,317.7z"/>
		<path fill="#FAE924" d="M206.8,317.7h1.1l-0.5,3.5c-0.1,1-0.2,1.7-0.2,2c0,0.6,0.2,1.1,0.6,1.5c0.4,0.4,0.9,0.6,1.6,0.6
			c0.5,0,1-0.2,1.4-0.5c0.4-0.3,0.7-0.7,0.8-1.2c0.1-0.3,0.2-0.8,0.3-1.7l0.6-4.2h1.1l-0.4,3.2c-0.2,1.5-0.4,2.6-0.6,3.2
			c-0.2,0.6-0.6,1.2-1.2,1.6c-0.6,0.4-1.2,0.6-2,0.6c-0.9,0-1.7-0.3-2.2-0.9c-0.6-0.6-0.9-1.3-0.9-2.2c0-0.4,0-0.8,0.1-1.2l0.1-0.7
			l0-0.3L206.8,317.7z"/>
		<path fill="#FAE924" d="M216.5,314.5h1l-1.6,11.6H215L216.5,314.5z"/>
		<path fill="#FAE924" d="M221.2,314.6h1.1l-0.4,3.1h1.7l-0.1,0.9h-1.7l-1,7.4h-1.1l1-7.4h-1.4l0.1-0.9h1.4L221.2,314.6z"/>
		<path fill="#FAE924" d="M225.4,317.7h1l-1.1,8.4h-1.1L225.4,317.7z M226.2,314.3c0.2,0,0.4,0.1,0.6,0.3s0.3,0.4,0.3,0.6
			c0,0.2-0.1,0.4-0.3,0.6c-0.2,0.2-0.4,0.3-0.6,0.3c-0.2,0-0.4-0.1-0.6-0.3c-0.2-0.2-0.3-0.4-0.3-0.6c0-0.2,0.1-0.4,0.3-0.6
			C225.8,314.3,226,314.3,226.2,314.3z"/>
		<path fill="#FAE924" d="M229.3,317.7h1.1l-0.2,1.3c1-1,2.1-1.5,3.3-1.5c1.1,0,2.1,0.4,2.8,1.1c0.7,0.7,1.1,1.7,1.1,2.8
			c0,1.3-0.5,2.5-1.4,3.4c-0.9,1-2.1,1.4-3.4,1.4c-0.7,0-1.3-0.1-1.8-0.4c-0.5-0.3-1-0.8-1.3-1.4l-0.6,4.7h-1.1L229.3,317.7z
			 M233.4,318.5c-0.7,0-1.3,0.2-1.9,0.5c-0.6,0.3-1,0.8-1.4,1.4s-0.5,1.3-0.5,2c0,0.9,0.3,1.6,0.8,2.1c0.6,0.5,1.3,0.8,2.1,0.8
			c1,0,1.9-0.4,2.6-1.1c0.7-0.7,1.1-1.7,1.1-2.7c0-0.9-0.3-1.6-0.8-2.1C235,318.8,234.3,318.5,233.4,318.5z"/>
		<path fill="#FAE924" d="M240.5,314.5h1l-1.6,11.6H239L240.5,314.5z"/>
		<path fill="#FAE924" d="M251.4,322.1h-7.5c0,1,0.2,1.8,0.8,2.3c0.5,0.6,1.2,0.9,2.1,0.9c0.6,0,1.1-0.1,1.6-0.4
			c0.5-0.2,0.9-0.6,1.2-1l0.8,0.7c-0.4,0.5-0.9,0.9-1.6,1.2s-1.4,0.5-2.1,0.5c-1.3,0-2.3-0.4-3-1.2c-0.7-0.8-1-1.7-1-2.7
			c0-0.8,0.2-1.6,0.7-2.4c0.4-0.8,1-1.4,1.8-1.8c0.7-0.4,1.6-0.6,2.4-0.6c1.1,0,2,0.4,2.7,1.1c0.7,0.7,1.1,1.7,1.1,2.8
			C251.4,321.6,251.4,321.8,251.4,322.1z M250.4,321.2c0-0.8-0.3-1.4-0.8-1.9c-0.5-0.5-1.1-0.7-1.9-0.7c-0.8,0-1.6,0.2-2.2,0.7
			s-1.1,1.1-1.4,1.9H250.4z"/>
		<path fill="#FAE924" d="M114.5,343.2l-0.9,0.5c-0.6-1-1.6-1.5-2.8-1.5c-0.7,0-1.4,0.2-2,0.5c-0.6,0.3-1.1,0.8-1.4,1.4
			c-0.3,0.6-0.5,1.2-0.5,1.9c0,0.6,0.1,1.1,0.4,1.6c0.3,0.5,0.6,0.8,1.1,1.1c0.5,0.3,1,0.4,1.6,0.4c0.6,0,1.3-0.1,1.9-0.4
			c0.6-0.3,1-0.6,1.4-1l0.9,0.6c-0.6,0.6-1.2,1-1.8,1.3c-0.6,0.3-1.4,0.4-2.3,0.4c-1.3,0-2.4-0.4-3.1-1.1c-0.7-0.7-1.1-1.7-1.1-2.9
			c0-1.3,0.5-2.5,1.5-3.4c1-0.9,2.2-1.4,3.6-1.4c0.8,0,1.6,0.2,2.2,0.5C113.7,342,114.2,342.5,114.5,343.2z"/>
		<path fill="#FAE924" d="M117.8,338.1h1.1l-0.6,4.5c0.9-1,1.9-1.5,3-1.5c0.8,0,1.5,0.3,2.1,0.8c0.5,0.5,0.8,1.2,0.8,2.1
			c0,0.5-0.1,1.1-0.2,1.9l-0.5,3.8h-1.1l0.5-3.8c0.1-0.8,0.2-1.4,0.2-1.9c0-0.6-0.2-1-0.5-1.4c-0.4-0.4-0.8-0.5-1.4-0.5
			c-0.5,0-1.1,0.1-1.5,0.4c-0.5,0.3-0.9,0.7-1.1,1.2c-0.3,0.5-0.5,1.3-0.6,2.4l-0.5,3.6h-1.1L117.8,338.1z"/>
		<path fill="#FAE924" d="M131.1,341.2c0.7,0,1.4,0.2,2,0.5c0.6,0.3,1.1,0.8,1.4,1.4c0.3,0.6,0.5,1.3,0.5,2.1c0,0.9-0.2,1.7-0.6,2.4
			c-0.4,0.8-1,1.3-1.7,1.7c-0.7,0.4-1.5,0.6-2.4,0.6c-1.1,0-2.1-0.4-2.8-1.1c-0.7-0.7-1.1-1.7-1.1-2.8c0-0.9,0.2-1.7,0.6-2.5
			c0.4-0.8,1-1.3,1.8-1.8C129.5,341.4,130.3,341.2,131.1,341.2z M131.1,342.2c-0.7,0-1.3,0.2-1.9,0.5c-0.6,0.3-1,0.8-1.4,1.4
			c-0.3,0.6-0.5,1.2-0.5,1.9c0,0.9,0.3,1.6,0.8,2.2c0.5,0.6,1.2,0.8,2.1,0.8c0.7,0,1.3-0.2,1.8-0.5c0.5-0.3,1-0.8,1.3-1.4
			c0.3-0.6,0.5-1.3,0.5-1.9c0-0.6-0.1-1.1-0.4-1.5c-0.2-0.4-0.6-0.8-1-1C132.1,342.3,131.6,342.2,131.1,342.2z"/>
		<path fill="#FAE924" d="M137.9,341.4h1l-1.1,8.4h-1.1L137.9,341.4z M138.7,337.9c0.2,0,0.4,0.1,0.6,0.3c0.2,0.2,0.3,0.4,0.3,0.6
			c0,0.2-0.1,0.4-0.3,0.6c-0.2,0.2-0.4,0.3-0.6,0.3c-0.2,0-0.4-0.1-0.6-0.3c-0.2-0.2-0.3-0.4-0.3-0.6c0-0.2,0.1-0.4,0.3-0.6
			C138.3,338,138.5,337.9,138.7,337.9z"/>
		<path fill="#FAE924" d="M149.4,343.2l-0.9,0.5c-0.6-1-1.6-1.5-2.8-1.5c-0.7,0-1.4,0.2-2,0.5c-0.6,0.3-1.1,0.8-1.4,1.4
			c-0.3,0.6-0.5,1.2-0.5,1.9c0,0.6,0.1,1.1,0.4,1.6c0.3,0.5,0.6,0.8,1.1,1.1c0.5,0.3,1,0.4,1.6,0.4c0.6,0,1.3-0.1,1.9-0.4
			c0.6-0.3,1-0.6,1.4-1l0.9,0.6c-0.6,0.6-1.2,1-1.8,1.3c-0.6,0.3-1.4,0.4-2.3,0.4c-1.3,0-2.4-0.4-3.1-1.1c-0.7-0.7-1.1-1.7-1.1-2.9
			c0-1.3,0.5-2.5,1.5-3.4c1-0.9,2.2-1.4,3.6-1.4c0.8,0,1.6,0.2,2.2,0.5S149.1,342.5,149.4,343.2z"/>
		<path fill="#FAE924" d="M159.7,345.8h-7.5c0,1,0.2,1.8,0.8,2.3c0.5,0.6,1.2,0.9,2.1,0.9c0.6,0,1.1-0.1,1.6-0.4
			c0.5-0.2,0.9-0.6,1.2-1l0.8,0.7c-0.4,0.5-0.9,0.9-1.6,1.2c-0.7,0.3-1.4,0.5-2.1,0.5c-1.3,0-2.3-0.4-3-1.2c-0.7-0.8-1-1.7-1-2.7
			c0-0.8,0.2-1.6,0.7-2.4c0.4-0.8,1-1.4,1.8-1.8c0.7-0.4,1.6-0.6,2.4-0.6c1.1,0,2,0.4,2.7,1.1c0.7,0.7,1.1,1.7,1.1,2.8
			C159.8,345.2,159.8,345.5,159.7,345.8z M158.8,344.8c0-0.8-0.3-1.4-0.8-1.9c-0.5-0.5-1.1-0.7-1.9-0.7c-0.8,0-1.6,0.2-2.2,0.7
			s-1.1,1.1-1.4,1.9H158.8z"/>
		<path fill="#FAE924" d="M174.8,349.8h-1.1l0.2-1.3c-1,1-2.1,1.5-3.3,1.5c-1.1,0-2.1-0.4-2.8-1.1c-0.7-0.7-1.1-1.7-1.1-2.8
			c0-1.3,0.5-2.5,1.4-3.4c1-1,2.1-1.4,3.4-1.4c0.7,0,1.3,0.1,1.8,0.4c0.5,0.3,1,0.7,1.3,1.4l0.2-1.6h1.1L174.8,349.8z M170.7,349
			c0.7,0,1.3-0.2,1.9-0.5c0.6-0.3,1-0.8,1.4-1.4c0.3-0.6,0.5-1.3,0.5-2c0-0.9-0.3-1.6-0.8-2.1c-0.5-0.5-1.3-0.8-2.1-0.8
			c-1,0-1.9,0.4-2.6,1.1c-0.7,0.7-1.1,1.7-1.1,2.7c0,0.9,0.3,1.6,0.8,2.1C169.1,348.7,169.8,349,170.7,349z"/>
		<path fill="#FAE924" d="M178.8,341.4h1l-0.2,1.3c0.9-1,1.8-1.5,3-1.5c0.9,0,1.6,0.3,2.1,0.8s0.8,1.2,0.8,2.1c0,0.4-0.1,1-0.2,1.8
			l-0.5,3.8h-1.1l0.5-3.8c0.1-0.8,0.2-1.4,0.2-1.8c0-0.6-0.2-1.1-0.5-1.4c-0.4-0.4-0.8-0.5-1.4-0.5c-0.6,0-1.1,0.1-1.6,0.4
			c-0.5,0.3-0.9,0.7-1.1,1.2c-0.3,0.5-0.5,1.3-0.6,2.4l-0.5,3.6h-1.1L178.8,341.4z"/>
		<path fill="#FAE924" d="M192.7,342.3l-0.6,0.9c-0.5-0.7-1-1-1.7-1c-0.4,0-0.7,0.1-0.9,0.4s-0.4,0.5-0.4,0.8c0,0.2,0.1,0.4,0.2,0.6
			c0.2,0.2,0.5,0.5,1.1,0.8c0.8,0.5,1.3,1,1.6,1.4c0.3,0.4,0.4,0.8,0.4,1.3c0,0.7-0.2,1.3-0.7,1.7c-0.5,0.5-1.1,0.7-1.9,0.7
			c-1,0-1.9-0.5-2.6-1.4l0.7-0.8c0.6,0.8,1.3,1.1,2,1.1c0.4,0,0.8-0.1,1.1-0.4c0.3-0.3,0.5-0.6,0.5-1c0-0.3-0.1-0.6-0.3-0.9
			c-0.1-0.2-0.5-0.5-1.2-0.9c-0.7-0.5-1.2-0.9-1.4-1.2c-0.2-0.3-0.3-0.7-0.3-1.1c0-0.6,0.2-1.1,0.7-1.6c0.5-0.4,1.1-0.7,1.8-0.7
			c0.4,0,0.8,0.1,1.1,0.3C192,341.6,192.4,341.9,192.7,342.3z"/>
		<path fill="#FAE924" d="M194.4,341.4h1.1l1.7,5.9l3.2-5.9h0.2l1.9,6l3.1-6h1.2l-4.3,8.4h-0.2l-1.9-5.9l-3.2,5.9h-0.2L194.4,341.4z
			"/>
		<path fill="#FAE924" d="M216.4,345.8h-7.5c0,1,0.2,1.8,0.8,2.3c0.5,0.6,1.2,0.9,2.1,0.9c0.6,0,1.1-0.1,1.6-0.4
			c0.5-0.2,0.9-0.6,1.2-1l0.8,0.7c-0.4,0.5-0.9,0.9-1.6,1.2c-0.7,0.3-1.4,0.5-2.1,0.5c-1.3,0-2.3-0.4-3-1.2c-0.7-0.8-1-1.7-1-2.7
			c0-0.8,0.2-1.6,0.7-2.4c0.4-0.8,1-1.4,1.8-1.8c0.7-0.4,1.6-0.6,2.4-0.6c1.1,0,2,0.4,2.7,1.1c0.7,0.7,1.1,1.7,1.1,2.8
			C216.4,345.2,216.4,345.5,216.4,345.8z M215.4,344.8c0-0.8-0.3-1.4-0.8-1.9s-1.1-0.7-1.9-0.7c-0.8,0-1.6,0.2-2.2,0.7
			s-1.1,1.1-1.4,1.9H215.4z"/>
		<path fill="#FAE924" d="M219,341.4h1.1l-0.1,1.1c0.3-0.4,0.6-0.7,1-0.9c0.4-0.2,0.8-0.3,1.2-0.3c0.3,0,0.6,0.1,0.9,0.2l-0.5,1
			c-0.3-0.1-0.5-0.2-0.7-0.2c-0.4,0-0.7,0.1-1.1,0.4c-0.4,0.3-0.7,0.6-0.9,1.1c-0.2,0.5-0.4,1.3-0.6,2.5l-0.5,3.6h-1.1L219,341.4z"
			/>
		<path fill="#FAE924" d="M228.5,342.3l-0.6,0.9c-0.5-0.7-1-1-1.7-1c-0.4,0-0.7,0.1-0.9,0.4c-0.3,0.2-0.4,0.5-0.4,0.8
			c0,0.2,0.1,0.4,0.2,0.6c0.2,0.2,0.5,0.5,1.1,0.8c0.8,0.5,1.3,1,1.6,1.4c0.3,0.4,0.4,0.8,0.4,1.3c0,0.7-0.2,1.3-0.7,1.7
			c-0.5,0.5-1.1,0.7-1.9,0.7c-1,0-1.9-0.5-2.6-1.4l0.7-0.8c0.6,0.8,1.3,1.1,2,1.1c0.4,0,0.8-0.1,1.1-0.4c0.3-0.3,0.5-0.6,0.5-1
			c0-0.3-0.1-0.6-0.3-0.9c-0.2-0.2-0.6-0.5-1.2-0.9c-0.7-0.5-1.2-0.9-1.4-1.2c-0.2-0.3-0.3-0.7-0.3-1.1c0-0.6,0.2-1.1,0.7-1.6
			c0.5-0.4,1.1-0.7,1.8-0.7c0.4,0,0.8,0.1,1.1,0.3C227.8,341.6,228.2,341.9,228.5,342.3z"/>
	</g>
	<g>
		<path fill="#FAE924" d="M130.8,11.8h2.4l-1.5,11.3h-1.1l1.4-10.2h-1.5L130.8,11.8z"/>
		<path fill="#FAE924" d="M141.4,11.5c0.9,0,1.6,0.4,2.2,1.1c0.6,0.7,0.9,1.8,0.9,3.2c0,1.6-0.2,3-0.7,4.2c-0.5,1.2-1,2.1-1.7,2.6
			c-0.7,0.5-1.4,0.8-2.1,0.8c-0.6,0-1.1-0.2-1.5-0.5s-0.8-0.8-1.1-1.4c-0.3-0.6-0.4-1.4-0.4-2.4c0-1.6,0.2-3,0.7-4.3
			c0.5-1.2,1-2.1,1.7-2.6C139.9,11.8,140.6,11.5,141.4,11.5z M141.3,12.6c-0.5,0-1,0.2-1.5,0.7c-0.5,0.4-0.9,1.2-1.3,2.2
			c-0.3,1-0.5,2.3-0.5,3.8c0,1,0.2,1.8,0.5,2.3c0.4,0.5,0.8,0.8,1.4,0.8c0.6,0,1.1-0.3,1.6-0.8c0.5-0.5,0.9-1.2,1.2-2.2
			c0.4-1.2,0.6-2.4,0.6-3.8c0-1-0.2-1.8-0.6-2.3C142.3,12.8,141.8,12.6,141.3,12.6z"/>
		<path fill="#FAE924" d="M155.7,15.7l-0.6,0.9c-0.5-0.7-1-1-1.7-1c-0.4,0-0.7,0.1-0.9,0.4s-0.4,0.5-0.4,0.8c0,0.2,0.1,0.4,0.2,0.6
			c0.2,0.2,0.5,0.5,1.1,0.8c0.8,0.5,1.3,1,1.6,1.4c0.3,0.4,0.4,0.8,0.4,1.3c0,0.7-0.2,1.3-0.7,1.7c-0.5,0.5-1.1,0.7-1.9,0.7
			c-1,0-1.9-0.5-2.6-1.4l0.7-0.8c0.6,0.8,1.3,1.1,2,1.1c0.4,0,0.8-0.1,1.1-0.4c0.3-0.3,0.5-0.6,0.5-1c0-0.3-0.1-0.6-0.3-0.9
			c-0.2-0.2-0.6-0.5-1.2-0.9c-0.7-0.5-1.2-0.9-1.4-1.2c-0.2-0.3-0.3-0.7-0.3-1.1c0-0.6,0.2-1.1,0.7-1.6c0.5-0.4,1.1-0.7,1.8-0.7
			c0.4,0,0.8,0.1,1.1,0.3C155,14.9,155.4,15.2,155.7,15.7z"/>
		<path fill="#FAE924" d="M165.9,19.1h-7.5c0,1,0.2,1.8,0.8,2.3c0.5,0.6,1.2,0.9,2.1,0.9c0.6,0,1.1-0.1,1.6-0.4
			c0.5-0.2,0.9-0.6,1.2-1l0.8,0.7c-0.4,0.5-0.9,0.9-1.6,1.2c-0.7,0.3-1.4,0.5-2.1,0.5c-1.3,0-2.3-0.4-3-1.2c-0.7-0.8-1-1.7-1-2.7
			c0-0.8,0.2-1.6,0.7-2.4c0.4-0.8,1-1.4,1.8-1.8c0.7-0.4,1.6-0.6,2.4-0.6c1.1,0,2,0.4,2.7,1.1c0.7,0.7,1.1,1.7,1.1,2.8
			C165.9,18.6,165.9,18.8,165.9,19.1z M164.9,18.2c0-0.8-0.3-1.4-0.8-1.9c-0.5-0.5-1.1-0.7-1.9-0.7c-0.8,0-1.6,0.2-2.2,0.7
			s-1.1,1.1-1.4,1.9H164.9z"/>
		<path fill="#FAE924" d="M176.8,16.5l-0.9,0.5c-0.6-1-1.6-1.5-2.8-1.5c-0.7,0-1.4,0.2-2,0.5s-1.1,0.8-1.4,1.4
			c-0.3,0.6-0.5,1.2-0.5,1.9c0,0.6,0.1,1.1,0.4,1.6s0.6,0.8,1.1,1.1c0.5,0.3,1,0.4,1.6,0.4c0.6,0,1.3-0.1,1.9-0.4
			c0.6-0.3,1-0.6,1.4-1l0.9,0.6c-0.6,0.6-1.2,1-1.8,1.3c-0.6,0.3-1.4,0.4-2.3,0.4c-1.3,0-2.4-0.4-3.1-1.1c-0.7-0.7-1.1-1.7-1.1-2.9
			c0-1.3,0.5-2.5,1.5-3.4c1-0.9,2.2-1.4,3.6-1.4c0.8,0,1.6,0.2,2.2,0.5C175.9,15.4,176.4,15.9,176.8,16.5z"/>
		<path fill="#FAE924" d="M183.4,14.5c0.7,0,1.4,0.2,2,0.5c0.6,0.3,1.1,0.8,1.4,1.4c0.3,0.6,0.5,1.3,0.5,2.1c0,0.9-0.2,1.7-0.6,2.4
			c-0.4,0.8-1,1.3-1.7,1.7c-0.7,0.4-1.5,0.6-2.4,0.6c-1.1,0-2-0.4-2.8-1.1c-0.7-0.7-1.1-1.7-1.1-2.8c0-0.9,0.2-1.7,0.6-2.5
			c0.4-0.8,1-1.3,1.8-1.8C181.7,14.7,182.5,14.5,183.4,14.5z M183.4,15.5c-0.7,0-1.3,0.2-1.9,0.5c-0.6,0.3-1,0.8-1.4,1.4
			c-0.3,0.6-0.5,1.2-0.5,1.9c0,0.9,0.3,1.6,0.8,2.2c0.5,0.6,1.2,0.8,2.1,0.8c0.7,0,1.3-0.2,1.8-0.5c0.5-0.3,1-0.8,1.3-1.4
			c0.3-0.6,0.5-1.3,0.5-1.9c0-0.6-0.1-1.1-0.4-1.5c-0.2-0.4-0.6-0.8-1-1C184.4,15.7,183.9,15.5,183.4,15.5z"/>
		<path fill="#FAE924" d="M190.3,14.7h1l-0.2,1.3c0.9-1,1.8-1.5,3-1.5c0.9,0,1.6,0.3,2.1,0.8s0.8,1.2,0.8,2.1c0,0.4-0.1,1-0.2,1.8
			l-0.5,3.8h-1.1l0.5-3.8c0.1-0.8,0.2-1.4,0.2-1.8c0-0.6-0.2-1.1-0.5-1.4c-0.4-0.4-0.8-0.5-1.4-0.5c-0.6,0-1.1,0.1-1.6,0.4
			c-0.5,0.3-0.9,0.7-1.1,1.2c-0.3,0.5-0.5,1.3-0.6,2.4l-0.5,3.6h-1.1L190.3,14.7z"/>
		<path fill="#FAE924" d="M207.5,23.1h-1.1l0.2-1.3c-1,1-2.1,1.5-3.4,1.5c-1.1,0-2.1-0.4-2.8-1.1s-1.1-1.7-1.1-2.8
			c0-1.3,0.5-2.5,1.4-3.4c0.9-1,2.1-1.4,3.4-1.4c0.7,0,1.3,0.1,1.8,0.4c0.5,0.3,1,0.8,1.4,1.4l0.6-4.8h1.1L207.5,23.1z M203.4,22.3
			c0.7,0,1.3-0.2,1.9-0.5c0.6-0.3,1-0.8,1.4-1.4c0.3-0.6,0.5-1.3,0.5-2c0-0.9-0.3-1.6-0.8-2.1c-0.5-0.5-1.3-0.8-2.1-0.8
			c-1,0-1.9,0.4-2.6,1.1c-0.7,0.7-1.1,1.7-1.1,2.7c0,0.9,0.3,1.6,0.8,2.1C201.8,22.1,202.5,22.3,203.4,22.3z"/>
		<path fill="#FAE924" d="M224.1,16.5l-0.9,0.5c-0.6-1-1.6-1.5-2.8-1.5c-0.7,0-1.4,0.2-2,0.5c-0.6,0.3-1.1,0.8-1.4,1.4
			c-0.3,0.6-0.5,1.2-0.5,1.9c0,0.6,0.1,1.1,0.4,1.6s0.6,0.8,1.1,1.1c0.5,0.3,1,0.4,1.6,0.4c0.6,0,1.3-0.1,1.9-0.4
			c0.6-0.3,1-0.6,1.4-1l0.9,0.6c-0.6,0.6-1.2,1-1.8,1.3c-0.6,0.3-1.4,0.4-2.3,0.4c-1.3,0-2.4-0.4-3.1-1.1c-0.7-0.7-1.1-1.7-1.1-2.9
			c0-1.3,0.5-2.5,1.5-3.4c1-0.9,2.2-1.4,3.6-1.4c0.8,0,1.6,0.2,2.2,0.5C223.2,15.4,223.7,15.9,224.1,16.5z"/>
		<path fill="#FAE924" d="M230.7,14.5c0.7,0,1.4,0.2,2,0.5c0.6,0.3,1.1,0.8,1.4,1.4c0.3,0.6,0.5,1.3,0.5,2.1c0,0.9-0.2,1.7-0.6,2.4
			c-0.4,0.8-1,1.3-1.7,1.7c-0.7,0.4-1.5,0.6-2.4,0.6c-1.1,0-2-0.4-2.8-1.1c-0.7-0.7-1.1-1.7-1.1-2.8c0-0.9,0.2-1.7,0.6-2.5
			c0.4-0.8,1-1.3,1.8-1.8C229,14.7,229.8,14.5,230.7,14.5z M230.7,15.5c-0.7,0-1.3,0.2-1.9,0.5c-0.6,0.3-1,0.8-1.4,1.4
			c-0.3,0.6-0.5,1.2-0.5,1.9c0,0.9,0.3,1.6,0.8,2.2c0.5,0.6,1.2,0.8,2.1,0.8c0.7,0,1.3-0.2,1.8-0.5c0.5-0.3,1-0.8,1.3-1.4
			c0.3-0.6,0.5-1.3,0.5-1.9c0-0.6-0.1-1.1-0.4-1.5c-0.2-0.4-0.6-0.8-1-1C231.7,15.7,231.2,15.5,230.7,15.5z"/>
		<path fill="#FAE924" d="M238.1,14.7h1.1l-0.5,3.5c-0.2,1-0.2,1.7-0.2,2c0,0.6,0.2,1.1,0.6,1.5c0.4,0.4,0.9,0.6,1.6,0.6
			c0.5,0,1-0.2,1.4-0.5c0.4-0.3,0.7-0.7,0.8-1.2c0.1-0.3,0.2-0.8,0.3-1.7l0.6-4.2h1.1l-0.4,3.2c-0.2,1.5-0.4,2.6-0.6,3.2
			c-0.2,0.6-0.6,1.2-1.2,1.6c-0.6,0.4-1.2,0.6-2,0.6c-0.9,0-1.7-0.3-2.2-0.9c-0.6-0.6-0.9-1.3-0.9-2.2c0-0.4,0-0.8,0.1-1.2l0.1-0.7
			l0-0.3L238.1,14.7z"/>
		<path fill="#FAE924" d="M248.9,11.6h1.1l-0.4,3.1h1.7l-0.1,0.9h-1.7l-1,7.4h-1.1l1-7.4h-1.4l0.1-0.9h1.4L248.9,11.6z"/>
		<path fill="#FAE924" d="M260.5,23.1h-1.1l0.2-1.3c-1,1-2.1,1.5-3.4,1.5c-1.1,0-2.1-0.4-2.8-1.1c-0.7-0.7-1.1-1.7-1.1-2.8
			c0-1.3,0.5-2.5,1.4-3.4c0.9-1,2.1-1.4,3.4-1.4c0.7,0,1.3,0.1,1.8,0.4c0.5,0.3,1,0.8,1.4,1.4l0.6-4.8h1.1L260.5,23.1z M256.4,22.3
			c0.7,0,1.3-0.2,1.9-0.5c0.6-0.3,1-0.8,1.4-1.4c0.3-0.6,0.5-1.3,0.5-2c0-0.9-0.3-1.6-0.8-2.1c-0.5-0.5-1.3-0.8-2.1-0.8
			c-1,0-1.9,0.4-2.6,1.1c-0.7,0.7-1.1,1.7-1.1,2.7c0,0.9,0.3,1.6,0.8,2.1C254.8,22.1,255.5,22.3,256.4,22.3z"/>
		<path fill="#FAE924" d="M268.3,14.5c0.7,0,1.4,0.2,2,0.5c0.6,0.3,1.1,0.8,1.4,1.4c0.3,0.6,0.5,1.3,0.5,2.1c0,0.9-0.2,1.7-0.6,2.4
			c-0.4,0.8-1,1.3-1.7,1.7c-0.7,0.4-1.5,0.6-2.4,0.6c-1.1,0-2-0.4-2.8-1.1c-0.7-0.7-1.1-1.7-1.1-2.8c0-0.9,0.2-1.7,0.6-2.5
			c0.4-0.8,1-1.3,1.8-1.8C266.7,14.7,267.5,14.5,268.3,14.5z M268.3,15.5c-0.7,0-1.3,0.2-1.9,0.5c-0.6,0.3-1,0.8-1.4,1.4
			c-0.3,0.6-0.5,1.2-0.5,1.9c0,0.9,0.3,1.6,0.8,2.2c0.5,0.6,1.2,0.8,2.1,0.8c0.7,0,1.3-0.2,1.8-0.5s1-0.8,1.3-1.4
			c0.3-0.6,0.5-1.3,0.5-1.9c0-0.6-0.1-1.1-0.4-1.5c-0.2-0.4-0.6-0.8-1-1C269.3,15.7,268.8,15.5,268.3,15.5z"/>
		<path fill="#FAE924" d="M274.4,14.7h1.1l1.7,5.9l3.2-5.9h0.2l1.9,6l3.1-6h1.2l-4.3,8.4h-0.2l-1.9-5.9l-3.2,5.9h-0.2L274.4,14.7z"
			/>
		<path fill="#FAE924" d="M288.8,14.7h1l-0.2,1.3c0.9-1,1.8-1.5,3-1.5c0.9,0,1.6,0.3,2.1,0.8s0.8,1.2,0.8,2.1c0,0.4-0.1,1-0.2,1.8
			l-0.5,3.8h-1.1l0.5-3.8c0.1-0.8,0.2-1.4,0.2-1.8c0-0.6-0.2-1.1-0.5-1.4s-0.8-0.5-1.4-0.5c-0.6,0-1.1,0.1-1.6,0.4
			c-0.5,0.3-0.9,0.7-1.1,1.2c-0.3,0.5-0.5,1.3-0.6,2.4l-0.5,3.6h-1.1L288.8,14.7z"/>
	</g>
	<rect x="7" y="78" opacity="0.51" fill="#8CBF43" width="337" height="49"/>
	<g>
		<path fill="#FFFFFF" d="M72.5,97.9l2.4-4.7h2.6l-3.8,7v4.5h-2.4v-4.4l-3.8-7.1h2.6L72.5,97.9z"/>
		<path fill="#FFFFFF" d="M85.5,104.6h-6.6V93.1h6.6v2h-4.2v2.5h3.9v2h-3.9v3h4.2V104.6z"/>
		<path fill="#FFFFFF" d="M94.7,101.4c0,1-0.4,1.9-1.1,2.5c-0.7,0.6-1.8,0.9-3.1,0.9c-1.2,0-2.3-0.2-3.3-0.7v-2.3
			c0.8,0.3,1.4,0.6,2,0.7c0.5,0.1,1,0.2,1.5,0.2c0.5,0,0.9-0.1,1.2-0.3c0.3-0.2,0.4-0.5,0.4-0.9c0-0.2-0.1-0.4-0.2-0.6
			c-0.1-0.2-0.3-0.3-0.6-0.5c-0.2-0.2-0.7-0.4-1.5-0.8c-0.7-0.3-1.2-0.6-1.6-0.9c-0.4-0.3-0.6-0.7-0.8-1.1c-0.2-0.4-0.3-0.9-0.3-1.4
			c0-1,0.3-1.8,1-2.4c0.7-0.6,1.6-0.9,2.9-0.9c0.6,0,1.2,0.1,1.7,0.2c0.5,0.1,1.1,0.3,1.7,0.6l-0.8,1.9c-0.6-0.3-1.1-0.4-1.5-0.5
			C92,95.1,91.6,95,91.2,95c-0.5,0-0.8,0.1-1.1,0.3c-0.2,0.2-0.4,0.5-0.4,0.8c0,0.2,0.1,0.4,0.1,0.6c0.1,0.2,0.3,0.3,0.5,0.5
			c0.2,0.1,0.7,0.4,1.5,0.8c1.1,0.5,1.8,1,2.2,1.5S94.7,100.7,94.7,101.4z"/>
	</g>
	<rect x="7" y="131" opacity="0.44" fill="#28AAE1" width="337" height="49"/>
	<rect x="7" y="184" opacity="0.44" fill="#8CBF43" width="337" height="49"/>
	<g>
		<path fill="#FFFFFF" d="M76.4,205.6h-4.1l-4.2-8.1h-0.1c0.1,1.3,0.1,2.2,0.1,2.9v5.2h-2.7v-11.5h4.1l4.2,8h0
			c-0.1-1.2-0.1-2.1-0.1-2.8v-5.2h2.8V205.6z"/>
		<path fill="#FFFFFF" d="M87.2,201.1c0,1.5-0.4,2.6-1.2,3.4c-0.8,0.8-1.9,1.2-3.3,1.2c-1.3,0-2.4-0.4-3.2-1.2
			c-0.8-0.8-1.2-2-1.2-3.4c0-1.4,0.4-2.6,1.2-3.4c0.8-0.8,1.9-1.2,3.3-1.2c0.9,0,1.6,0.2,2.3,0.6c0.7,0.4,1.2,0.9,1.6,1.6
			S87.2,200.2,87.2,201.1z M81.5,201.1c0,0.8,0.1,1.3,0.3,1.7c0.2,0.4,0.5,0.6,1,0.6c0.5,0,0.8-0.2,1-0.6s0.3-1,0.3-1.7
			c0-0.8-0.1-1.3-0.3-1.7c-0.2-0.4-0.5-0.6-1-0.6c-0.5,0-0.8,0.2-1,0.6C81.6,199.8,81.5,200.4,81.5,201.1z"/>
		<path fill="#FFFFFF" d="M65.4,211.1h2.3c1.1,0,1.8,0.2,2.3,0.5c0.5,0.3,0.7,0.8,0.7,1.5c0,0.5-0.1,0.9-0.4,1.2
			c-0.3,0.3-0.7,0.5-1.2,0.6v0.1c1.2,0.2,1.8,0.8,1.8,1.9c0,0.7-0.2,1.3-0.7,1.7s-1.2,0.6-2,0.6h-2.8V211.1z M66.3,214.5h1.5
			c0.7,0,1.1-0.1,1.4-0.3c0.3-0.2,0.4-0.6,0.4-1c0-0.5-0.2-0.8-0.5-1c-0.3-0.2-0.8-0.3-1.5-0.3h-1.4V214.5z M66.3,215.3v3H68
			c0.6,0,1.1-0.1,1.5-0.4c0.3-0.3,0.5-0.6,0.5-1.2c0-0.5-0.2-0.9-0.5-1.1c-0.3-0.2-0.8-0.4-1.5-0.4H66.3z"/>
		<path fill="#FFFFFF" d="M76.8,219.1l-0.2-0.9h0c-0.3,0.4-0.6,0.6-0.9,0.8c-0.3,0.1-0.7,0.2-1.1,0.2c-0.6,0-1.1-0.2-1.4-0.5
			c-0.3-0.3-0.5-0.7-0.5-1.3c0-1.2,1-1.9,2.9-1.9l1,0v-0.4c0-0.5-0.1-0.8-0.3-1c-0.2-0.2-0.5-0.3-1-0.3c-0.5,0-1.1,0.2-1.7,0.5
			l-0.3-0.7c0.3-0.2,0.6-0.3,1-0.4c0.4-0.1,0.7-0.1,1.1-0.1c0.7,0,1.2,0.2,1.6,0.5c0.3,0.3,0.5,0.8,0.5,1.5v4.1H76.8z M74.7,218.4
			c0.6,0,1-0.2,1.3-0.5c0.3-0.3,0.5-0.7,0.5-1.3v-0.5l-0.9,0c-0.7,0-1.2,0.1-1.6,0.3c-0.3,0.2-0.5,0.5-0.5,0.9
			c0,0.3,0.1,0.6,0.3,0.8C74.1,218.4,74.4,218.4,74.7,218.4z"/>
		<path fill="#FFFFFF" d="M80.8,219.1h-0.9v-8.6h0.9V219.1z"/>
		<path fill="#FFFFFF" d="M84.2,219.1h-0.9v-8.6h0.9V219.1z"/>
		<path fill="#FFFFFF" d="M94.3,218.3L94.3,218.3c-0.5,0.6-1.1,0.9-1.9,0.9c-0.8,0-1.4-0.3-1.8-0.8c-0.4-0.5-0.7-1.3-0.7-2.3
			c0-1,0.2-1.8,0.7-2.3c0.4-0.6,1.1-0.8,1.8-0.8c0.8,0,1.4,0.3,1.9,0.9h0.1l0-0.4l0-0.4v-2.5h0.9v8.6h-0.7L94.3,218.3z M92.5,218.4
			c0.6,0,1.1-0.2,1.4-0.5c0.3-0.3,0.4-0.9,0.4-1.6v-0.2c0-0.9-0.1-1.5-0.4-1.8c-0.3-0.4-0.7-0.5-1.4-0.5c-0.5,0-0.9,0.2-1.2,0.6
			c-0.3,0.4-0.4,1-0.4,1.8c0,0.8,0.1,1.3,0.4,1.7S92,218.4,92.5,218.4z"/>
		<path fill="#FFFFFF" d="M97.6,211.4c0-0.2,0.1-0.4,0.2-0.5c0.1-0.1,0.2-0.1,0.4-0.1c0.1,0,0.3,0.1,0.4,0.1s0.2,0.3,0.2,0.5
			s-0.1,0.4-0.2,0.5c-0.1,0.1-0.2,0.2-0.4,0.2c-0.2,0-0.3-0.1-0.4-0.2C97.7,211.8,97.6,211.6,97.6,211.4z M98.6,219.1h-0.9v-6h0.9
			V219.1z"/>
		<path fill="#FFFFFF" d="M105.2,218.3L105.2,218.3c-0.5,0.6-1.1,0.9-1.9,0.9c-0.8,0-1.4-0.3-1.8-0.8c-0.4-0.5-0.7-1.3-0.7-2.3
			c0-1,0.2-1.8,0.7-2.3c0.4-0.6,1.1-0.8,1.8-0.8c0.8,0,1.4,0.3,1.9,0.9h0.1l0-0.4l0-0.4v-2.5h0.9v8.6h-0.7L105.2,218.3z
			 M103.4,218.4c0.6,0,1.1-0.2,1.4-0.5c0.3-0.3,0.4-0.9,0.4-1.6v-0.2c0-0.9-0.1-1.5-0.4-1.8c-0.3-0.4-0.7-0.5-1.4-0.5
			c-0.5,0-0.9,0.2-1.2,0.6c-0.3,0.4-0.4,1-0.4,1.8c0,0.8,0.1,1.3,0.4,1.7C102.4,218.2,102.8,218.4,103.4,218.4z"/>
		<path fill="#FFFFFF" d="M116.2,219.1v-3.9c0-0.5-0.1-0.9-0.3-1.1c-0.2-0.2-0.6-0.4-1-0.4c-0.6,0-1.1,0.2-1.4,0.5
			c-0.3,0.3-0.4,0.9-0.4,1.7v3.2H112v-6h0.7l0.2,0.8h0c0.2-0.3,0.5-0.5,0.8-0.7c0.3-0.2,0.7-0.2,1.1-0.2c0.7,0,1.3,0.2,1.6,0.5
			c0.4,0.4,0.6,0.9,0.6,1.7v3.9H116.2z"/>
		<path fill="#FFFFFF" d="M124.7,216.1c0,1-0.2,1.7-0.7,2.3c-0.5,0.6-1.2,0.8-2,0.8c-0.5,0-1-0.1-1.4-0.4s-0.7-0.6-1-1.1
			c-0.2-0.5-0.3-1-0.3-1.7c0-1,0.2-1.7,0.7-2.3c0.5-0.5,1.2-0.8,2-0.8c0.8,0,1.5,0.3,2,0.8C124.5,214.4,124.7,215.1,124.7,216.1z
			 M120.1,216.1c0,0.8,0.2,1.4,0.5,1.8c0.3,0.4,0.8,0.6,1.4,0.6c0.6,0,1-0.2,1.4-0.6c0.3-0.4,0.5-1,0.5-1.8c0-0.8-0.2-1.3-0.5-1.7
			c-0.3-0.4-0.8-0.6-1.4-0.6c-0.6,0-1,0.2-1.4,0.6C120.3,214.7,120.1,215.3,120.1,216.1z"/>
		<path fill="#FFFFFF" d="M128.8,218.4c0.2,0,0.3,0,0.5,0c0.2,0,0.3,0,0.4-0.1v0.7c-0.1,0-0.2,0.1-0.4,0.1c-0.2,0-0.4,0-0.5,0
			c-1.2,0-1.7-0.6-1.7-1.8v-3.6h-0.9v-0.4l0.9-0.4l0.4-1.3h0.5v1.4h1.7v0.7h-1.7v3.5c0,0.4,0.1,0.6,0.3,0.8
			C128.3,218.4,128.5,218.4,128.8,218.4z"/>
		<path fill="#FFFFFF" d="M137.3,219.2c-0.9,0-1.5-0.3-2-0.8c-0.5-0.5-0.7-1.3-0.7-2.3c0-1,0.2-1.8,0.7-2.3c0.5-0.6,1.2-0.8,2.1-0.8
			c0.3,0,0.6,0,0.9,0.1c0.3,0.1,0.5,0.1,0.7,0.2l-0.3,0.8c-0.2-0.1-0.4-0.1-0.7-0.2c-0.2-0.1-0.5-0.1-0.6-0.1
			c-1.2,0-1.8,0.8-1.8,2.3c0,0.7,0.1,1.3,0.4,1.7c0.3,0.4,0.7,0.6,1.3,0.6c0.5,0,1-0.1,1.5-0.3v0.8
			C138.4,219.1,137.9,219.2,137.3,219.2z"/>
		<path fill="#FFFFFF" d="M143.6,213c0.3,0,0.5,0,0.7,0.1l-0.1,0.8c-0.3-0.1-0.5-0.1-0.7-0.1c-0.5,0-0.9,0.2-1.3,0.6
			c-0.3,0.4-0.5,0.9-0.5,1.5v3.2h-0.9v-6h0.8l0.1,1.1h0c0.2-0.4,0.5-0.7,0.8-0.9C142.8,213.1,143.2,213,143.6,213z"/>
		<path fill="#FFFFFF" d="M151.2,216.1c0,1-0.2,1.7-0.7,2.3c-0.5,0.6-1.2,0.8-2.1,0.8c-0.5,0-1-0.1-1.4-0.4c-0.4-0.3-0.7-0.6-1-1.1
			c-0.2-0.5-0.3-1-0.3-1.7c0-1,0.2-1.7,0.7-2.3c0.5-0.5,1.2-0.8,2-0.8c0.8,0,1.5,0.3,2,0.8C150.9,214.4,151.2,215.1,151.2,216.1z
			 M146.6,216.1c0,0.8,0.2,1.4,0.5,1.8c0.3,0.4,0.8,0.6,1.4,0.6s1.1-0.2,1.4-0.6c0.3-0.4,0.5-1,0.5-1.8c0-0.8-0.2-1.3-0.5-1.7
			c-0.3-0.4-0.8-0.6-1.4-0.6c-0.6,0-1,0.2-1.4,0.6C146.7,214.7,146.6,215.3,146.6,216.1z"/>
		<path fill="#FFFFFF" d="M157.2,217.4c0,0.6-0.2,1-0.6,1.3c-0.4,0.3-1,0.5-1.8,0.5c-0.8,0-1.4-0.1-1.9-0.4V218
			c0.3,0.1,0.6,0.3,0.9,0.3c0.3,0.1,0.7,0.1,1,0.1c0.5,0,0.8-0.1,1.1-0.2c0.3-0.2,0.4-0.4,0.4-0.7c0-0.2-0.1-0.4-0.3-0.6
			c-0.2-0.2-0.6-0.4-1.2-0.6c-0.6-0.2-1-0.4-1.2-0.5c-0.2-0.2-0.4-0.3-0.5-0.5c-0.1-0.2-0.2-0.4-0.2-0.7c0-0.5,0.2-0.9,0.6-1.2
			c0.4-0.3,0.9-0.4,1.6-0.4c0.7,0,1.3,0.1,1.9,0.4l-0.3,0.7c-0.6-0.2-1.2-0.4-1.6-0.4c-0.4,0-0.8,0.1-1,0.2
			c-0.2,0.1-0.3,0.3-0.3,0.6c0,0.2,0,0.3,0.1,0.4c0.1,0.1,0.2,0.2,0.4,0.3c0.2,0.1,0.5,0.3,1.1,0.4c0.7,0.3,1.2,0.5,1.4,0.8
			C157.1,216.7,157.2,217,157.2,217.4z"/>
		<path fill="#FFFFFF" d="M163.2,217.4c0,0.6-0.2,1-0.6,1.3c-0.4,0.3-1,0.5-1.8,0.5c-0.8,0-1.4-0.1-1.9-0.4V218
			c0.3,0.1,0.6,0.3,0.9,0.3c0.3,0.1,0.7,0.1,1,0.1c0.5,0,0.8-0.1,1.1-0.2c0.3-0.2,0.4-0.4,0.4-0.7c0-0.2-0.1-0.4-0.3-0.6
			s-0.6-0.4-1.2-0.6c-0.6-0.2-1-0.4-1.2-0.5s-0.4-0.3-0.5-0.5c-0.1-0.2-0.2-0.4-0.2-0.7c0-0.5,0.2-0.9,0.6-1.2
			c0.4-0.3,0.9-0.4,1.6-0.4c0.6,0,1.3,0.1,1.9,0.4l-0.3,0.7c-0.6-0.2-1.2-0.4-1.6-0.4c-0.4,0-0.8,0.1-1,0.2
			c-0.2,0.1-0.3,0.3-0.3,0.6c0,0.2,0,0.3,0.1,0.4c0.1,0.1,0.2,0.2,0.4,0.3c0.2,0.1,0.5,0.3,1.1,0.4c0.7,0.3,1.2,0.5,1.4,0.8
			C163,216.7,163.2,217,163.2,217.4z"/>
		<path fill="#FFFFFF" d="M169.6,219.1h-0.9v-8.6h0.9V219.1z"/>
		<path fill="#FFFFFF" d="M172,211.4c0-0.2,0.1-0.4,0.2-0.5c0.1-0.1,0.2-0.1,0.4-0.1c0.1,0,0.3,0.1,0.4,0.1c0.1,0.1,0.2,0.3,0.2,0.5
			s-0.1,0.4-0.2,0.5c-0.1,0.1-0.2,0.2-0.4,0.2c-0.2,0-0.3-0.1-0.4-0.2C172.1,211.8,172,211.6,172,211.4z M173,219.1h-0.9v-6h0.9
			V219.1z"/>
		<path fill="#FFFFFF" d="M179.6,219.1v-3.9c0-0.5-0.1-0.9-0.3-1.1c-0.2-0.2-0.6-0.4-1-0.4c-0.6,0-1.1,0.2-1.4,0.5
			c-0.3,0.3-0.4,0.9-0.4,1.7v3.2h-0.9v-6h0.7l0.1,0.8h0c0.2-0.3,0.4-0.5,0.8-0.7c0.3-0.2,0.7-0.2,1.1-0.2c0.7,0,1.3,0.2,1.6,0.5
			c0.4,0.4,0.5,0.9,0.5,1.7v3.9H179.6z"/>
		<path fill="#FFFFFF" d="M185.5,219.2c-0.9,0-1.6-0.3-2.1-0.8c-0.5-0.5-0.8-1.3-0.8-2.3c0-1,0.2-1.7,0.7-2.3s1.1-0.9,1.9-0.9
			c0.8,0,1.4,0.2,1.8,0.7c0.4,0.5,0.7,1.2,0.7,2v0.6h-4.2c0,0.7,0.2,1.2,0.5,1.6c0.3,0.4,0.8,0.5,1.4,0.5c0.7,0,1.3-0.1,1.9-0.4v0.8
			c-0.3,0.1-0.6,0.2-0.9,0.3C186.3,219.2,185.9,219.2,185.5,219.2z M185.3,213.7c-0.5,0-0.9,0.2-1.2,0.5c-0.3,0.3-0.5,0.8-0.5,1.3
			h3.2c0-0.6-0.1-1-0.4-1.3C186.1,213.9,185.8,213.7,185.3,213.7z"/>
	</g>
	<circle fill="#FFFFFF" cx="35" cy="100.7" r="15.3"/>
	<g>
		<path d="M37.4,106.2l-0.6-2.2h-3.7l-0.6,2.2h-3.4l3.7-11.5H37l3.8,11.5H37.4z M36.2,101.5l-0.5-1.9c-0.1-0.4-0.3-1-0.4-1.6
			c-0.2-0.7-0.3-1.1-0.3-1.4c0,0.3-0.1,0.7-0.3,1.3c-0.1,0.6-0.4,1.8-0.9,3.6H36.2z"/>
	</g>
	<circle fill="#FFFFFF" cx="35" cy="206" r="15.3"/>
	<g>
		<path d="M36.1,202.5c-0.7,0-1.3,0.3-1.7,0.9c-0.4,0.6-0.6,1.4-0.6,2.5c0,2.2,0.8,3.3,2.5,3.3c0.5,0,1-0.1,1.5-0.2
			c0.5-0.1,1-0.3,1.4-0.5v2.6c-1,0.4-2,0.6-3.3,0.6c-1.7,0-3.1-0.5-4-1.5c-0.9-1-1.4-2.5-1.4-4.4c0-1.2,0.2-2.2,0.7-3.1
			c0.4-0.9,1.1-1.6,1.9-2.1c0.8-0.5,1.8-0.7,3-0.7c1.2,0,2.4,0.3,3.6,0.8l-0.9,2.4c-0.4-0.2-0.8-0.4-1.3-0.5
			C37.1,202.5,36.6,202.5,36.1,202.5z"/>
	</g>
	<circle fill="none" stroke="#FFFFFF" stroke-width="1.9718" stroke-miterlimit="10" cx="31.4" cy="153.3" r="15.3"/>
	<polygon fill="#D3D92D" points="40.7,144.9 40.3,144.3 27.2,157 22.4,152.6 21.8,153.6 27.2,162.3 27.2,162.3 27.3,162.5 	"/>
	<g>
		<path fill="#FFFFFF" d="M234.3,156.5c0-1.4,0.2-2.7,0.6-3.9c0.4-1.2,1-2.3,1.8-3.2h2c-0.7,1-1.3,2.1-1.7,3.3
			c-0.4,1.2-0.6,2.5-0.6,3.7c0,1.3,0.2,2.5,0.6,3.7c0.4,1.2,0.9,2.3,1.6,3.2h-1.9c-0.8-0.9-1.4-1.9-1.8-3.1S234.3,157.9,234.3,156.5
			z"/>
		<path fill="#FFFFFF" d="M243.5,153.9c1.2,0,2.2,0.3,2.9,0.9c0.7,0.6,1,1.4,1,2.5c0,1.2-0.4,2.1-1.1,2.8c-0.8,0.7-1.8,1-3.1,1
			c-1.3,0-2.3-0.2-3-0.6v-1.3c0.4,0.2,0.8,0.4,1.4,0.6c0.5,0.1,1.1,0.2,1.6,0.2c0.9,0,1.6-0.2,2.1-0.7c0.5-0.4,0.8-1.1,0.8-1.9
			c0-1.6-1-2.4-2.9-2.4c-0.5,0-1.2,0.1-2,0.2l-0.7-0.4l0.4-5.4h5.7v1.2H242l-0.3,3.4C242.3,154,242.9,153.9,243.5,153.9z"/>
		<path fill="#FFFFFF" d="M256.7,154.3c0,4.5-1.7,6.7-5.2,6.7c-0.6,0-1.1-0.1-1.4-0.2v-1.1c0.4,0.1,0.9,0.2,1.4,0.2
			c1.3,0,2.2-0.4,2.8-1.2c0.6-0.8,1-2,1-3.6h-0.1c-0.3,0.4-0.7,0.8-1.1,1c-0.5,0.2-1,0.3-1.6,0.3c-1,0-1.8-0.3-2.4-0.9
			c-0.6-0.6-0.9-1.5-0.9-2.5c0-1.2,0.3-2.1,1-2.8c0.7-0.7,1.5-1,2.6-1c0.8,0,1.5,0.2,2,0.6s1,1,1.3,1.8
			C256.5,152.4,256.7,153.3,256.7,154.3z M252.8,150.4c-0.7,0-1.3,0.2-1.7,0.7c-0.4,0.5-0.6,1.2-0.6,2c0,0.8,0.2,1.3,0.6,1.8
			c0.4,0.4,1,0.6,1.7,0.6c0.5,0,0.9-0.1,1.3-0.3c0.4-0.2,0.7-0.5,0.9-0.8c0.2-0.3,0.3-0.7,0.3-1.1c0-0.6-0.1-1.1-0.3-1.5
			c-0.2-0.5-0.5-0.8-0.9-1.1C253.7,150.5,253.3,150.4,252.8,150.4z"/>
		<path fill="#FFFFFF" d="M263,152.9c0,1.2-0.2,2.1-0.6,2.7c-0.4,0.6-1,0.9-1.8,0.9c-0.7,0-1.3-0.3-1.7-0.9
			c-0.4-0.6-0.6-1.5-0.6-2.7c0-1.2,0.2-2.1,0.6-2.7c0.4-0.6,1-0.9,1.7-0.9c0.8,0,1.3,0.3,1.8,0.9C262.8,150.8,263,151.7,263,152.9z
			 M259.4,152.9c0,0.9,0.1,1.6,0.3,2c0.2,0.4,0.5,0.7,0.9,0.7c0.9,0,1.3-0.9,1.3-2.7c0-1.8-0.4-2.7-1.3-2.7c-0.4,0-0.7,0.2-0.9,0.7
			C259.5,151.3,259.4,152,259.4,152.9z M267.9,149.4l-6.4,11.5h-1.2l6.4-11.5H267.9z M269.9,157.5c0,1.2-0.2,2.1-0.6,2.7
			c-0.4,0.6-1,0.9-1.8,0.9c-0.7,0-1.3-0.3-1.7-0.9c-0.4-0.6-0.6-1.5-0.6-2.7c0-1.2,0.2-2.1,0.6-2.7c0.4-0.6,1-0.9,1.7-0.9
			c0.7,0,1.3,0.3,1.7,0.9C269.7,155.4,269.9,156.3,269.9,157.5z M266.3,157.5c0,0.9,0.1,1.6,0.3,2c0.2,0.4,0.5,0.7,0.9,0.7
			c0.4,0,0.8-0.2,1-0.7c0.2-0.4,0.3-1.1,0.3-2c0-0.9-0.1-1.6-0.3-2c-0.2-0.4-0.5-0.6-1-0.6c-0.4,0-0.8,0.2-0.9,0.6
			C266.4,155.9,266.3,156.6,266.3,157.5z"/>
		<path fill="#FFFFFF" d="M275.6,156.5c0,1.4-0.2,2.7-0.6,3.8c-0.4,1.2-1,2.2-1.8,3.1h-1.9c0.7-1,1.3-2,1.6-3.2
			c0.4-1.2,0.6-2.4,0.6-3.7c0-1.3-0.2-2.5-0.6-3.7s-0.9-2.3-1.7-3.3h2c0.8,0.9,1.4,2,1.8,3.2C275.4,153.8,275.6,155.1,275.6,156.5z"
			/>
	</g>
	<g>
		<path fill="#FFFFFF" d="M300.7,159.9h-1.9v-5.3l0-0.9l0-1c-0.3,0.3-0.5,0.5-0.7,0.6l-1.1,0.8l-0.9-1.2l3-2.4h1.6V159.9z"/>
		<path fill="#FFFFFF" d="M309.7,159.9h-6.4v-1.3l2.3-2.3c0.7-0.7,1.1-1.2,1.3-1.5c0.2-0.3,0.4-0.5,0.5-0.8c0.1-0.2,0.1-0.5,0.1-0.7
			c0-0.4-0.1-0.6-0.3-0.8c-0.2-0.2-0.5-0.3-0.8-0.3c-0.4,0-0.7,0.1-1,0.2c-0.3,0.2-0.7,0.4-1,0.7l-1.1-1.2c0.5-0.4,0.8-0.7,1.1-0.8
			c0.3-0.2,0.6-0.3,1-0.4c0.4-0.1,0.7-0.1,1.2-0.1c0.6,0,1.1,0.1,1.5,0.3c0.4,0.2,0.8,0.5,1,0.9c0.2,0.4,0.4,0.8,0.4,1.3
			c0,0.4-0.1,0.8-0.2,1.2c-0.1,0.4-0.4,0.8-0.7,1.1c-0.3,0.4-0.9,0.9-1.6,1.7l-1.2,1.1v0.1h4V159.9z"/>
		<path fill="#FFFFFF" d="M313.8,150.6c0.9,0,1.6,0.2,2.1,0.6c0.5,0.4,0.8,0.9,0.8,1.6c0,0.5-0.1,0.9-0.4,1.3
			c-0.3,0.4-0.7,0.7-1.3,1c0.7,0.4,1.2,0.8,1.5,1.2c0.3,0.4,0.4,0.8,0.4,1.3c0,0.8-0.3,1.4-0.9,1.8c-0.6,0.5-1.4,0.7-2.3,0.7
			c-1,0-1.8-0.2-2.4-0.6c-0.6-0.4-0.9-1-0.9-1.8c0-0.5,0.1-1,0.4-1.4c0.3-0.4,0.7-0.8,1.3-1.1c-0.5-0.3-0.9-0.7-1.1-1.1
			c-0.2-0.4-0.3-0.8-0.3-1.2c0-0.7,0.3-1.2,0.8-1.6C312.2,150.8,312.9,150.6,313.8,150.6z M312.3,157.5c0,0.4,0.1,0.6,0.4,0.8
			c0.3,0.2,0.6,0.3,1,0.3c0.5,0,0.8-0.1,1.1-0.3c0.2-0.2,0.4-0.5,0.4-0.8c0-0.3-0.1-0.5-0.4-0.8s-0.6-0.5-1.2-0.8
			C312.8,156.3,312.3,156.8,312.3,157.5z M313.8,152c-0.3,0-0.6,0.1-0.8,0.3c-0.2,0.2-0.3,0.4-0.3,0.7c0,0.3,0.1,0.5,0.2,0.7
			c0.2,0.2,0.5,0.4,0.9,0.6c0.4-0.2,0.7-0.4,0.9-0.6c0.2-0.2,0.2-0.4,0.2-0.7c0-0.3-0.1-0.5-0.3-0.7
			C314.4,152.1,314.1,152,313.8,152z"/>
		<path fill="#FFFFFF" d="M324.4,160c-0.6,0-1.1-0.2-1.5-0.7h-0.1c0.1,0.4,0.1,0.7,0.1,0.8v2.1h-1.4v-7.6h1.2l0.2,0.7h0.1
			c0.3-0.5,0.8-0.8,1.5-0.8c0.6,0,1.1,0.2,1.5,0.7c0.4,0.5,0.5,1.1,0.5,2c0,0.6-0.1,1.1-0.2,1.5c-0.2,0.4-0.4,0.7-0.7,0.9
			C325.2,159.9,324.8,160,324.4,160z M324,155.7c-0.4,0-0.6,0.1-0.8,0.3c-0.2,0.2-0.2,0.6-0.3,1.1v0.2c0,0.6,0.1,1,0.3,1.2
			c0.2,0.2,0.4,0.4,0.8,0.4c0.6,0,1-0.5,1-1.6c0-0.5-0.1-0.9-0.2-1.2C324.6,155.8,324.3,155.7,324,155.7z"/>
		<path fill="#FFFFFF" d="M329.9,158.9c0.3,0,0.6-0.1,0.9-0.2v1.1c-0.4,0.2-0.8,0.2-1.3,0.2c-0.6,0-1-0.1-1.3-0.4
			c-0.3-0.3-0.4-0.7-0.4-1.3v-2.5h-0.7v-0.6l0.8-0.5l0.4-1.1h0.9v1.1h1.5v1.1h-1.5v2.5c0,0.2,0.1,0.4,0.2,0.5
			C329.5,158.8,329.7,158.9,329.9,158.9z"/>
		<path fill="#FFFFFF" d="M335.5,158.3c0,0.5-0.2,1-0.6,1.2s-0.9,0.4-1.7,0.4c-0.4,0-0.7,0-1-0.1c-0.3-0.1-0.5-0.1-0.8-0.2v-1.2
			c0.3,0.1,0.6,0.2,0.9,0.3c0.3,0.1,0.6,0.1,0.9,0.1c0.5,0,0.8-0.2,0.8-0.5c0-0.1,0-0.2-0.1-0.3c-0.1-0.1-0.2-0.2-0.4-0.2
			c-0.2-0.1-0.4-0.2-0.7-0.3c-0.4-0.2-0.7-0.3-0.9-0.5s-0.3-0.3-0.4-0.5c-0.1-0.2-0.1-0.4-0.1-0.7c0-0.5,0.2-0.8,0.5-1.1
			s0.9-0.4,1.5-0.4c0.6,0,1.3,0.1,1.9,0.4l-0.4,1c-0.3-0.1-0.5-0.2-0.7-0.3c-0.2-0.1-0.5-0.1-0.7-0.1c-0.4,0-0.6,0.1-0.6,0.3
			c0,0.1,0.1,0.2,0.2,0.3c0.1,0.1,0.4,0.2,0.9,0.4c0.4,0.2,0.7,0.3,0.9,0.5c0.2,0.1,0.3,0.3,0.4,0.5
			C335.5,157.9,335.5,158.1,335.5,158.3z"/>
	</g>
	<g>
		<path fill="#FFFFFF" d="M234.3,101.4c0-1.4,0.2-2.7,0.6-3.9c0.4-1.2,1-2.3,1.8-3.2h2c-0.7,1-1.3,2.1-1.7,3.3
			c-0.4,1.2-0.6,2.5-0.6,3.7c0,1.3,0.2,2.5,0.6,3.7c0.4,1.2,0.9,2.3,1.6,3.2h-1.9c-0.8-0.9-1.4-1.9-1.8-3.1
			C234.5,104,234.3,102.8,234.3,101.4z"/>
		<path fill="#FFFFFF" d="M244.7,105.8h-1.3v-8.2c0-0.7,0-1.3,0.1-1.9c-0.1,0.1-0.2,0.2-0.4,0.3c-0.1,0.1-0.8,0.6-1.9,1.5l-0.7-0.9
			l3-2.3h1.1V105.8z"/>
		<path fill="#FFFFFF" d="M253.9,105.8h-1.3v-8.2c0-0.7,0-1.3,0.1-1.9c-0.1,0.1-0.2,0.2-0.4,0.3c-0.1,0.1-0.8,0.6-1.9,1.5l-0.7-0.9
			l3-2.3h1.1V105.8z"/>
		<path fill="#FFFFFF" d="M263,97.7c0,1.2-0.2,2.1-0.6,2.7c-0.4,0.6-1,0.9-1.8,0.9c-0.7,0-1.3-0.3-1.7-0.9c-0.4-0.6-0.6-1.5-0.6-2.7
			c0-1.2,0.2-2.1,0.6-2.7c0.4-0.6,1-0.9,1.7-0.9c0.8,0,1.3,0.3,1.8,0.9C262.8,95.7,263,96.6,263,97.7z M259.4,97.7
			c0,0.9,0.1,1.6,0.3,2c0.2,0.4,0.5,0.7,0.9,0.7c0.9,0,1.3-0.9,1.3-2.7c0-1.8-0.4-2.7-1.3-2.7c-0.4,0-0.7,0.2-0.9,0.7
			C259.5,96.2,259.4,96.8,259.4,97.7z M267.9,94.3l-6.4,11.5h-1.2l6.4-11.5H267.9z M269.9,102.3c0,1.2-0.2,2.1-0.6,2.7
			c-0.4,0.6-1,0.9-1.8,0.9c-0.7,0-1.3-0.3-1.7-0.9c-0.4-0.6-0.6-1.5-0.6-2.7c0-1.2,0.2-2.1,0.6-2.7c0.4-0.6,1-0.9,1.7-0.9
			c0.7,0,1.3,0.3,1.7,0.9C269.7,100.3,269.9,101.2,269.9,102.3z M266.3,102.3c0,0.9,0.1,1.6,0.3,2c0.2,0.4,0.5,0.7,0.9,0.7
			c0.4,0,0.8-0.2,1-0.7c0.2-0.4,0.3-1.1,0.3-2c0-0.9-0.1-1.6-0.3-2c-0.2-0.4-0.5-0.6-1-0.6c-0.4,0-0.8,0.2-0.9,0.6
			C266.4,100.8,266.3,101.4,266.3,102.3z"/>
		<path fill="#FFFFFF" d="M275.6,101.4c0,1.4-0.2,2.7-0.6,3.8c-0.4,1.2-1,2.2-1.8,3.1h-1.9c0.7-1,1.3-2,1.6-3.2s0.6-2.4,0.6-3.7
			c0-1.3-0.2-2.5-0.6-3.7s-0.9-2.3-1.7-3.3h2c0.8,0.9,1.4,2,1.8,3.2C275.4,98.7,275.6,100,275.6,101.4z"/>
	</g>
	<g>
		<path fill="#FFFFFF" d="M234.3,209.6c0-1.4,0.2-2.7,0.6-3.9c0.4-1.2,1-2.3,1.8-3.2h2c-0.7,1-1.3,2.1-1.7,3.3
			c-0.4,1.2-0.6,2.5-0.6,3.7c0,1.3,0.2,2.5,0.6,3.7c0.4,1.2,0.9,2.3,1.6,3.2h-1.9c-0.8-0.9-1.4-1.9-1.8-3.1
			C234.5,212.2,234.3,210.9,234.3,209.6z"/>
		<path fill="#FFFFFF" d="M247.5,214h-7.5v-1.1l3-3c0.9-0.9,1.5-1.6,1.8-2c0.3-0.4,0.5-0.8,0.7-1.2c0.1-0.4,0.2-0.8,0.2-1.2
			c0-0.6-0.2-1.1-0.6-1.5c-0.4-0.4-0.9-0.5-1.5-0.5c-0.5,0-0.9,0.1-1.4,0.2c-0.4,0.2-0.9,0.4-1.4,0.9l-0.7-0.9
			c1.1-0.9,2.2-1.3,3.5-1.3c1.1,0,1.9,0.3,2.5,0.8c0.6,0.6,0.9,1.3,0.9,2.2c0,0.7-0.2,1.4-0.6,2.2c-0.4,0.7-1.2,1.6-2.3,2.7
			l-2.5,2.5v0.1h5.9V214z"/>
		<path fill="#FFFFFF" d="M256.7,208.2c0,2-0.3,3.5-0.9,4.4c-0.6,1-1.6,1.5-2.9,1.5c-1.2,0-2.2-0.5-2.8-1.5c-0.6-1-1-2.5-1-4.4
			c0-2,0.3-3.5,0.9-4.5c0.6-1,1.6-1.5,2.8-1.5c1.2,0,2.2,0.5,2.8,1.5C256.4,204.8,256.7,206.3,256.7,208.2z M250.4,208.2
			c0,1.7,0.2,2.9,0.6,3.6c0.4,0.8,1,1.1,1.9,1.1c0.9,0,1.5-0.4,1.9-1.2c0.4-0.8,0.6-2,0.6-3.6c0-1.6-0.2-2.9-0.6-3.6
			c-0.4-0.8-1-1.1-1.9-1.1c-0.9,0-1.5,0.4-1.9,1.1C250.6,205.3,250.4,206.6,250.4,208.2z"/>
		<path fill="#FFFFFF" d="M263,205.9c0,1.2-0.2,2.1-0.6,2.7c-0.4,0.6-1,0.9-1.8,0.9c-0.7,0-1.3-0.3-1.7-0.9
			c-0.4-0.6-0.6-1.5-0.6-2.7c0-1.2,0.2-2.1,0.6-2.7c0.4-0.6,1-0.9,1.7-0.9c0.8,0,1.3,0.3,1.8,0.9C262.8,203.9,263,204.8,263,205.9z
			 M259.4,205.9c0,0.9,0.1,1.6,0.3,2c0.2,0.4,0.5,0.7,0.9,0.7c0.9,0,1.3-0.9,1.3-2.7c0-1.8-0.4-2.7-1.3-2.7c-0.4,0-0.7,0.2-0.9,0.7
			C259.5,204.4,259.4,205,259.4,205.9z M267.9,202.5l-6.4,11.5h-1.2l6.4-11.5H267.9z M269.9,210.5c0,1.2-0.2,2.1-0.6,2.7
			c-0.4,0.6-1,0.9-1.8,0.9c-0.7,0-1.3-0.3-1.7-0.9c-0.4-0.6-0.6-1.5-0.6-2.7c0-1.2,0.2-2.1,0.6-2.7c0.4-0.6,1-0.9,1.7-0.9
			c0.7,0,1.3,0.3,1.7,0.9C269.7,208.5,269.9,209.4,269.9,210.5z M266.3,210.5c0,0.9,0.1,1.6,0.3,2c0.2,0.4,0.5,0.7,0.9,0.7
			c0.4,0,0.8-0.2,1-0.7c0.2-0.4,0.3-1.1,0.3-2c0-0.9-0.1-1.6-0.3-2c-0.2-0.4-0.5-0.6-1-0.6c-0.4,0-0.8,0.2-0.9,0.6
			C266.4,209,266.3,209.6,266.3,210.5z"/>
		<path fill="#FFFFFF" d="M275.6,209.6c0,1.4-0.2,2.7-0.6,3.8c-0.4,1.2-1,2.2-1.8,3.1h-1.9c0.7-1,1.3-2,1.6-3.2
			c0.4-1.2,0.6-2.4,0.6-3.7c0-1.3-0.2-2.5-0.6-3.7s-0.9-2.3-1.7-3.3h2c0.8,0.9,1.4,2,1.8,3.2C275.4,206.9,275.6,208.2,275.6,209.6z"
			/>
	</g>
	<rect x="7" y="237" opacity="0.44" fill="#8CBF43" width="337" height="50"/>
	<g>
		<path fill="#FFFFFF" d="M76.4,264.9h-4.1l-4.2-8.1h-0.1c0.1,1.3,0.1,2.2,0.1,2.9v5.2h-2.7v-11.5h4.1l4.2,8h0
			c-0.1-1.2-0.1-2.1-0.1-2.8v-5.2h2.8V264.9z"/>
		<path fill="#FFFFFF" d="M87.2,260.4c0,1.5-0.4,2.6-1.2,3.4c-0.8,0.8-1.9,1.2-3.3,1.2c-1.4,0-2.4-0.4-3.2-1.2
			c-0.8-0.8-1.2-2-1.2-3.4c0-1.4,0.4-2.6,1.2-3.4c0.8-0.8,1.9-1.2,3.3-1.2c0.9,0,1.6,0.2,2.3,0.6s1.2,0.9,1.6,1.6
			S87.2,259.5,87.2,260.4z M81.5,260.4c0,0.8,0.1,1.3,0.3,1.7c0.2,0.4,0.5,0.6,1,0.6c0.5,0,0.8-0.2,1-0.6c0.2-0.4,0.3-1,0.3-1.7
			c0-0.8-0.1-1.3-0.3-1.7c-0.2-0.4-0.5-0.6-1-0.6c-0.5,0-0.8,0.2-1,0.6C81.6,259.1,81.5,259.7,81.5,260.4z"/>
		<path fill="#FFFFFF" d="M93.3,262.6c0.4,0,0.9-0.1,1.5-0.3v2.2c-0.4,0.2-0.8,0.3-1.2,0.4c-0.4,0.1-0.8,0.1-1.3,0.1
			c-1,0-1.8-0.3-2.2-0.8c-0.5-0.5-0.7-1.3-0.7-2.3v-3.7h-1.1V257l1.4-1l0.8-1.9h2v1.8h2.2v2.3h-2.2v3.5
			C92.5,262.3,92.8,262.6,93.3,262.6z"/>
		<path fill="#FFFFFF" d="M108.3,261.4c0,0.7-0.2,1.3-0.5,1.9c-0.4,0.6-0.9,1-1.6,1.3c-0.7,0.3-1.5,0.5-2.4,0.5
			c-0.8,0-1.4-0.1-1.9-0.2c-0.5-0.1-1.1-0.3-1.6-0.6v-2.8c0.6,0.3,1.2,0.5,1.8,0.7c0.6,0.2,1.2,0.3,1.8,0.3c0.5,0,0.8-0.1,1-0.2
			c0.2-0.2,0.3-0.4,0.3-0.6c0-0.2,0-0.3-0.1-0.4c-0.1-0.1-0.2-0.2-0.4-0.4c-0.2-0.1-0.7-0.4-1.5-0.7c-0.7-0.3-1.3-0.7-1.7-1
			c-0.4-0.3-0.7-0.7-0.8-1.1c-0.2-0.4-0.3-0.9-0.3-1.5c0-1.1,0.4-1.9,1.2-2.5c0.8-0.6,1.8-0.9,3.2-0.9c1.2,0,2.4,0.3,3.6,0.8
			l-0.9,2.4c-1.1-0.5-2-0.7-2.8-0.7c-0.4,0-0.7,0.1-0.9,0.2c-0.2,0.1-0.3,0.3-0.3,0.5c0,0.2,0.1,0.4,0.3,0.6c0.2,0.2,0.9,0.5,1.9,1
			c1,0.4,1.7,0.9,2.1,1.4C108.1,260,108.3,260.6,108.3,261.4z"/>
		<path fill="#FFFFFF" d="M116.2,264.9l-0.4-1.1h-0.2c-0.3,0.4-0.6,0.7-1.1,0.9c-0.5,0.2-1,0.3-1.6,0.3c-1,0-1.7-0.3-2.3-0.9
			c-0.5-0.6-0.8-1.4-0.8-2.4V256h3.1v4.9c0,0.6,0.1,1,0.2,1.3c0.2,0.3,0.4,0.4,0.8,0.4c0.5,0,0.9-0.2,1.1-0.6
			c0.2-0.4,0.3-1.1,0.3-2.1V256h3.1v8.9H116.2z"/>
		<path fill="#FFFFFF" d="M126,255.8c0.3,0,0.5,0,0.8,0.1l0.2,0l-0.3,2.9c-0.3-0.1-0.6-0.1-1-0.1c-0.7,0-1.2,0.2-1.5,0.5
			s-0.5,0.7-0.5,1.3v4.4h-3.1V256h2.3l0.5,1.4h0.1c0.3-0.5,0.6-0.9,1.1-1.1C125.1,256,125.5,255.8,126,255.8z"/>
		<path fill="#FFFFFF" d="M132.5,265c-1.5,0-2.6-0.4-3.5-1.2s-1.2-1.9-1.2-3.4c0-1.5,0.4-2.7,1.1-3.5c0.8-0.8,1.8-1.2,3.3-1.2
			c1.3,0,2.4,0.3,3.1,1c0.7,0.7,1.1,1.7,1.1,3v1.4h-5.5c0,0.5,0.2,0.9,0.5,1.2c0.3,0.3,0.8,0.4,1.4,0.4c0.5,0,1-0.1,1.5-0.2
			c0.5-0.1,0.9-0.3,1.5-0.5v2.2c-0.5,0.2-1,0.4-1.5,0.5C133.8,265,133.2,265,132.5,265z M132.3,257.9c-0.4,0-0.7,0.1-0.9,0.3
			c-0.2,0.2-0.4,0.6-0.4,1.1h2.6c0-0.4-0.1-0.8-0.4-1C133,258,132.7,257.9,132.3,257.9z"/>
	</g>
	<circle fill="#FFFFFF" cx="35" cy="259.4" r="15.3"/>
	<g>
		<path d="M40.1,258.6c0,1.9-0.5,3.4-1.6,4.4c-1.1,1-2.5,1.6-4.4,1.6h-3.7v-11.5h4c1.8,0,3.3,0.5,4.3,1.4
			C39.6,255.5,40.1,256.9,40.1,258.6z M36.9,258.7c0-1.1-0.2-1.8-0.6-2.3c-0.4-0.5-1-0.8-1.9-0.8h-0.9v6.4h0.7
			c0.9,0,1.6-0.3,2.1-0.8C36.6,260.7,36.9,259.9,36.9,258.7z"/>
	</g>
	<g>
		<path fill="#FFFFFF" d="M234.3,261c0-1.4,0.2-2.7,0.6-3.9c0.4-1.2,1-2.3,1.8-3.2h2c-0.7,1-1.3,2.1-1.7,3.3
			c-0.4,1.2-0.6,2.5-0.6,3.7c0,1.3,0.2,2.5,0.6,3.7c0.4,1.2,0.9,2.3,1.6,3.2h-1.9c-0.8-0.9-1.4-1.9-1.8-3.1
			C234.5,263.7,234.3,262.4,234.3,261z"/>
		<path fill="#FFFFFF" d="M244.7,265.4h-1.3v-8.2c0-0.7,0-1.3,0.1-1.9c-0.1,0.1-0.2,0.2-0.4,0.3c-0.1,0.1-0.8,0.6-1.9,1.5l-0.7-0.9
			l3-2.3h1.1V265.4z"/>
		<path fill="#FFFFFF" d="M256.7,259.7c0,2-0.3,3.5-0.9,4.4c-0.6,1-1.6,1.5-2.9,1.5c-1.2,0-2.2-0.5-2.8-1.5c-0.6-1-1-2.5-1-4.4
			c0-2,0.3-3.5,0.9-4.5c0.6-1,1.6-1.5,2.8-1.5c1.2,0,2.2,0.5,2.8,1.5C256.4,256.3,256.7,257.8,256.7,259.7z M250.4,259.7
			c0,1.7,0.2,2.9,0.6,3.6c0.4,0.8,1,1.1,1.9,1.1c0.9,0,1.5-0.4,1.9-1.2c0.4-0.8,0.6-2,0.6-3.6s-0.2-2.9-0.6-3.6
			c-0.4-0.8-1-1.1-1.9-1.1c-0.9,0-1.5,0.4-1.9,1.1C250.6,256.8,250.4,258,250.4,259.7z"/>
		<path fill="#FFFFFF" d="M263,257.4c0,1.2-0.2,2.1-0.6,2.7c-0.4,0.6-1,0.9-1.8,0.9c-0.7,0-1.3-0.3-1.7-0.9
			c-0.4-0.6-0.6-1.5-0.6-2.7c0-1.2,0.2-2.1,0.6-2.7c0.4-0.6,1-0.9,1.7-0.9c0.8,0,1.3,0.3,1.8,0.9C262.8,255.3,263,256.2,263,257.4z
			 M259.4,257.4c0,0.9,0.1,1.6,0.3,2c0.2,0.4,0.5,0.7,0.9,0.7c0.9,0,1.3-0.9,1.3-2.7c0-1.8-0.4-2.7-1.3-2.7c-0.4,0-0.7,0.2-0.9,0.7
			C259.5,255.8,259.4,256.5,259.4,257.4z M267.9,254l-6.4,11.5h-1.2l6.4-11.5H267.9z M269.9,262c0,1.2-0.2,2.1-0.6,2.7
			c-0.4,0.6-1,0.9-1.8,0.9c-0.7,0-1.3-0.3-1.7-0.9c-0.4-0.6-0.6-1.5-0.6-2.7c0-1.2,0.2-2.1,0.6-2.7c0.4-0.6,1-0.9,1.7-0.9
			c0.7,0,1.3,0.3,1.7,0.9C269.7,259.9,269.9,260.8,269.9,262z M266.3,262c0,0.9,0.1,1.6,0.3,2c0.2,0.4,0.5,0.7,0.9,0.7
			c0.4,0,0.8-0.2,1-0.7c0.2-0.4,0.3-1.1,0.3-2c0-0.9-0.1-1.6-0.3-2c-0.2-0.4-0.5-0.6-1-0.6c-0.4,0-0.8,0.2-0.9,0.6
			C266.4,260.4,266.3,261.1,266.3,262z"/>
		<path fill="#FFFFFF" d="M275.6,261c0,1.4-0.2,2.7-0.6,3.8c-0.4,1.2-1,2.2-1.8,3.1h-1.9c0.7-1,1.3-2,1.6-3.2
			c0.4-1.2,0.6-2.4,0.6-3.7c0-1.3-0.2-2.5-0.6-3.7c-0.4-1.2-0.9-2.3-1.7-3.3h2c0.8,0.9,1.4,2,1.8,3.2
			C275.4,258.4,275.6,259.7,275.6,261z"/>
	</g>
	<g>
		<g>
			<path fill="#FFFFFF" d="M76.4,151.7h-4.1l-4.2-8.1h-0.1c0.1,1.3,0.1,2.2,0.1,2.9v5.2h-2.7v-11.5h4.1l4.2,8h0
				c-0.1-1.2-0.1-2.1-0.1-2.8v-5.2h2.8V151.7z"/>
			<path fill="#FFFFFF" d="M87.2,147.2c0,1.5-0.4,2.6-1.2,3.4c-0.8,0.8-1.9,1.2-3.3,1.2c-1.4,0-2.4-0.4-3.2-1.2
				c-0.8-0.8-1.2-2-1.2-3.4c0-1.4,0.4-2.6,1.2-3.4c0.8-0.8,1.9-1.2,3.3-1.2c0.9,0,1.6,0.2,2.3,0.6c0.7,0.4,1.2,0.9,1.6,1.6
				C87.1,145.5,87.2,146.3,87.2,147.2z M81.5,147.2c0,0.8,0.1,1.3,0.3,1.7c0.2,0.4,0.5,0.6,1,0.6c0.5,0,0.8-0.2,1-0.6s0.3-1,0.3-1.7
				c0-0.8-0.1-1.3-0.3-1.7c-0.2-0.4-0.5-0.6-1-0.6c-0.5,0-0.8,0.2-1,0.6C81.6,145.9,81.5,146.5,81.5,147.2z"/>
			<path fill="#FFFFFF" d="M70.4,165.2l-1-2.6h-3.2l-1,2.6h-0.9l3.2-8.1h0.8l3.2,8.1H70.4z M69.1,161.8l-0.9-2.5
				c-0.1-0.3-0.2-0.7-0.4-1.2c-0.1,0.4-0.2,0.7-0.3,1.2l-0.9,2.5H69.1z"/>
			<path fill="#FFFFFF" d="M74.9,164.6c0.2,0,0.3,0,0.5,0c0.2,0,0.3,0,0.4-0.1v0.7c-0.1,0-0.2,0.1-0.4,0.1s-0.4,0-0.5,0
				c-1.2,0-1.7-0.6-1.7-1.8v-3.6h-0.9v-0.4l0.9-0.4l0.4-1.3h0.5v1.4h1.7v0.7h-1.7v3.5c0,0.4,0.1,0.6,0.3,0.8
				C74.3,164.5,74.6,164.6,74.9,164.6z"/>
			<path fill="#FFFFFF" d="M79.4,164.6c0.2,0,0.3,0,0.5,0c0.2,0,0.3,0,0.4-0.1v0.7c-0.1,0-0.2,0.1-0.4,0.1c-0.2,0-0.4,0-0.5,0
				c-1.2,0-1.7-0.6-1.7-1.8v-3.6h-0.9v-0.4l0.9-0.4l0.4-1.3h0.5v1.4h1.7v0.7h-1.7v3.5c0,0.4,0.1,0.6,0.3,0.8
				C78.9,164.5,79.1,164.6,79.4,164.6z"/>
			<path fill="#FFFFFF" d="M85.7,165.2l-0.2-0.9h0c-0.3,0.4-0.6,0.6-0.9,0.8c-0.3,0.1-0.7,0.2-1.1,0.2c-0.6,0-1.1-0.2-1.4-0.5
				c-0.3-0.3-0.5-0.7-0.5-1.3c0-1.2,1-1.9,2.9-1.9l1,0v-0.4c0-0.5-0.1-0.8-0.3-1c-0.2-0.2-0.5-0.3-1-0.3c-0.5,0-1.1,0.2-1.7,0.5
				l-0.3-0.7c0.3-0.2,0.6-0.3,1-0.4c0.4-0.1,0.7-0.1,1.1-0.1c0.7,0,1.2,0.2,1.6,0.5c0.3,0.3,0.5,0.8,0.5,1.5v4.1H85.7z M83.6,164.6
				c0.6,0,1-0.2,1.3-0.5c0.3-0.3,0.5-0.7,0.5-1.3v-0.5l-0.9,0c-0.7,0-1.2,0.1-1.6,0.3c-0.3,0.2-0.5,0.5-0.5,0.9
				c0,0.3,0.1,0.6,0.3,0.8C83,164.5,83.3,164.6,83.6,164.6z"/>
			<path fill="#FFFFFF" d="M91.2,165.3c-0.9,0-1.5-0.3-2-0.8c-0.5-0.5-0.7-1.3-0.7-2.3c0-1,0.2-1.8,0.7-2.3c0.5-0.6,1.2-0.8,2.1-0.8
				c0.3,0,0.6,0,0.9,0.1c0.3,0.1,0.5,0.1,0.7,0.2l-0.3,0.8c-0.2-0.1-0.4-0.1-0.7-0.2c-0.2-0.1-0.5-0.1-0.6-0.1
				c-1.2,0-1.8,0.8-1.8,2.3c0,0.7,0.1,1.3,0.4,1.7c0.3,0.4,0.7,0.6,1.3,0.6c0.5,0,1-0.1,1.5-0.3v0.8
				C92.3,165.2,91.8,165.3,91.2,165.3z"/>
			<path fill="#FFFFFF" d="M95.6,162.1c0.2-0.2,0.4-0.5,0.7-0.9l1.9-2.1h1.1l-2.4,2.6l2.6,3.5h-1.1l-2.1-2.8l-0.7,0.6v2.3h-0.9v-8.6
				h0.9v4.5C95.6,161.4,95.6,161.7,95.6,162.1L95.6,162.1z"/>
			<path fill="#FFFFFF" d="M101.1,157.6c0-0.2,0.1-0.4,0.2-0.5c0.1-0.1,0.2-0.1,0.4-0.1c0.1,0,0.3,0.1,0.4,0.1
				c0.1,0.1,0.2,0.3,0.2,0.5s-0.1,0.4-0.2,0.5c-0.1,0.1-0.2,0.2-0.4,0.2c-0.2,0-0.3-0.1-0.4-0.2
				C101.2,157.9,101.1,157.8,101.1,157.6z M102.1,165.2h-0.9v-6h0.9V165.2z"/>
			<path fill="#FFFFFF" d="M108.7,165.2v-3.9c0-0.5-0.1-0.9-0.3-1.1c-0.2-0.2-0.6-0.4-1-0.4c-0.6,0-1.1,0.2-1.4,0.5
				c-0.3,0.3-0.4,0.9-0.4,1.7v3.2h-0.9v-6h0.7l0.2,0.8h0c0.2-0.3,0.4-0.5,0.8-0.7c0.3-0.2,0.7-0.2,1.1-0.2c0.7,0,1.3,0.2,1.6,0.5
				c0.4,0.4,0.6,0.9,0.6,1.7v3.9H108.7z"/>
			<path fill="#FFFFFF" d="M117,159.2v0.6l-1.1,0.1c0.1,0.1,0.2,0.3,0.3,0.5c0.1,0.2,0.1,0.4,0.1,0.7c0,0.6-0.2,1.1-0.6,1.4
				c-0.4,0.4-1,0.5-1.7,0.5c-0.2,0-0.3,0-0.5,0c-0.4,0.2-0.6,0.5-0.6,0.8c0,0.2,0.1,0.3,0.2,0.4c0.1,0.1,0.4,0.1,0.7,0.1h1.1
				c0.7,0,1.2,0.1,1.5,0.4c0.4,0.3,0.5,0.7,0.5,1.2c0,0.7-0.3,1.2-0.8,1.5c-0.5,0.3-1.3,0.5-2.3,0.5c-0.8,0-1.4-0.1-1.8-0.4
				c-0.4-0.3-0.6-0.7-0.6-1.2c0-0.4,0.1-0.7,0.4-1c0.2-0.3,0.6-0.4,1-0.5c-0.2-0.1-0.3-0.2-0.4-0.3c-0.1-0.1-0.2-0.3-0.2-0.5
				c0-0.2,0.1-0.4,0.2-0.6c0.1-0.2,0.3-0.3,0.6-0.5c-0.3-0.1-0.6-0.3-0.8-0.7c-0.2-0.3-0.3-0.7-0.3-1.1c0-0.7,0.2-1.2,0.6-1.5
				c0.4-0.4,1-0.5,1.7-0.5c0.3,0,0.6,0,0.9,0.1H117z M112.2,166.2c0,0.3,0.1,0.6,0.4,0.7c0.3,0.2,0.7,0.3,1.2,0.3
				c0.8,0,1.3-0.1,1.7-0.3c0.4-0.2,0.6-0.5,0.6-0.9c0-0.3-0.1-0.6-0.3-0.7c-0.2-0.1-0.6-0.2-1.1-0.2h-1.1c-0.4,0-0.7,0.1-1,0.3
				C112.3,165.6,112.2,165.9,112.2,166.2z M112.7,161.1c0,0.4,0.1,0.7,0.4,1c0.2,0.2,0.6,0.3,1,0.3c0.9,0,1.3-0.4,1.3-1.3
				c0-0.9-0.5-1.4-1.4-1.4c-0.4,0-0.8,0.1-1,0.3C112.8,160.3,112.7,160.7,112.7,161.1z"/>
			<path fill="#FFFFFF" d="M122.2,157.6c0-0.2,0.1-0.4,0.2-0.5c0.1-0.1,0.2-0.1,0.4-0.1c0.1,0,0.3,0.1,0.4,0.1
				c0.1,0.1,0.2,0.3,0.2,0.5s-0.1,0.4-0.2,0.5c-0.1,0.1-0.2,0.2-0.4,0.2c-0.2,0-0.3-0.1-0.4-0.2
				C122.3,157.9,122.2,157.8,122.2,157.6z M123.2,165.2h-0.9v-6h0.9V165.2z"/>
			<path fill="#FFFFFF" d="M129.8,165.2v-3.9c0-0.5-0.1-0.9-0.3-1.1c-0.2-0.2-0.6-0.4-1-0.4c-0.6,0-1.1,0.2-1.4,0.5
				c-0.3,0.3-0.4,0.9-0.4,1.7v3.2h-0.9v-6h0.7l0.1,0.8h0c0.2-0.3,0.4-0.5,0.8-0.7c0.3-0.2,0.7-0.2,1.1-0.2c0.7,0,1.3,0.2,1.6,0.5
				c0.4,0.4,0.5,0.9,0.5,1.7v3.9H129.8z"/>
			<path fill="#FFFFFF" d="M135.9,159.9h-1.5v5.3h-0.9v-5.3h-1.1v-0.4l1.1-0.3v-0.3c0-1.5,0.6-2.2,1.9-2.2c0.3,0,0.7,0.1,1.1,0.2
				l-0.2,0.7c-0.4-0.1-0.7-0.2-0.9-0.2c-0.3,0-0.6,0.1-0.8,0.3c-0.2,0.2-0.2,0.6-0.2,1.1v0.4h1.5V159.9z"/>
			<path fill="#FFFFFF" d="M140.3,159.1c0.3,0,0.5,0,0.7,0.1l-0.1,0.8c-0.3-0.1-0.5-0.1-0.7-0.1c-0.5,0-0.9,0.2-1.2,0.6
				c-0.3,0.4-0.5,0.9-0.5,1.5v3.2h-0.9v-6h0.8l0.1,1.1h0c0.2-0.4,0.5-0.7,0.8-0.9C139.6,159.2,139.9,159.1,140.3,159.1z"/>
			<path fill="#FFFFFF" d="M142.7,157.6c0-0.2,0.1-0.4,0.2-0.5c0.1-0.1,0.2-0.1,0.4-0.1c0.1,0,0.3,0.1,0.4,0.1s0.2,0.3,0.2,0.5
				s-0.1,0.4-0.2,0.5c-0.1,0.1-0.2,0.2-0.4,0.2c-0.2,0-0.3-0.1-0.4-0.2C142.7,157.9,142.7,157.8,142.7,157.6z M143.6,165.2h-0.9v-6
				h0.9V165.2z"/>
			<path fill="#FFFFFF" d="M150.3,165.2v-3.9c0-0.5-0.1-0.9-0.3-1.1c-0.2-0.2-0.6-0.4-1-0.4c-0.6,0-1.1,0.2-1.4,0.5
				c-0.3,0.3-0.4,0.9-0.4,1.7v3.2h-0.9v-6h0.7l0.2,0.8h0c0.2-0.3,0.4-0.5,0.8-0.7c0.3-0.2,0.7-0.2,1.1-0.2c0.7,0,1.3,0.2,1.6,0.5
				c0.4,0.4,0.6,0.9,0.6,1.7v3.9H150.3z"/>
			<path fill="#FFFFFF" d="M158.5,159.2v0.6l-1.1,0.1c0.1,0.1,0.2,0.3,0.3,0.5c0.1,0.2,0.1,0.4,0.1,0.7c0,0.6-0.2,1.1-0.6,1.4
				c-0.4,0.4-1,0.5-1.7,0.5c-0.2,0-0.3,0-0.5,0c-0.4,0.2-0.6,0.5-0.6,0.8c0,0.2,0.1,0.3,0.2,0.4c0.1,0.1,0.4,0.1,0.7,0.1h1.1
				c0.7,0,1.2,0.1,1.5,0.4c0.4,0.3,0.5,0.7,0.5,1.2c0,0.7-0.3,1.2-0.8,1.5c-0.5,0.3-1.3,0.5-2.3,0.5c-0.8,0-1.4-0.1-1.8-0.4
				c-0.4-0.3-0.6-0.7-0.6-1.2c0-0.4,0.1-0.7,0.4-1c0.2-0.3,0.6-0.4,1-0.5c-0.2-0.1-0.3-0.2-0.4-0.3c-0.1-0.1-0.2-0.3-0.2-0.5
				c0-0.2,0.1-0.4,0.2-0.6c0.1-0.2,0.3-0.3,0.6-0.5c-0.3-0.1-0.6-0.3-0.8-0.7c-0.2-0.3-0.3-0.7-0.3-1.1c0-0.7,0.2-1.2,0.6-1.5
				c0.4-0.4,1-0.5,1.7-0.5c0.3,0,0.6,0,0.9,0.1H158.5z M153.7,166.2c0,0.3,0.1,0.6,0.4,0.7c0.3,0.2,0.7,0.3,1.2,0.3
				c0.8,0,1.3-0.1,1.7-0.3c0.4-0.2,0.6-0.5,0.6-0.9c0-0.3-0.1-0.6-0.3-0.7c-0.2-0.1-0.6-0.2-1.1-0.2h-1.1c-0.4,0-0.7,0.1-1,0.3
				C153.9,165.6,153.7,165.9,153.7,166.2z M154.2,161.1c0,0.4,0.1,0.7,0.4,1c0.2,0.2,0.6,0.3,1,0.3c0.9,0,1.3-0.4,1.3-1.3
				c0-0.9-0.5-1.4-1.4-1.4c-0.4,0-0.8,0.1-1,0.3C154.3,160.3,154.2,160.7,154.2,161.1z"/>
			<path fill="#FFFFFF" d="M162.9,165.3c-0.9,0-1.6-0.3-2.1-0.8c-0.5-0.5-0.8-1.3-0.8-2.3c0-1,0.2-1.7,0.7-2.3
				c0.5-0.6,1.1-0.9,1.9-0.9c0.8,0,1.4,0.2,1.8,0.7c0.4,0.5,0.7,1.2,0.7,2v0.6H161c0,0.7,0.2,1.2,0.5,1.6c0.3,0.4,0.8,0.5,1.4,0.5
				c0.6,0,1.3-0.1,1.9-0.4v0.8c-0.3,0.1-0.6,0.2-0.9,0.3C163.6,165.3,163.3,165.3,162.9,165.3z M162.6,159.8c-0.5,0-0.9,0.2-1.2,0.5
				c-0.3,0.3-0.5,0.8-0.5,1.3h3.1c0-0.6-0.1-1-0.4-1.3C163.5,160,163.1,159.8,162.6,159.8z"/>
			<path fill="#FFFFFF" d="M174.9,165.2v-3.9c0-0.5-0.1-0.8-0.3-1.1c-0.2-0.2-0.5-0.4-1-0.4c-0.6,0-1,0.2-1.3,0.5
				c-0.3,0.3-0.4,0.8-0.4,1.5v3.4h-0.9v-3.9c0-0.5-0.1-0.8-0.3-1.1c-0.2-0.2-0.5-0.4-1-0.4c-0.6,0-1,0.2-1.3,0.5
				c-0.3,0.3-0.4,0.9-0.4,1.7v3.2h-0.9v-6h0.7l0.2,0.8h0c0.2-0.3,0.4-0.5,0.7-0.7c0.3-0.2,0.7-0.2,1.1-0.2c0.9,0,1.6,0.3,1.8,1h0
				c0.2-0.3,0.4-0.6,0.8-0.7c0.3-0.2,0.7-0.3,1.2-0.3c0.7,0,1.2,0.2,1.5,0.5c0.3,0.4,0.5,0.9,0.5,1.7v3.9H174.9z"/>
			<path fill="#FFFFFF" d="M180.8,165.3c-0.9,0-1.6-0.3-2.1-0.8c-0.5-0.5-0.8-1.3-0.8-2.3c0-1,0.2-1.7,0.7-2.3
				c0.5-0.6,1.1-0.9,1.9-0.9c0.8,0,1.4,0.2,1.8,0.7c0.4,0.5,0.7,1.2,0.7,2v0.6h-4.1c0,0.7,0.2,1.2,0.5,1.6c0.3,0.4,0.8,0.5,1.4,0.5
				c0.6,0,1.3-0.1,1.9-0.4v0.8c-0.3,0.1-0.6,0.2-0.9,0.3C181.6,165.3,181.2,165.3,180.8,165.3z M180.5,159.8c-0.5,0-0.9,0.2-1.2,0.5
				c-0.3,0.3-0.5,0.8-0.5,1.3h3.2c0-0.6-0.1-1-0.4-1.3C181.4,160,181,159.8,180.5,159.8z"/>
			<path fill="#FFFFFF" d="M189.3,165.2v-3.9c0-0.5-0.1-0.9-0.3-1.1c-0.2-0.2-0.6-0.4-1-0.4c-0.6,0-1.1,0.2-1.4,0.5
				c-0.3,0.3-0.4,0.9-0.4,1.7v3.2h-0.9v-6h0.7l0.1,0.8h0c0.2-0.3,0.4-0.5,0.8-0.7c0.3-0.2,0.7-0.2,1.1-0.2c0.7,0,1.3,0.2,1.6,0.5
				c0.4,0.4,0.5,0.9,0.5,1.7v3.9H189.3z"/>
			<path fill="#FFFFFF" d="M194.5,164.6c0.2,0,0.3,0,0.5,0c0.2,0,0.3,0,0.4-0.1v0.7c-0.1,0-0.2,0.1-0.4,0.1c-0.2,0-0.4,0-0.5,0
				c-1.2,0-1.7-0.6-1.7-1.8v-3.6h-0.9v-0.4l0.9-0.4l0.4-1.3h0.5v1.4h1.7v0.7h-1.7v3.5c0,0.4,0.1,0.6,0.3,0.8
				C194,164.5,194.2,164.6,194.5,164.6z"/>
		</g>
	</g>
	<g>
		<g>
			<path fill="#FFFFFF" d="M313.5,166.6c-0.2,0-0.4,0-0.6,0.1c-0.2,0.1-0.3,0.1-0.5,0.2c-0.4,0.1-0.7,0.3-1,0.4
				c-0.7,0.3-1.3,0.7-2,1.1c-1.3,0.8-2.6,1.6-3.9,2.5l0.3-1l0.9,1.9c0.3,0.6,0.5,1.3,0.7,2c0.4,1.4,0.7,2.8,0.7,4.3l-0.2,0.1
				c-1-1.1-1.7-2.4-2.3-3.7c-0.3-0.6-0.6-1.3-0.8-2l-0.6-2.1l-0.2-0.7l0.5-0.3c1.4-0.7,2.8-1.4,4.3-2c0.7-0.3,1.5-0.6,2.2-0.8
				c0.4-0.1,0.8-0.2,1.2-0.3c0.2,0,0.4-0.1,0.6-0.1c0.2,0,0.4,0,0.6,0L313.5,166.6z"/>
		</g>
		<g>
			<path fill="#FFFFFF" d="M308.8,170.5c0,0,0.2,0,0.5,0.1c0.3,0.1,0.8,0.2,1.4,0.4c1.2,0.4,2.9,1.2,4.7,2.8c0.9,0.8,1.7,1.8,2.6,3
				c0.8,1.2,1.6,2.5,2.3,4c1.4,3,2.5,6.6,3.2,10.6c0.8,4,1.2,8.4,1.3,13.1c0.1,4.7-0.1,9.6-0.6,14.6c-1,10.1-3.2,20.7-6.3,31.1
				c-3.2,10.3-7.3,20.4-11.9,29.4c-4.6,9-9.9,16.9-14.9,23.3c-2.5,3.2-5,6-7.2,8.4c-2.3,2.4-4.3,4.4-6.1,6c-1.7,1.6-3.2,2.8-4.2,3.6
				c-1,0.8-1.5,1.2-1.5,1.2s0.5-0.4,1.4-1.3c1-0.8,2.3-2.1,4-3.7c1.7-1.6,3.7-3.7,5.8-6.2c2.1-2.5,4.5-5.3,6.9-8.5
				c2.4-3.2,4.9-6.8,7.3-10.8c2.4-3.9,4.7-8.2,7-12.7c4.5-9,8.5-19,11.5-29.2c3.1-10.2,5.4-20.8,6.5-30.7c0.5-5,0.9-9.8,0.9-14.4
				c0-4.6-0.3-8.9-0.9-12.9c-0.6-3.9-1.6-7.5-2.8-10.5c-0.6-1.5-1.3-2.8-2.1-4c-0.8-1.2-1.6-2.2-2.4-3c-1.6-1.7-3.3-2.6-4.5-3
				c-0.6-0.3-1.1-0.4-1.4-0.5C309,170.5,308.8,170.5,308.8,170.5z"/>
		</g>
	</g>
</g>
</svg>
